<svg id="Camada_1" data-name="Camada 1" xmlns="http://www.w3.org/2000/svg" viewBox="0 0 683.25 405.75"><defs><style>.cls-1{fill:#fdfdfd;}.cls-2{fill:#848589;}.cls-3{fill:#0d0a0a;}</style></defs><path class="cls-1" d="M959.25,742.68q-168.9,0-337.81.07c-2.81,0-3.44-.63-3.44-3.44q.12-199.44,0-398.87c0-2.81.63-3.44,3.44-3.44q338.19.12,676.37,0c2.81,0,3.44.63,3.44,3.44q-.12,199.44,0,398.87c0,2.81-.63,3.44-3.44,3.44Q1128.52,742.63,959.25,742.68Zm-67.45-97.5c0,.32-.06.72.48.39l-.54-.35-.73-.75-2.66-4.78c-.05,2.21-.32,4.56,2.68,4.76C890.94,645.06,891.23,645.26,891.8,645.18ZM660.87,405.23c-.1-.34-.37-.68-.64-.35s.15.48.46.54c.09.33.24.58.65.39Zm164.75,65c-1.61,1.8-1.69,4.12-1.78,6.29-.19,5,2,8.52,5.8,9.7,5.86,1.83,9.43-.44,11.37-7.23a9,9,0,0,0-3-10.07c-3.34-2.85-6.18-3-10.36-.73A2.06,2.06,0,0,0,825.62,470.27Zm208.65,54.28c1.72.14.85,2.49,3,3.08,0-4.16-.36-8.08.08-11.93.84-7.44-5.46-8.75-11.15-6.56-.66.25-1.5.57-1,1.59.42.81,1.15.42,1.59.19a8.79,8.79,0,0,1,5.5-.54c2.37.35,2.62,2.25,2.65,4.26,0,2.52-1.81,1.37-2.92,1.59-1.45.3-2.93.44-4.39.71-3.45.63-5.53,2.9-5.28,5.7.27,3.07,2.75,4.9,6.37,4.92a6.1,6.1,0,0,0,5.58-3.08ZM917,485.07c1.07.1,2.26-2.27,3.17.11.25.63.35,1.18,1.17,1.07,1.09-.14.9-1,.9-1.71q0-12.17,0-24.33c0-1-.16-1.67-1.4-1.71s-1.32.74-1.32,1.67c0,2.89,0,5.79,0,9-7-4.69-12.64-2.06-14,4.1a14,14,0,0,0,.92,9.48c2.19,4.29,7.1,5.32,10.58,2.24Zm-242.8-40c3.74,0,7.48,0,11.22,0s5.37-1.45,5.4-5.35c.07-7.72,0-15.45,0-23.18,0-3.25-1.59-5.16-4.94-5.19q-12-.07-23.93,0c-3.11,0-4.82,1.77-4.85,4.88-.05,8-.11,16,0,23.93.06,3.06,1.47,5.1,5.08,4.94C666.17,444.9,670.17,445,674.16,445Zm16.64,24.73c0-3.74,0-7.48,0-11.22,0-4.56-1.45-6-6-6q-10.84,0-21.7,0c-4.58,0-6,1.42-6,6,0,7,0,14,0,20.95,0,5.54,1.19,6.85,6.73,6.79,7.56-.07,15.13.29,22.71-.55,3.09-.35,4.22-1.62,4.27-4.33C690.86,477.49,690.8,473.63,690.8,469.76Zm40.53-41.64c0-4,0-8,0-12,0-3.17-1.25-4.88-4.58-4.87-8,0-16,0-23.94,0-3,0-4.54,1.61-4.54,4.63q0,12.35,0,24.69c0,2.85,1.35,4.39,4.26,4.4,8.11,0,16.21,0,24.32,0,3.08,0,4.51-1.52,4.48-4.57C731.31,436.35,731.34,432.24,731.33,428.12Zm-33.05,41c0,3.74,0,7.49,0,11.23,0,4.27,1.1,5.74,5.3,5.85q11.22.3,22.47,0c4.18-.11,5.27-1.62,5.27-5.88,0-7.62,0-15.23,0-22.85,0-3.41-1.41-5-4.89-5-7.86.07-15.73,0-23.59,0-3,0-4.57,1.58-4.59,4.59C698.27,461.13,698.28,465.12,698.28,469.12Zm-24.4,57.66c3.88,0,7.76-.16,11.62,0,3.56.19,5.18-1.7,5.24-4.81.17-7.86.19-15.74,0-23.6-.07-2.83-1.49-4.79-4.94-4.73q-11.81.22-23.61,0c-3.64-.07-5,2-5.06,5q-.23,11.61,0,23.23c.06,3.09,1.57,5.07,5.15,4.91C666.13,526.65,670,526.78,673.88,526.78Zm65.62-57.92c0,4.11.13,8.23,0,12.34-.15,3.42,1.81,4.92,4.67,5,7.72.2,15.46.18,23.19,0,2.94-.06,5.24-1.33,5.23-4.89,0-8,0-16,0-23.94,0-2.92-1.63-4.75-4.54-4.79q-12.35-.18-24.7,0c-2.56,0-4,1.39-3.83,4.31C739.65,460.87,739.5,464.87,739.5,468.86Zm-47.17-81.7a18.72,18.72,0,0,0-18.79-18.61c-9.83.12-18.51,9-18.43,18.79A19.1,19.1,0,0,0,673.66,406,18.9,18.9,0,0,0,692.33,387.16Zm22.13,16.68c4.24,0,8.49,0,12.74,0,2.77.05,4.17-1.06,4.15-3.95q-.06-12.56,0-25.1c0-2.82-1.17-4.1-4-4.08q-12.55.09-25.1,0c-2.62,0-4,1.07-4,3.75,0,8.5,0,17,0,25.48,0,2.92,1.45,3.95,4.2,3.9C706.46,403.78,710.46,403.84,714.46,403.84Zm41.53,0c4.12,0,8.24-.14,12.34.05,2.76.13,4.1-1.24,4.13-3.62q.21-12.9,0-25.8c0-2.05-.9-3.77-3.62-3.74-8.6.09-17.2,0-25.8,0-2.49,0-3.56,1.33-3.56,3.74,0,8.48,0,17,0,25.43,0,2.89,1.42,4,4.17,3.92C747.76,403.79,751.88,403.84,756,403.84Zm-41.06,89.89c-4.25,0-8.5,0-12.75,0-2.62,0-3.91,1.12-3.91,3.8q0,12.38,0,24.74c0,3.07,1.46,4.54,4.53,4.54q12.38,0,24.75,0c2.67,0,3.8-1.29,3.79-3.92q-.06-12.56,0-25.11c0-2.84-1.22-4.1-4.06-4.05C723.18,493.78,719.05,493.73,714.93,493.73ZM818.48,419.2c2,.93,2.38,2.34,3,3.45,3.2,5.47,6.63,10.84,9.39,16.53,2,4.18,4.72,5.79,9.26,5.2,1.82-.23,2.62-.45,2.6-2.5-.1-9.61-.14-19.22,0-28.83,0-2.52-1.26-2.4-3-2.43s-3,0-2.92,2.45c.21,6.36.14,12.73.12,19.1,0,.88.58,2-.64,2.64-1.34-.48-1.71-1.75-2.33-2.8-3.26-5.57-6.87-11-9.68-16.77-1.87-3.87-4.28-4.95-8.31-4.7-2.56.16-3.06.88-3,3.22.13,9.11.11,18.22,0,27.33,0,2.25.3,3.29,3,3.32,2.86,0,3.21-1.12,3.14-3.52C818.87,433.82,819.34,426.73,818.48,419.2Zm209.31-8.73c-10.23,0-16,6.06-16.06,16.83,0,11,5.89,17.49,15.93,17.56s16.13-6.63,16-17.48C1043.58,416.31,1038.09,410.48,1027.79,410.47Zm88.89,16.93c0,2.25-.09,4.5,0,6.74.16,3.32-1.48,7.86.68,9.61s6.42.57,9.76.53c9.85-.13,15.79-5,17.06-14.68,1.13-8.5-3-17.16-13.51-18.44-3.86-.46-7.71-.37-11.57-.54-2.06-.1-2.52.67-2.48,2.56C1116.75,417.92,1116.68,422.66,1116.68,427.4Zm88.06,16.52c-2.71-3.95-5.22-7.63-7.75-11.29-1.17-1.7-2.1-2.95.6-4.56,3.73-2.22,4.66-6.11,3.66-10.19s-4.15-5.94-8.13-6.58a95.2,95.2,0,0,0-11.57-.72c-2.41-.09-2.89.73-2.87,2.95q.18,14,0,28.1c0,2.11.55,2.62,2.66,2.76,3.1.21,4.29-.64,3.84-3.84a26.57,26.57,0,0,1,0-6c.09-1.06-1-2.77,1-3.08,1.62-.26,3.39-.73,4.5,1.44s3.08,4.29,4.09,6.66C1196.65,444.07,1199.83,445.25,1204.74,443.92ZM949.42,423.3c0,2.49,0,5,0,7.49,0,9.17,3,12.89,12,13.83,8.8.91,15.72-4,15.22-12.95a181.15,181.15,0,0,1,0-18.35c.13-3.12-1.65-2.64-3.51-2.7s-3.48-.11-3.36,2.82c.25,6.49.14,13,0,19.48-.07,4.25-2.06,6.07-6.28,6.18-5.27.14-7.14-1.37-7.35-6.61-.24-5.86-.16-11.74-.17-17.61,0-2.37.48-4.4-3.4-4.41s-3.19,2-3.18,4.21C949.43,417.55,949.42,420.42,949.42,423.3Zm257,20.92c3.54-.19,7.7,1.81,8.23-3.76.37-3.79,2.43-5,5.95-4.39a14.07,14.07,0,0,0,2.25,0c5.9,0,6.08-.05,7.62,5.64.61,2.23,1.57,2.8,3.61,2.6,1.32-.13,2.66,0,4.37,0-3.92-11-7.71-21.6-11.43-32.21-.32-.9-.57-1.4-1.66-1.59-5.53-1-7.08-.12-8.89,5.11-.16.47-.42.9-.58,1.37C1212.76,426,1209.63,435,1206.42,444.22ZM1089.8,427.43c0,4.87.08,9.74,0,14.6,0,1.84.59,2.34,2.35,2.3,5-.1,10-.14,15,0,2.52.08,2-1.5,2.07-2.93.11-1.6-.1-2.6-2.14-2.48-2.74.17-5.49-.05-8.23.08-1.85.08-2.25-.66-2.33-2.39-.3-7.21-.37-7.21,6.88-7.21.5,0,1,0,1.5,0,1.8.08,3.28.28,3.31-2.52s-1.3-3-3.41-2.88a46.22,46.22,0,0,0-4.86.06c-3.4.58-3.38-1.36-3.44-3.85-.06-2.72.08-4.6,3.65-4.13,2.33.3,4.74,0,7.1.08,2.59.14,1.85-1.66,2-3s.11-2.61-2-2.54c-5,.14-10,.16-15,0-2.17-.08-2.41.83-2.37,2.61C1089.86,418,1089.8,422.69,1089.8,427.43Zm62.13-.05c0,4.74.09,9.48,0,14.22-.06,2,.37,2.84,2.6,2.75,4.61-.18,9.23-.19,13.84,0,2.37.1,2.54-.95,2.54-2.85s-.3-2.75-2.41-2.58c-2.36.19-4.75-.1-7.11.08-2.17.17-2.67-.65-2.68-2.72-.06-6.88-.14-6.88,6.75-6.88a14.42,14.42,0,0,1,1.86,0c2,.27,2.8-.31,2.82-2.56s-.72-3.16-3-2.85a22.93,22.93,0,0,1-3,0c-5.81,0-5.74,0-5.45-5.76.08-1.6.52-2.2,2.12-2.15,2.62.09,5.25-.1,7.85.08,2.39.16,2.17-1.29,2.19-2.85s.1-2.84-2.24-2.74c-4.74.18-9.48.14-14.22,0-2-.06-2.52.66-2.48,2.56C1152,417.9,1151.93,422.64,1151.93,427.38Zm-302,9.51c-.39,6.68-.39,6.68,5.89,7.51.62.08,1.23.28,1.85.31,6.26.31,11.88-1.78,13.34-7.07,1.37-5-.62-8.64-6.93-12-1.75-.92-3.55-1.74-5.25-2.75s-2.76-2.36-2.12-4.34a4.07,4.07,0,0,1,4-2.79,10.49,10.49,0,0,1,5.47.93c3.19,1.68,3.51-.79,4.29-2.59,1.13-2.59-1.46-2.16-2.48-2.6a16.9,16.9,0,0,0-7.32-1.06c-5.13.15-9,2.47-10.12,6.13-1.43,4.89.34,8.85,5.39,11.84,2.33,1.38,4.8,2.55,7.11,4a3.58,3.58,0,0,1,1.61,4.23c-.5,1.88-2,2.34-3.72,2.5C857.11,439.47,853.58,438.39,849.92,436.89Zm213.55-9.58c0,4.49.16,9-.06,13.47-.13,2.71.54,3.49,3.42,3.66,4.29.24,3.4-2.4,3.41-4.74,0-8.77,0-8.83,8.42-8.84,2.07,0,3-.19,3.06-2.74s-1.21-2.72-3.15-2.63c-2.12.1-4.24,0-6.36,0-1.06,0-1.77,0-2-1.48-1.15-6.74-.26-7.9,6.49-7.9a23.09,23.09,0,0,1,3,0c2.27.28,3-.5,3-2.89-.06-2.16-.71-2.74-2.79-2.67-4.49.14-9,.16-13.48,0-2.24-.09-3.07.46-3,2.86C1063.61,418.07,1063.47,422.69,1063.47,427.31Zm-65.31,3.09h0v-6c0-2.37-.79-5.23.25-7,1.32-2.25,4.51-.81,6.84-.86,2.57-.06,2-1.65,2-3s.39-3-2.1-2.91c-7,.14-14,.07-21,0-1.38,0-1.9.37-2,1.87-.27,2.88.27,4.6,3.67,4,1-.18,2,.08,3-.05,2.12-.29,2.74.52,2.7,2.66-.12,7.61.07,15.24-.11,22.85-.06,2.61,1.32,2.54,3,2.31s4,1.21,3.83-2.26C998,438.15,998.16,434.27,998.16,430.4Zm-70.46,0c0,3.74.25,7.51-.08,11.22-.28,3.14,1.55,2.69,3.42,2.68s3.62.44,3.47-2.69c-.28-6-.07-12-.07-17.95,0-6.88,0-7,6.67-7.13,2.48,0,2.44-1.22,2.45-3s0-3-2.47-3c-6.48.17-13,.19-19.45,0-2.56-.07-3.31.58-3.42,3.24-.13,3.2,1.73,2.64,3.55,2.64a19.88,19.88,0,0,0,3,0c2.59-.41,3.1.83,3,3.14C927.57,423.17,927.7,426.8,927.7,430.41Zm-43.47-.28c0,3.86.21,7.74-.06,11.58-.2,2.73,1.21,2.72,3.11,2.6s4,.68,3.82-2.75c-.27-6-.07-12-.07-17.95,0-6.8,0-6.92,6.71-7.07,2.18-.05,2.51-1,2.31-2.69-.16-1.43.73-3.31-2.12-3.25-6.85.15-13.71.08-20.56,0-1.45,0-2.18.2-2.34,2-.27,3,.48,4.48,3.76,3.91,1-.17,2,.07,3-.05,2-.25,2.59.47,2.51,2.46C884.12,422.64,884.23,426.39,884.23,430.13Zm359.17-2.63c0,4.86,0,9.72,0,14.58,0,1.44.13,2.29,1.95,2.26,5.48-.11,11-.15,16.45,0,2.62.07,1.81-1.65,2-3,.18-1.6-.07-2.58-2.12-2.44-2.73.19-5.49-.13-8.22.09-2.55.22-3.42-.47-3.35-3.19.2-7.6,0-15.21.14-22.81.06-2.54-1.24-2.6-3-2.34-1.54.23-4-1.2-3.86,2.24C1243.51,417.77,1243.4,422.64,1243.4,427.5Zm-270,54.35-.91-.11c-2.47-6.44-5-12.85-7.37-19.35-.77-2.17-2.21-1.93-3.8-1.87-2.2.09-1.24,1.79-1.3,2.81-.13,2.48,0,5,0,7.48,0,4.36,0,8.73,0,13.1,0,.88-.46,2.25,1.06,2.32,1.95.11,1.17-1.52,1.2-2.42.11-2.49,0-5,0-7.49V464.75c1.84.86,2,2,2.34,3,2,5.22,3.92,10.45,6,15.6.45,1.1.27,3,2.29,2.92,1.77-.07,1.51-1.71,1.94-2.74,1.11-2.62,2-5.34,3.15-7.95,1.55-3.55,2.34-7.46,5.17-11.42,0,6.87-.06,12.92.06,19,0,1.08-1,3.19,1.33,3.07,2.22-.11,1.18-2.1,1.2-3.24.09-6.36.1-12.73,0-19.09,0-1.18,1.13-3.1-1.52-3.41-2.27-.27-3,.89-3.65,2.73C978.33,469.45,975.84,475.64,973.41,481.85Zm86.6,147c0-4.24,0-8.49,0-12.74,0-1.29-.44-1.73-1.73-1.72s-1.84.32-1.75,1.67,0,2.75,0,4.12c.14,2-.13,3-2.64,2.12-3.55-1.22-6.62,0-8.89,3-2.82,3.75-3,11.42-.37,15.27a6.48,6.48,0,0,0,7.83,2.75c1.82-.59,3.32-1.77,5.49-.5,1.35.79,2.07-.39,2-2C1059.94,636.89,1060,632.89,1060,628.89Zm-111.73-.15c0-4.13,0-8.25,0-12.37,0-1.43-.38-2-1.89-2s-1.63.69-1.58,1.85-.07,2.5,0,3.74c.17,2.17-.05,3.25-2.79,2.29-3.21-1.12-6.15,0-8.38,2.6-3.16,3.75-3.56,11.93-.64,15.87a6.56,6.56,0,0,0,8.24,2.45c1.54-.58,2.82-1.64,4.79-.36,1.41.92,2.29-.32,2.24-2.12C948.19,636.73,948.28,632.73,948.28,628.74ZM804,427.79c0-4.87-.19-9.76.07-14.61.16-2.85-1.41-2.63-3.21-2.53s-3.72-.81-3.65,2.47q.27,14.43,0,28.85c0,3.06,1.81,2.33,3.39,2.3s3.6.86,3.46-2.25C803.81,437.29,804,432.53,804,427.79Zm108.73,0c0-4.87-.18-9.74.07-14.6.14-2.8-1.39-2.65-3.22-2.54s-3.7-.74-3.64,2.5c.19,9.61.17,19.22,0,28.82,0,2.62,1.34,2.52,3,2.3s4,1.2,3.83-2.26C912.55,437.28,912.68,432.53,912.69,427.79ZM822.52,621.87c1.4-3.78-.34-5.29-3.49-6a15.45,15.45,0,0,0-7.37-.32c-6.68,1.66-10,7.47-9.29,16.14.83,9.52,8.2,14.27,17.21,11.23,3-1,4.3-2.56,2.89-5.72-5,4-9.05,4.63-12.57,2-4.4-3.29-5.28-13-1.61-17.81C811.57,617.05,816.77,617.19,822.52,621.87Zm196.94,16.88c-1.57.6-2.69,1.13-3.86,1.48-4.87,1.48-8.73-.51-9.6-4.8-.32-1.56-.13-2.29,1.7-2.23,3.36.11,6.73,0,10.09,0,1.05,0,2.26.37,2.25-1.52,0-3.11-.46-6.06-3-8.08a8.3,8.3,0,0,0-8.82-1c-4,1.72-5.56,5.1-5.78,9.24-.23,4.33.53,8.32,4.77,10.56,3.78,2,7.68,1.61,11.48-.16C1020.29,641.57,1019.45,640.25,1019.46,638.75Zm-50.48.19a39.76,39.76,0,0,1-4.91,1.63c-4.2.84-7.38-1.23-8.28-5-.43-1.8-.07-2.47,1.89-2.38,3.24.13,6.49-.11,9.72.08,2.08.13,2.45-.69,2.4-2.54-.13-4.47-2.12-7.49-5.86-8.52a9.16,9.16,0,0,0-10.28,4.2c-2.29,3.89-2,10.58.6,13.84s7.68,4.37,12.67,2.74C969.07,642.3,970.06,641.23,969,638.94Zm-127.23-.2c-1.57.61-2.69,1.13-3.86,1.49-4.87,1.48-8.73-.5-9.6-4.8-.32-1.54-.15-2.29,1.69-2.23,3.36.11,6.73,0,10.09,0,1,0,2.26.39,2.26-1.5,0-3.11-.46-6.07-3-8.09a8.3,8.3,0,0,0-8.82-1c-4,1.71-5.57,5.1-5.78,9.24-.23,4.32.53,8.32,4.76,10.55,3.78,2,7.67,1.62,11.48-.15C842.57,641.57,841.73,640.25,841.75,638.74Zm51.6-12.39c2.82-1,5.44-1.85,8.21-1.16a3,3,0,0,1,2.49,3.28c-.12,1.77-1.79.86-2.69,1.15-1.64.51-3.46.43-5.11.92a6.66,6.66,0,0,0-4.46,9.16c1.31,3.52,5.12,5,9,3.42,1.45-.58,2.61-1.81,4.46-.27,1,.8,2.49.23,2.41-1.89-.16-4.22,0-8.46-.06-12.69,0-3.34-1.79-5.27-5-6a18.81,18.81,0,0,0-6.65,0C893.46,622.56,892.26,623.48,893.35,626.35Zm172.38,0c2.76-.84,5.47-1.91,8.37-1.1a3.09,3.09,0,0,1,2.42,3c.12,2-1.56,1.14-2.42,1.37-2,.55-4.2.61-6.14,1.33-3.7,1.37-5.14,5.15-3.68,8.91a6.42,6.42,0,0,0,8.34,3.58c1.81-.65,3.29-1.88,5.49-.5,1.37.86,2-.44,2-2-.09-4.1-.06-8.21,0-12.32,0-3.75-2-5.77-5.46-6.42a20.78,20.78,0,0,0-6.67.17C1065.57,622.63,1065,623.76,1065.73,626.32ZM815.25,481.76a8.3,8.3,0,0,1-3-3.19c-3.51-5.42-7.14-10.75-10.6-16.2-.83-1.3-1.64-2.11-3.24-1.85-2.09.34-1.07,2-1.09,3q-.15,9.92,0,19.82c0,1-1,2.87,1.07,2.92s1.12-1.86,1.13-2.85c.1-6,.05-12.05.05-18.12,1.73,0,1.87,1.22,2.37,2,3.83,5.79,7.66,11.59,11.4,17.45.86,1.34,1.9,2,3.38,1.56s.78-1.89.79-2.84c.08-6.6.09-13.21,0-19.82,0-1,.94-3-1-3-2.27,0-1.15,2.08-1.18,3.17C815.18,469.6,815.25,475.42,815.25,481.76Zm279-2.27c0-7,0-7-6.17-6.64-.9.06-2.19-.4-2.13,1.25,0,1.42,1.25,1.1,2,1,4-.76,4.37,1.55,4,4.5-.2,1.5,1,3.68-.9,4.38-4.7,1.73-12.43.89-14.5-4.8-1.69-4.65-1.86-9.48,1.41-13.48s7.7-4,12.35-2.84c.94.23,2.65,1.56,3.06-.45s-1.59-1.39-2.63-1.78a8.25,8.25,0,0,0-1.05-.38c-8.69-1.79-15.6,2.66-16.69,11.53-1,7.65,2.11,14,11.5,15.14C1091.75,487.76,1094.25,486,1094.25,479.49Zm-254.9,38.32c0,2.5,0,5,0,7.49,0,.84-.55,2.12,1.18,2.12s1.28-1.19,1.31-2.11c.13-3.36.08-6.74.35-10.09.31-3.8,1.92-5.06,5.55-5s4.09,2.65,4.17,5.4c.09,3.24,0,6.49,0,9.73,0,.76-.4,1.89,1,2,1.63.13,1.33-1.12,1.34-2,0-3.5-.17-7,.09-10.48.24-3.23,2.23-4.71,5.57-4.64s4.12,2.08,4.09,4.92q-.07,5.05,0,10.11c0,.85-.52,2.23,1.2,2.13s1.08-1.41,1.1-2.27c.06-3.37,0-6.74,0-10.1,0-2.52-.36-4.83-2.78-6.08a6.54,6.54,0,0,0-7.64.76c-1.34,1.12-2.06,1.52-3.61,0-2.14-2-4.92-2.2-7.61-.71-1.29.71-2.43,3.27-3.8-.16-.31-.77-1.62.16-1.59,1.45C839.39,512.82,839.35,515.32,839.35,517.81ZM1023.1,632.67c0,2.5,0,5,0,7.49,0,1.2-.65,2.8,1.72,2.87s1.84-1.44,1.85-2.72c0-3.36,0-6.73,0-10.1A4.89,4.89,0,0,1,1032,625c3.31,0,3.76,2.27,3.79,4.82,0,3.74.06,7.48,0,11.22,0,1.38.3,2.06,1.85,2,1.22-.06,1.81-.37,1.78-1.7-.09-4.49.22-9-.25-13.45-.56-5.18-4.92-7.31-9.6-5.07-1.28.62-2.14,1.85-3.77.07-.75-.82-2.87-.49-2.7,2C1023.25,627.43,1023.1,630.06,1023.1,632.67Zm-177.71.12c0,2.74.05,5.49,0,8.23,0,1.4.36,2,1.87,2s1.78-.8,1.76-2.07c0-3.62,0-7.24,0-10.85,0-3.18,2.13-5.17,5.37-5.11s3.65,2.43,3.68,4.94q.06,5.61,0,11.22c0,1.14.12,1.89,1.58,1.86s2.09-.21,2-1.82c-.1-4.23.19-8.5-.14-12.71-.47-5.8-5-8.15-10.14-5.43-1.2.62-1.73,1.07-3.09-.1-1-.9-3.15-.72-3,2S845.39,630.17,845.39,632.79Zm238.24,5.87c0,1.6-1,3.17,1,4,3.35,1.3,6.8,1.81,10.14.12a5.93,5.93,0,0,0,3.38-6.14c-.2-2.81-1.89-4.2-4.39-4.88-1.43-.4-2.92-.64-4.34-1.08s-2.55-1.2-2.41-2.88,1.52-2.46,3.07-2.73c2.58-.44,4.79.78,7.1,2,.27-1.64,1-3.34-.89-4-3.08-1.15-6.32-1.68-9.42-.06a5.76,5.76,0,0,0-3.33,5.78c.15,2.76,1.73,4.33,4.16,5.14,1.41.47,2.93.63,4.37,1s2.77,1.23,2.63,3.08-1.53,2.46-3.07,2.73C1088.84,641.13,1086.36,639.9,1083.63,638.66ZM875.32,525.05c2.15.93,3.31,2.26,5.17,2.46,6.55.74,10.8-5.78,8.53-13.25-1.47-4.86-4.91-6.9-9.17-5.84-1.77.44-3.4,3.33-5.73.43-.67-.82-1.11.77-1.11,1.59q0,11.76,0,23.52c0,.8-.28,1.83,1.14,1.84s1.16-1,1.16-1.82C875.34,531.15,875.32,528.32,875.32,525.05Zm-.68,115.54c-3.38.62-4.54-1.11-4.47-4.18a48,48,0,0,0,0-5.23c-.3-3.48-.37-6.58,4.68-5.47.89.19,1.68-.05,1.73-1.32s-.57-1.85-1.77-1.67c-3.45.53-5.48-.35-4.63-4.38.28-1.32-.48-1.66-1.71-1.66s-1.67.43-1.75,1.71c-.12,1.71,1.08,4-1.94,4.71-.66.16-.64,2,0,2.22,3.1.87,1.83,3.28,2,5.1.17,2.6-.08,5.23.12,7.83a6.06,6.06,0,0,0,8.35,5.23,1.86,1.86,0,0,0,1.36-2.26C876.38,639.54,875.34,640.6,874.64,640.59Zm108.09-17.53q3.4,9,6.81,18c.4,1.06.7,2,2.24,1.95s1.89-.74,2.32-1.88c2.26-6,4.58-12.06,6.87-18.08-2.7-1.09-3.92-.07-4.69,2.48-1.22,4-2.79,8-4.41,12.49-1.62-4.52-3.14-8.45-4.42-12.46C986.68,623.16,985.54,621.92,982.73,623.06ZM937.28,477.17c1.75,0,3.5-.05,5.24,0,1.25.05,1.69-.42,1.8-1.7a8.44,8.44,0,0,0-4.74-8.19,8.13,8.13,0,0,0-9.41,2.41c-2.74,3.58-3,9.71-.52,13.34,2.22,3.28,6.39,4.47,11.37,3.25,1.07-.26,2.67-.37,2.31-1.78-.43-1.72-2-.35-2.74-.17-3.39.75-6.44.69-8.72-2.34-.92-1.22-1.59-2.79-1-4.2s2.22-.46,3.37-.61A21.29,21.29,0,0,1,937.28,477.17Zm102.22,1.19v-3.75c0-7-5.42-10.26-11.64-7-.69.37-1.43.75-1,1.64.33.69,1.07.43,1.65.23a11.39,11.39,0,0,1,5.49-.59c2.64.35,3,2.39,3.13,4.39.22,2.73-2,1.59-3.17,1.66a19,19,0,0,0-6.52,1.34,5.44,5.44,0,0,0-2.68,7.78c1.64,3.07,6.65,3.59,10.21,1.05.64-.45,1.14-1.71,2.06-.83.69.65.55,2.6,2.09,1.69.55-.33.33-2.05.37-3.14C1039.54,481.36,1039.5,479.86,1039.5,478.36Zm110.38-.27v-3.36c0-7.2-4.76-10.17-11.35-7.11-.62.29-1.59.41-1.2,1.43s1.1.69,1.87.41A9.37,9.37,0,0,1,1145,469c2.28.62,2.45,2.49,2.42,4.47,0,2.52-1.94,1.51-3,1.44a16.92,16.92,0,0,0-5.76,1,5.19,5.19,0,0,0-4,5.46c.07,2.69,1.36,4.28,4,5.08a7.82,7.82,0,0,0,7-1.33c.64-.43,1.08-1.57,2.14-.74.64.51,0,2.55,1.6,1.7,1-.54.37-2.06.43-3.13C1149.94,481.34,1149.87,479.71,1149.88,478.09Zm-40.8-.93c1.75,0,3.5,0,5.25,0,1,0,1.52-.22,1.69-1.4.45-3.25-1.93-7.27-5.39-8.76-2.41-1-7.32.3-8.89,2.43-2.57,3.46-2.84,10-.55,13.45s6.27,4.58,11.33,3.43c1.17-.27,3-.34,2.48-2-.4-1.3-1.92-.17-2.86,0-3.51.71-6.79.74-8.87-2.77-1.89-3.18-1.16-4.41,2.43-4.42Zm-225.22,0c1.74,0,3.49,0,5.23,0,1.1,0,1.84,0,2-1.49.26-2.82-2.1-7.07-4.86-8.33a8.44,8.44,0,0,0-9.44,2.07c-2.72,3.35-3,10.15-.48,13.68s7.52,4.71,12.12,3.06c.91-.33,2.18-.65,1.73-1.95s-1.53-.17-2.13,0c-2.6.64-5.15,1-7.6-.35a5.08,5.08,0,0,1-2.86-5.58c.48-2.35,2.7-.66,4.08-1.06A9.2,9.2,0,0,1,883.86,477.15Zm79.77,33.5c3.29.6,5.35-.7,7.59-.43,2.81.33,3.45,2.27,3.58,4.42.16,2.66-2.08,1.47-3.28,1.55a19.84,19.84,0,0,0-5.8,1.2c-2.09.79-3.56,2.18-3.53,4.71,0,2,.48,3.75,2.39,4.67a7.9,7.9,0,0,0,7.49-.19c1.06-.56,2.47-3.09,3.29.3.06.24.88.49,1.28.41.87-.17.5-1,.51-1.53,0-3.36.05-6.73,0-10.09,0-2.65-.1-5.42-3-6.68C970.81,507.5,967.57,508,963.63,510.65ZM833.1,520.14c0-1.37,0-2.75,0-4.12.25-8.26-5.43-8.77-11-7-.62.2-1.63.45-1.39,1.43s1.23.69,1.82.41a9.4,9.4,0,0,1,5.15-.5c2.61.28,2.92,2.51,3,4.47.08,2.39-1.95,1.17-3.07,1.41-1.7.36-3.42.62-5.13.83-3.54.45-4.36,2.86-4.21,5.87s2,4.37,4.85,4.61a7.38,7.38,0,0,0,5.63-1.48c.6-.49,1.3-1.43,2.13-.44.53.63.1,2.33,1.69,1.67,1.18-.49.45-1.76.52-2.66C833.19,523.14,833.1,521.63,833.1,520.14Zm115.36,7.38v0H950c4.68-.1,7.26-1.91,8.06-5.64.74-3.44-.95-6-5.31-7.77a31.12,31.12,0,0,1-5.42-2.39c-1.73-1.13-2-2.69-1.71-4.54s1.49-2.69,3.26-3.05a14.37,14.37,0,0,1,6.26.39c.88.21,1.56.78,2-.58s-.9-1.23-1.47-1.5c-1.74-.81-3.67-.53-5.52-.51-3.87,0-6.78,2.06-7.19,5.17-.46,3.56,1.46,5.89,4.51,7.36,1.78.85,3.62,1.58,5.46,2.32,2.36.94,3.11,2.78,2.67,5.1-.47,2.49-2.3,3.38-4.64,3.42-1.49,0-3.06-.32-4.46,0s-3.18-2.3-3.56.17c-.3,2,2.25,1.68,3.73,2A9.62,9.62,0,0,0,948.46,527.52ZM798.7,513.7a14.74,14.74,0,0,1,.31-3.07c1.37-5.4,5.83-7.57,12.76-6.18,1,.2,1.92.75,2.46-.52.61-1.49-.87-1.23-1.48-1.46-4.71-1.79-11.26-.22-14,3.29-3.63,4.54-3.89,12.71-.57,17.52,2.52,3.65,8.5,5.46,13.51,4,.85-.25,2.29-.27,2.08-1.65-.3-2-1.61-.41-2.3-.35C802.36,526.08,798.72,523.1,798.7,513.7Zm204-37.15a45.69,45.69,0,0,0,.07,6c.17,1.25-1.21,3.54,1,3.64,2.51.11,1-2.28,1.18-3.47.42-3.3-.34-6.67.62-10,1.11-3.8,3.91-4,7.07-3.75s3.57,2.52,3.56,5.06c0,3.49,0,7,0,10.47,0,.86-.07,1.79,1.24,1.82s1.16-1,1.16-1.82c0-3.36,0-6.72,0-10.09-.07-7-5.11-9.83-11.29-6.34-1.17.67-2.26,2.13-2.63-.58,0-.24-.81-.54-1.23-.53-.88,0-.75.83-.75,1.4C1002.7,471.07,1002.72,473.81,1002.71,476.55Zm-.77,41.32c0,2.25-.09,4.5,0,6.74,0,.95-.77,2.58.91,2.73,2.15.18,1.28-1.71,1.32-2.73.16-3.36-.15-6.76.27-10.08s3-4.55,6.73-4.28c3.28.24,3.67,2.41,3.66,5,0,3.37,0,6.74,0,10.1,0,.89-.38,2.13,1.29,2.09s1.24-1.26,1.24-2.15c0-3.49.17-7-.06-10.48-.41-5.94-5.32-8.43-10.6-5.53-1.13.62-2,2.54-3.41-.13-.72-1.33-1.4.23-1.41,1.26C1001.93,512.88,1001.94,515.38,1001.94,517.87Zm-91.41.25a59.79,59.79,0,0,0-.06-6c-.11-1.15,1-3.2-1-3.32-2.3-.12-1.11,2-1.19,3.13-.2,2.86.12,5.77-.21,8.61a5.6,5.6,0,0,1-6.09,5.3c-3.12-.11-4.63-1.88-4.76-5.9-.1-3,0-6,0-9,0-.85.56-2.17-1.12-2.23s-1.28,1.2-1.28,2.11c0,3.37-.12,6.75.07,10.11.33,5.86,5.51,8.59,10.67,5.69,1.25-.7,2.24-2.61,3.3.36.37,1,1.72.43,1.71-1Q910.52,522.06,910.53,518.12Zm141.83-51.37c-3.37-.16-6.58.58-7.32,4.25-.71,3.52,2.38,4.76,5,5.91,1.25.55,2.51,1.06,3.76,1.6a3.16,3.16,0,0,1,2.08,3.89c-.41,1.78-1.92,2.18-3.42,2.3a13.63,13.63,0,0,1-5.52-.49c-.53-.18-1.58-1.33-2.08,0-.37,1,.46,1.65,1.35,1.86,2.93.7,5.9,1.18,8.79,0,1.77-.75,3.16-1.88,3.33-4.09s-.55-3.92-2.58-4.91c-1.56-.75-3.21-1.34-4.79-2.05-1.79-.81-4.17-1.49-3.59-4,.62-2.73,3.22-2.15,5.28-2.2.37,0,.86.26,1.09.1,1.23-.85,3.28,2.24,3.59-.3.22-1.76-2.36-1.6-3.89-1.85A8.32,8.32,0,0,0,1052.36,466.75Zm120.29,0c-3.76-.15-7,.62-7.66,4.3-.65,3.5,2.46,4.73,5.12,5.89l4.08,1.78a3,3,0,0,1,1.76,3.36c-.15,1.75-1.49,2.29-2.8,2.52a13.54,13.54,0,0,1-6.61-.5c-.44-.14-1.32-1.2-1.69.17a1.35,1.35,0,0,0,1.06,1.7c3.41,1,6.86,1.45,10.1-.45a4.72,4.72,0,0,0,0-8.26,33.83,33.83,0,0,0-4.74-2.15c-1.92-.82-4.55-1.44-3.91-4.1.67-2.85,3.42-2.24,5.63-2.13.25,0,.56.15.74,0,1.21-.71,3.23,2.14,3.59-.33.29-2-2.26-1.43-3.62-1.82A3.1,3.1,0,0,0,1172.65,466.76ZM915.77,629c0-4.11,0-8.23,0-12.35,0-1.07.33-2.22-1.55-2.21s-2,.79-2,2.27q.07,12.17,0,24.32c0,1.39.36,2,1.88,2,1.72.05,1.71-.87,1.7-2.09C915.75,637,915.77,633,915.77,629Zm132.44-101.45c.62,0,1.25,0,1.87,0,2.87-.2,5.15-1.48,5.74-4.38s-1.39-4.53-3.92-5.52c-1.26-.5-2.56-1-3.77-1.55-1.51-.76-3.53-1.37-3.09-3.61s2.34-2.28,4.16-2.18c1.35.07,2.72-.24,4,.52a1.11,1.11,0,0,0,1.75-.75c.2-.76-.46-1.09-1.08-1.21-2.29-.41-4.48-1.15-6.94-.31-2.23.75-4,1.8-4.17,4.16s1.43,3.84,3.48,4.76c1.58.71,3.23,1.28,4.8,2,1.39.65,2.72,1.55,2.57,3.31-.17,2-1.83,2.46-3.42,2.9a9,9,0,0,1-3.32,0c-1.37-.12-3.67-1.8-3.89-.09-.28,2,2.49,1.64,4.1,1.92A6,6,0,0,0,1048.21,527.52Zm-127.57,0c1.21,0,1.84,0,2.46,0,3-.17,5.43-1.41,6-4.54s-1.62-4.43-4.07-5.45c-1.6-.66-3.2-1.33-4.77-2-1.35-.61-2.37-1.61-2-3.17a2.83,2.83,0,0,1,3.19-2c1.6.09,3.24-.33,4.78.42.77.38,1.56.29,1.87-.54.38-1-.49-1.19-1.21-1.38a11.57,11.57,0,0,0-7.66,0,4.79,4.79,0,0,0-3.26,3.74c-.34,1.94.85,3.36,2.36,4.28a51.59,51.59,0,0,0,4.73,2.12c1.91.89,4.42,1.72,3.62,4.38s-3.38,2.56-5.66,2.52c-.6,0-1.24-.5-1.79-.41-1.11.18-2.71-1.56-3.13,0-.5,1.84,1.65,1.67,2.85,2A5.91,5.91,0,0,0,920.64,527.53ZM881,622.71c-1.28-.18-1.93.25-1.91,1.8.07,5.49,0,11,0,16.46,0,1.33.25,2,1.82,2s1.85-.67,1.82-2c-.07-2.74,0-5.48,0-8.22,0-5,.43-5.62,5.61-6.22,1.89-.22,1.82-1.1,1.82-2.42,0-1.9-1.38-1.55-2.35-1.36-2.13.4-4.23,3.36-6.33-.06C881.45,622.66,881.24,622.71,881,622.71ZM859.81,468.44c3.1.08,2.94,1.91,3,3.8.05,3.61-.49,7.25.44,10.81,1,4,5,5,8,2.15-5.81-1.17-5.81-1.17-5.81-7.71,0-1,0-2,0-3-.13-3.05-.89-6.54,4.27-5.5.7.14,1.18-.32,1.18-1.08s-.43-1.23-1.15-1.05c-3.85.95-4.85-1.15-4.34-5.32C863,464.13,863.22,467.49,859.81,468.44Zm205.72-20.34c-4.35-1-5.2-2.16-5.2-6.84V412.72a5.6,5.6,0,0,0-1.58,4.35c0,8.36,0,16.71,0,25.07C1058.8,446.87,1060.56,448.36,1065.53,448.1ZM799.84,623.3c-3.17,6.25-3,12.53.52,18.47,2.8,4.66,7.92,6.32,14.66,5.48C803,646.08,796.5,635.68,799.84,623.3Zm186.32-109c0-3.87,0-7.74,0-11.62,0-.86.53-2.13-1.15-2.19s-1.31,1.14-1.31,2.08q0,11.43,0,22.86c0,1-.17,2,1.43,2s1-1.13,1-1.86C986.19,521.81,986.17,518.07,986.16,514.32Zm-6.49,109.91c-1.08,6.71,5.61,21.31,9.23,21.78C985.08,639.48,983.59,631.77,979.67,624.23ZM850.31,470c-1.08-1-.14-3.23-1.9-3s-.86,2-.88,3.09c-.11,4.73-.06,9.47,0,14.21,0,.75-.43,1.85,1,2,1.66.16,1.32-1.07,1.34-2,0-2.37,0-4.74,0-7.11,0-5.48,1.39-7.11,6.87-8.11.86-.16,1.38-.27,1.38-1.26,0-1.15-.79-1-1.51-1.07C853.82,466.37,852.37,468.53,850.31,470Zm274.11.63c-.36-.71-.51-1-.69-1.35-.43-.77.4-2.42-1.13-2.3s-.79,1.59-.8,2.45c-.06,5,0,10,0,14.94,0,.82-.26,1.85,1.11,1.88s1.33-.84,1.33-1.77c0-2.74,0-5.48,0-8.22,0-4.89,1.57-6.61,6.43-7.24.84-.11,1.84.12,1.72-1.28s-1.21-1-2-1C1127.72,466.66,1126.16,468.48,1124.42,470.66ZM861.77,435.34c-7.53-4.17-16.37-7.31-14.85-18.53C844.59,427.17,851.48,436,861.77,435.34Zm94.88,27.86c-2.84,4.12-1.8,24.28.86,25.63C955.91,480.53,957.4,471.82,956.65,463.2Zm-28.58,166c-2.13,4.51-1.88,11.12.67,14.45s5.85,4.64,9.65,3.49C930.51,645.31,928.27,641.53,928.07,629.15Zm67.85-152.28c0-2.75,0-5.49,0-8.23,0-1.14-.11-1.88-1.57-1.83s-1.27.85-1.27,1.73q0,7.86,0,15.71c0,1-.15,2,1.39,2.07s1.45-1,1.45-2Zm163.46-.28c0-2.73,0-5.47,0-8.2,0-.7.14-1.53-1-1.55s-1.58.35-1.58,1.48q0,8.21,0,16.41c0,1.06.39,1.61,1.53,1.56,1.37-.05,1.11-1.05,1.11-1.87C1159.39,481.81,1159.38,479.2,1159.38,476.59Zm-220,30.05c-1.91,5.52-.69,8.84,4,11.32,2.09,1.1,4.2,2.18,6.27,3.32.89.49,1.93,1.24,2.58.08s-.63-1.64-1.47-2.08a12.07,12.07,0,0,0-2.08-.84C942.93,516.7,939.73,512.91,939.36,506.64ZM698.42,447.9a8.94,8.94,0,0,1-3.37-7.79c.11-8.22,0-16.44,0-24.67-.76,9.63-.83,19.25-.69,28.87C694.43,446,695.4,447.63,698.42,447.9Zm-4.14,49.77c0,9.39-.09,18.79.07,28.18,0,1.77.94,3.6,2.66,3.68C692.85,519.21,696.46,508.17,694.28,497.67Zm119-7.64L802.7,474.27C803.4,481.31,809.12,489.34,813.28,490Zm152.42-54.9a85.15,85.15,0,0,0,.28-21.52C964.61,420.75,965.27,428,965.7,435.13Zm209.64-21.05a178.19,178.19,0,0,0,0,31.67Zm58.26,33.75c-4.18.51-5.33-2.1-6.14-5.38-.3-1.16.1-3.29-2.28-3.15-2.1.13-4.2.22-6.3.33,3.1.18,5.62.64,6.83,4.13C1227.32,448.39,1228.09,448.65,1233.6,447.83ZM1008.24,514c2,1.64,1.78,3.64,1.81,5.6a77.16,77.16,0,0,0,.32,7.77c.2,1.76.84,3.54,3.46,3.29a6.48,6.48,0,0,1-2.23-5.46c.06-3.1-.05-6.2.11-9.29C1011.84,513.64,1011.11,512.88,1008.24,514Zm1.7-41.37c2.32,2.73,1.46,5.94,1.51,9,.1,6.33.1,6.55,3.62,8.2a8.45,8.45,0,0,1-2-6.51c.08-3,0-6,.1-8.95C1013.21,471.75,1012,471.7,1009.94,472.6ZM863.88,531c-2.89-1.82-3.14-3.84-3.07-6.06.1-3.23.08-6.46.09-9.68,0-.88.07-1.84-1.24-1.8-.91,0-1.45.49-1.1,1.41,1.38,3.62.42,7.38.7,11.06C859.43,528.27,859.91,530.34,863.88,531Zm171.43,115.28c-2.06-1.27-2.75-3.21-2.7-5.57.05-3,0-6,0-9,0-1.44-.18-2.68-2.37-2.69,1.66,4.66.12,9.32,1.16,13.86C1032,645.16,1032.81,646.58,1035.31,646.26Zm-177.68,0A5.55,5.55,0,0,1,854.9,641c0-3,0-6,0-9,0-1.48,0-3-2.6-3,1.1,1.74.93,3.35,1,4.94.13,3.1-.24,6.21.47,9.31C854.29,645.47,855.38,646.54,857.63,646.25ZM995.25,518.4c0-2.73,0-5.45,0-8.18,0-.79-.17-1.46-1.18-1.51s-1.19.6-1.19,1.41q0,7.82,0,15.61c0,.92,0,1.78,1.35,1.67s1-1.18,1-1.94C995.29,523.11,995.25,520.75,995.25,518.4ZM1020.1,447c-4.31-2.36-7.63-5-9.39-9.26a33.56,33.56,0,0,1-2.37-12.76C1006.23,438.83,1012.88,446.43,1020.1,447ZM902,474.46c-2.88,7.79.9,15.22,7.8,15.21C903.25,486.66,901.82,481.14,902,474.46ZM1078.89,489c-7.25-3.53-9-9.59-9.78-17C1067.46,480.86,1072.19,488.63,1078.89,489ZM900,531.28c-3.75-1.3-7-3.18-7.86-7.77C890.16,528.56,893.21,531.45,900,531.28ZM830,446l1-.71-8.37-14.54C823.54,436.61,826.58,441.37,830,446Zm135.51,33.61c.61,8.79,1.18,9.94,5.35,10.4C967.88,487,967.79,482.91,965.46,479.56ZM653.31,498.09c0,9.63-.07,18.19,0,26.75,0,2.6.85,3.38,2.66,4.06C651.36,519.59,655.42,509.08,653.31,498.09Zm41.62-105.66c-2.25,10-1.17,13.89,4.19,14.77C692.59,403.59,696,397.41,694.93,392.43Zm347.76,83.12c.68,4.1,3.14,5.55,10.27,6C1048.93,479.72,1045.25,478.88,1042.69,475.55ZM1188.23,435c.43,5.1,3,8.19,5.4,11.39l1.24-.76Zm-25.7,40.5c.94,4.18,4.44,6,9.56,5.71C1168.86,479.69,1165.4,478.87,1162.53,475.5Zm-121.89,41.65c.55,3.93,1.17,4.3,9.08,5.39C1046.52,520.74,1042.93,520.09,1040.64,517.15Zm-49.06-27.49c-3.44-6-.7-12.64-2.21-18.78-.2,5.47-.2,10.94-.2,16.4C989.17,488.84,990.12,489.45,991.58,489.66Zm-338.32-5.55h.64V459.22h-.64v24.9Zm483.64,5.53c-3.35-1.33-4.61-4.4-6.06-8.23C1130.39,486.87,1132,488.92,1136.9,489.64ZM820.13,624.4c-2.53-3.18-4.77-3.66-8.1-2.1C815,622.14,816.73,624.43,820.13,624.4Zm184.54,20.47c-3-2.34-4.17-5.66-5.43-9.51C998.78,640.91,1000.51,643.88,1004.67,644.87ZM796,526.59a28.33,28.33,0,0,1-3.73-11.75C791.93,519.29,792,523.62,796,526.59Zm154.79-81.85c-2.22-2.65-3.35-5.91-4.91-8.92C945.81,439.7,947.25,442.8,950.76,444.74Zm-118,202.45c-2.11-.42-3.9-1.75-5.85-2.74-.65-.34-1.37-1.77-2.07-.65-.82,1.31.83,1.5,1.56,1.89A12,12,0,0,0,832.76,647.19ZM1042,642.43c0,4.67,3.61,3.87,6.1,4.67C1046,645.76,1043.84,644.59,1042,642.43ZM1157.8,459.87c-.43.15-1.18.22-1.24,1.24s.34,1.71,1.39,1.82,1.46-.69,1.5-1.66S1159,459.94,1157.8,459.87Zm-163.41,3.06c1.14,0,1.51-.65,1.59-1.64s-.47-1.38-1.32-1.4-1.53.08-1.57,1.13S993.27,462.76,994.39,462.93ZM697.12,488.07c-2.27-2.16-2-5-2.29-7.72C694.31,486.25,694.31,486.25,697.12,488.07Zm-42.57-89.73c-.62-1.31-.18-3.12-2-3.91C652.31,396.28,652.71,397.67,654.55,398.34Zm2.09,3.39c.4-1.42-.39-2-1.53-2.35,0,0-.13.19-.24.33C654.8,400.85,655.41,401.47,656.64,401.73Zm141.9,126.56-.87-.54c-.09.18-.3.48-.25.54a5.1,5.1,0,0,0,.78.58ZM694.8,458.36a1,1,0,0,0-.07.29s.11.06.18.1a1,1,0,0,0,.06-.29S694.86,458.4,694.8,458.36Zm-40.41,27.3c-.07.08-.19.15-.19.23s.1.16.16.25c.07-.07.19-.14.2-.21S654.46,485.77,654.39,485.66Zm298-40.19c-.08-.08-.16-.21-.25-.22s-.17.12-.26.19c.07.08.15.21.23.22S952.26,445.54,952.36,445.47ZM662.63,406.68l.27-.18c-.08-.08-.15-.21-.23-.22s-.17.11-.26.17ZM799.85,529.55l.12-.15-.2,0Z" transform="translate(-618 -337)"/><path class="cls-2" d="M674.16,445c-4,0-8-.13-12,0-3.61.16-5-1.88-5.08-4.94-.14-8-.08-15.95,0-23.93,0-3.11,1.74-4.86,4.85-4.88q12-.1,23.93,0c3.35,0,4.93,1.94,4.94,5.19,0,7.73.05,15.46,0,23.18,0,3.9-1.56,5.33-5.4,5.35S677.9,445,674.16,445Z" transform="translate(-618 -337)"/><path class="cls-2" d="M690.8,469.76c0,3.87.06,7.73,0,11.6,0,2.71-1.18,4-4.27,4.33-7.58.84-15.15.48-22.71.55-5.54.06-6.73-1.25-6.73-6.79,0-7,0-14,0-20.95,0-4.54,1.45-5.95,6-6q10.86,0,21.7,0c4.55,0,6,1.44,6,6C690.82,462.28,690.8,466,690.8,469.76Z" transform="translate(-618 -337)"/><path class="cls-2" d="M731.34,428.12c0,4.12,0,8.23,0,12.35,0,3-1.4,4.57-4.48,4.57-8.11,0-16.21,0-24.32,0-2.91,0-4.26-1.55-4.26-4.4q0-12.35,0-24.69c0-3,1.53-4.62,4.54-4.63,8,0,16,0,23.94,0,3.33,0,4.63,1.7,4.58,4.87C731.29,420.14,731.33,424.13,731.34,428.12Z" transform="translate(-618 -337)"/><path class="cls-2" d="M698.28,469.12c0-4,0-8,0-12,0-3,1.58-4.58,4.59-4.59,7.86,0,15.73,0,23.59,0,3.48,0,4.92,1.55,4.89,5-.07,7.62,0,15.23,0,22.85,0,4.26-1.09,5.77-5.27,5.88q-11.23.32-22.47,0c-4.2-.11-5.29-1.58-5.3-5.85C698.28,476.61,698.28,472.86,698.28,469.12Z" transform="translate(-618 -337)"/><path class="cls-2" d="M673.88,526.78c-3.87,0-7.75-.13-11.61,0-3.58.16-5.09-1.82-5.15-4.91q-.24-11.61,0-23.23c.06-3,1.42-5.07,5.06-5q11.8.22,23.61,0c3.45-.06,4.87,1.9,4.94,4.73.2,7.86.18,15.74,0,23.6-.06,3.11-1.68,5-5.24,4.81C681.64,526.62,677.76,526.78,673.88,526.78Z" transform="translate(-618 -337)"/><path class="cls-2" d="M739.5,468.86c0-4,.15-8,0-12-.15-2.92,1.27-4.27,3.83-4.31q12.35-.18,24.7,0c2.91,0,4.52,1.87,4.54,4.79.05,8,0,16,0,23.94,0,3.56-2.29,4.83-5.23,4.89-7.73.17-15.47.19-23.19,0-2.86-.07-4.82-1.57-4.67-5C739.63,477.09,739.5,473,739.5,468.86Z" transform="translate(-618 -337)"/><path class="cls-3" d="M692.33,387.16A18.9,18.9,0,0,1,673.66,406a19.1,19.1,0,0,1-18.55-18.63c-.08-9.83,8.6-18.67,18.43-18.79A18.72,18.72,0,0,1,692.33,387.16Z" transform="translate(-618 -337)"/><path class="cls-2" d="M714.46,403.84c-4,0-8-.06-12,0-2.75.05-4.22-1-4.2-3.9.05-8.49,0-17,0-25.48,0-2.68,1.33-3.76,4-3.75q12.54.08,25.1,0c2.85,0,4,1.26,4,4.08q-.08,12.54,0,25.1c0,2.89-1.38,4-4.15,3.95C723,403.79,718.7,403.84,714.46,403.84Z" transform="translate(-618 -337)"/><path class="cls-2" d="M756,403.84c-4.11,0-8.23,0-12.34,0-2.75.05-4.18-1-4.17-3.92,0-8.47,0-16.95,0-25.43,0-2.41,1.07-3.74,3.56-3.74,8.6,0,17.2.05,25.8,0,2.72,0,3.59,1.69,3.62,3.74q.19,12.9,0,25.8c0,2.38-1.37,3.75-4.13,3.62C764.23,403.7,760.11,403.84,756,403.84Z" transform="translate(-618 -337)"/><path class="cls-2" d="M714.93,493.73c4.12,0,8.25,0,12.37,0,2.84,0,4.08,1.21,4.06,4.05q-.09,12.56,0,25.11c0,2.63-1.12,3.93-3.79,3.92q-12.37,0-24.75,0c-3.07,0-4.54-1.47-4.53-4.54q0-12.37,0-24.74c0-2.68,1.29-3.83,3.91-3.8C706.43,493.77,710.68,493.73,714.93,493.73Z" transform="translate(-618 -337)"/><path class="cls-3" d="M818.48,419.2c.86,7.53.39,14.62.61,21.69.07,2.4-.28,3.55-3.14,3.52-2.68,0-3-1.07-3-3.32.1-9.11.12-18.22,0-27.33,0-2.34.47-3.06,3-3.22,4-.25,6.44.83,8.31,4.7,2.81,5.8,6.42,11.2,9.68,16.77.62,1.05,1,2.32,2.33,2.8,1.22-.63.64-1.76.64-2.64,0-6.37.09-12.74-.12-19.1-.08-2.46,1.1-2.48,2.92-2.45s3-.09,3,2.43c-.14,9.61-.1,19.22,0,28.83,0,2.05-.78,2.27-2.6,2.5-4.54.59-7.23-1-9.26-5.2-2.76-5.69-6.19-11.06-9.39-16.53C820.86,421.54,820.49,420.13,818.48,419.2Z" transform="translate(-618 -337)"/><path class="cls-3" d="M1027.79,410.47c10.3,0,15.79,5.84,15.89,16.91.11,10.85-6,17.56-16,17.48s-16-6.6-15.93-17.56C1011.76,416.53,1017.56,410.46,1027.79,410.47Zm8.76,16.93c0-1,.06-2,0-3-.35-5.09-3.76-8.41-8.64-8.47-5.15-.07-8.05,2.48-8.53,7.89a37.64,37.64,0,0,0,.11,8.22c.58,4.58,2.91,6.8,6.84,7.07,5.25.36,8-1.34,9.59-5.81A15,15,0,0,0,1036.55,427.4Z" transform="translate(-618 -337)"/><path class="cls-3" d="M1116.68,427.4c0-4.74.07-9.48,0-14.22,0-1.89.42-2.66,2.48-2.56,3.86.17,7.71.08,11.57.54,10.51,1.28,14.64,9.94,13.51,18.44-1.27,9.68-7.21,14.55-17.06,14.68-3.34,0-7.71,1.14-9.76-.53s-.52-6.29-.68-9.61C1116.59,431.9,1116.68,429.65,1116.68,427.4Zm6.69.12c0,3.11,0,6.23,0,9.34,0,1-.08,1.89,1.33,2.24,5,1.25,10.82-2,12-7a21.68,21.68,0,0,0,.11-9.28c-1-5-7.89-8.38-12.58-6.43-1.18.49-.87,1.37-.88,2.16C1123.34,421.54,1123.37,424.53,1123.37,427.52Z" transform="translate(-618 -337)"/><path class="cls-3" d="M1204.74,443.92c-4.91,1.33-8.09.15-10-4.33-1-2.37-2.9-4.35-4.09-6.66s-2.88-1.7-4.5-1.44c-1.92.31-.88,2-1,3.08a26.57,26.57,0,0,0,0,6c.45,3.2-.74,4.05-3.84,3.84-2.11-.14-2.69-.65-2.66-2.76q.18-14.06,0-28.1c0-2.22.46-3,2.87-2.95a95.2,95.2,0,0,1,11.57.72c4,.64,7.13,2.47,8.13,6.58s.07,8-3.66,10.19c-2.7,1.61-1.77,2.86-.6,4.56C1199.52,436.29,1202,440,1204.74,443.92Zm-19.22-22.87c.6,1.81-1.53,5,2.92,4.73,4.3-.3,6.14-1.49,6.17-4.76s-1.78-4.39-6.17-4.7S1186.11,419.23,1185.52,421.05Z" transform="translate(-618 -337)"/><path class="cls-3" d="M949.42,423.3c0-2.88,0-5.75,0-8.62,0-2.2-.64-4.22,3.18-4.21s3.4,2,3.4,4.41c0,5.87-.07,11.75.17,17.61.21,5.24,2.08,6.75,7.35,6.61,4.22-.11,6.21-1.93,6.28-6.18.12-6.49.23-13,0-19.48-.12-2.93,1.35-2.88,3.36-2.82s3.64-.42,3.51,2.7a181.15,181.15,0,0,0,0,18.35c.5,8.92-6.42,13.86-15.22,12.95-9-.94-12-4.66-12-13.83C949.41,428.29,949.42,425.79,949.42,423.3Z" transform="translate(-618 -337)"/><path class="cls-3" d="M1206.42,444.22c3.21-9.25,6.34-18.25,9.47-27.24.16-.47.42-.9.58-1.37,1.81-5.23,3.36-6.08,8.89-5.11,1.09.19,1.34.69,1.66,1.59,3.72,10.61,7.51,21.2,11.43,32.21-1.71,0-3-.11-4.37,0-2,.2-3-.37-3.61-2.6-1.54-5.69-1.72-5.64-7.62-5.64a14.07,14.07,0,0,1-2.25,0c-3.52-.58-5.58.6-5.95,4.39C1214.12,446,1210,444,1206.42,444.22Zm15.78-27.85c-1,3.31-1.93,5.88-2.69,8.5-1.78,6.1-1.67,6.14,4.9,5.72,1.81-.12,2.53-.59,1.93-2.42C1225.14,424.45,1224.33,420.58,1222.2,416.37Z" transform="translate(-618 -337)"/><path class="cls-3" d="M1089.8,427.43c0-4.74.06-9.48,0-14.22,0-1.78.2-2.69,2.37-2.61,5,.17,10,.15,15,0,2.13-.07,2.14,1.05,2,2.54s.64,3.16-2,3c-2.36-.12-4.77.22-7.1-.08-3.57-.47-3.71,1.41-3.65,4.13.06,2.49,0,4.43,3.44,3.85a46.22,46.22,0,0,1,4.86-.06c2.11-.12,3.43.05,3.41,2.88s-1.51,2.6-3.31,2.52c-.5,0-1,0-1.5,0-7.25,0-7.18,0-6.88,7.21.08,1.73.48,2.47,2.33,2.39,2.74-.13,5.49.09,8.23-.08,2-.12,2.25.88,2.14,2.48-.1,1.43.45,3-2.07,2.93-5-.15-10-.11-15,0-1.76,0-2.39-.46-2.35-2.3C1089.88,437.17,1089.8,432.3,1089.8,427.43Z" transform="translate(-618 -337)"/><path class="cls-3" d="M1151.93,427.38c0-4.74.08-9.48,0-14.22,0-1.9.44-2.62,2.48-2.56,4.74.15,9.48.19,14.22,0,2.34-.1,2.26,1.13,2.24,2.74s.2,3-2.19,2.85c-2.6-.18-5.23,0-7.85-.08-1.6-.05-2,.55-2.12,2.15-.29,5.77-.36,5.76,5.45,5.76a22.93,22.93,0,0,0,3,0c2.27-.31,3,.49,3,2.85s-.83,2.83-2.82,2.56a14.42,14.42,0,0,0-1.86,0c-6.89,0-6.81,0-6.75,6.88,0,2.07.51,2.89,2.68,2.72,2.36-.18,4.75.11,7.11-.08,2.11-.17,2.41.76,2.41,2.58s-.17,2.95-2.54,2.85c-4.61-.2-9.23-.19-13.84,0-2.23.09-2.66-.74-2.6-2.75C1152,436.86,1151.93,432.12,1151.93,427.38Z" transform="translate(-618 -337)"/><path class="cls-3" d="M849.92,436.89c3.66,1.5,7.19,2.58,11,2.24,1.76-.16,3.22-.62,3.72-2.5a3.58,3.58,0,0,0-1.61-4.23c-2.31-1.41-4.78-2.58-7.11-4-5.05-3-6.82-6.95-5.39-11.84,1.08-3.66,5-6,10.12-6.13a16.9,16.9,0,0,1,7.32,1.06c1,.44,3.61,0,2.48,2.6-.78,1.8-1.1,4.27-4.29,2.59a10.49,10.49,0,0,0-5.47-.93,4.07,4.07,0,0,0-4,2.79c-.64,2,.53,3.39,2.12,4.34s3.5,1.83,5.25,2.75c6.31,3.33,8.3,7,6.93,12-1.46,5.29-7.08,7.38-13.34,7.07-.62,0-1.23-.23-1.85-.31C849.53,443.57,849.53,443.57,849.92,436.89Z" transform="translate(-618 -337)"/><path class="cls-3" d="M1063.47,427.31c0-4.62.14-9.24-.06-13.85-.11-2.4.72-2.95,3-2.86,4.49.17,9,.15,13.48,0,2.08-.07,2.73.51,2.79,2.67.07,2.39-.68,3.17-3,2.89a23.09,23.09,0,0,0-3,0c-6.75,0-7.64,1.16-6.49,7.9.24,1.43,1,1.49,2,1.48,2.12,0,4.24.07,6.36,0,1.94-.09,3.17,0,3.15,2.63s-1,2.74-3.06,2.74c-8.42,0-8.41.07-8.42,8.84,0,2.34.88,5-3.41,4.74-2.88-.17-3.55-.95-3.42-3.66C1063.63,436.3,1063.47,431.8,1063.47,427.31Z" transform="translate(-618 -337)"/><path class="cls-3" d="M998.16,430.4c0,3.87-.15,7.75,0,11.61.16,3.47-2.3,2.05-3.83,2.26s-3,.3-3-2.31c.18-7.61,0-15.24.11-22.85,0-2.14-.58-2.95-2.7-2.66-1,.13-2-.13-3,.05-3.4.6-3.94-1.12-3.67-4,.14-1.5.66-1.88,2-1.87,7,.05,14,.12,21,0,2.49-.05,2.14,1.45,2.1,2.91s.58,3-2,3c-2.33.05-5.52-1.39-6.84.86-1,1.76-.24,4.62-.25,7v6Z" transform="translate(-618 -337)"/><path class="cls-3" d="M927.7,430.41c0-3.61-.13-7.24,0-10.84.12-2.31-.39-3.55-3-3.14a19.88,19.88,0,0,1-3,0c-1.82,0-3.68.56-3.55-2.64.11-2.66.86-3.31,3.42-3.24,6.48.19,13,.17,19.45,0,2.47-.06,2.47,1.17,2.47,3s0,2.95-2.45,3c-6.68.11-6.67.25-6.67,7.13,0,6-.21,12,.07,17.95.15,3.13-1.61,2.68-3.47,2.69s-3.7.46-3.42-2.68C928,437.92,927.7,434.15,927.7,430.41Z" transform="translate(-618 -337)"/><path class="cls-3" d="M884.23,430.13c0-3.74-.11-7.49,0-11.22.08-2-.56-2.71-2.51-2.46-1,.12-2-.12-3,.05-3.28.57-4-.91-3.76-3.91.16-1.76.89-2,2.34-2,6.85.05,13.71.12,20.56,0,2.85-.06,2,1.82,2.12,3.25.2,1.74-.13,2.64-2.31,2.69-6.72.15-6.71.27-6.71,7.07,0,6-.2,12,.07,17.95.16,3.43-2,2.64-3.82,2.75s-3.31.13-3.11-2.6C884.44,437.87,884.23,434,884.23,430.13Z" transform="translate(-618 -337)"/><path class="cls-3" d="M1243.4,427.5c0-4.86.11-9.73,0-14.58-.11-3.44,2.32-2,3.86-2.24,1.72-.26,3-.2,3,2.34-.18,7.6.06,15.21-.14,22.81-.07,2.72.8,3.41,3.35,3.19,2.73-.22,5.49.1,8.22-.09,2.05-.14,2.3.84,2.12,2.44-.14,1.32.67,3-2,3-5.48-.15-11-.11-16.45,0-1.82,0-2-.82-1.95-2.26C1243.43,437.22,1243.4,432.36,1243.4,427.5Z" transform="translate(-618 -337)"/><path class="cls-3" d="M973.41,481.85c2.43-6.21,4.92-12.4,7.23-18.65.69-1.84,1.38-3,3.65-2.73,2.65.31,1.5,2.23,1.52,3.41.11,6.36.1,12.73,0,19.09,0,1.14,1,3.13-1.2,3.24-2.38.12-1.31-2-1.33-3.07-.12-6-.06-12.09-.06-19-2.83,4-3.62,7.87-5.17,11.42-1.15,2.61-2,5.33-3.15,7.95-.43,1-.17,2.67-1.94,2.74-2,.08-1.84-1.82-2.29-2.92-2.11-5.15-4.06-10.38-6-15.6-.38-1-.5-2.16-2.34-3v11.57c0,2.5.07,5,0,7.49,0,.9.75,2.53-1.2,2.42-1.52-.07-1.05-1.44-1.06-2.32,0-4.37,0-8.74,0-13.1,0-2.5-.09-5,0-7.48.06-1-.9-2.72,1.3-2.81,1.59-.06,3-.3,3.8,1.87,2.32,6.5,4.9,12.91,7.37,19.35Z" transform="translate(-618 -337)"/><path class="cls-3" d="M1060,628.89c0,4-.07,8,0,12,0,1.61-.68,2.79-2,2-2.17-1.27-3.67-.09-5.49.5a6.48,6.48,0,0,1-7.83-2.75c-2.67-3.85-2.45-11.52.37-15.27,2.27-3,5.34-4.24,8.89-3,2.51.85,2.78-.08,2.64-2.12-.09-1.37.05-2.75,0-4.12s.51-1.67,1.75-1.67,1.74.43,1.73,1.72C1060,620.4,1060,624.65,1060,628.89Zm-3.44,3.37a21.44,21.44,0,0,1,0-3c.48-3.23-1.33-4.16-4.09-4.28a5.13,5.13,0,0,0-5.45,3.67,13.2,13.2,0,0,0-.11,8.47c1,3.17,3.24,4.17,6.36,3.19C1057.76,638.9,1056.37,635.29,1056.57,632.26Z" transform="translate(-618 -337)"/><path class="cls-3" d="M948.28,628.74c0,4-.09,8,0,12,0,1.8-.83,3-2.24,2.12-2-1.28-3.25-.22-4.79.36a6.56,6.56,0,0,1-8.24-2.45c-2.92-3.94-2.52-12.12.64-15.87,2.23-2.65,5.17-3.72,8.38-2.6,2.74,1,3-.12,2.79-2.29-.1-1.24,0-2.5,0-3.74s.14-1.83,1.58-1.85,1.92.53,1.89,2C948.23,620.49,948.28,624.61,948.28,628.74Zm-3.43,3.47v-2.62c0-3.66-1.33-4.93-4.87-4.59-3.76.36-4.83,3.09-5.27,6.24-.62,4.47.77,8.31,3.25,9.21a5.56,5.56,0,0,0,3.64-.17C946.1,638.92,944.61,635.24,944.85,632.21Z" transform="translate(-618 -337)"/><path class="cls-3" d="M804,427.79c0,4.74-.15,9.5,0,14.23.14,3.11-1.93,2.22-3.46,2.25s-3.44.76-3.39-2.3q.29-14.42,0-28.85c-.07-3.28,2-2.37,3.65-2.47s3.37-.32,3.21,2.53C803.77,418,804,422.92,804,427.79Z" transform="translate(-618 -337)"/><path class="cls-3" d="M912.69,427.79c0,4.74-.14,9.49,0,14.22.13,3.46-2.29,2.05-3.83,2.26s-3,.32-3-2.3c.17-9.6.19-19.21,0-28.82-.06-3.24,1.93-2.4,3.64-2.5s3.36-.26,3.22,2.54C912.51,418.05,912.69,422.92,912.69,427.79Z" transform="translate(-618 -337)"/><path class="cls-3" d="M822.52,621.87c-5.75-4.68-10.95-4.82-14.23-.5-3.67,4.82-2.79,14.52,1.61,17.81,3.52,2.63,7.6,2,12.57-2,1.41,3.16.1,4.71-2.89,5.72-9,3-16.38-1.71-17.21-11.23-.76-8.67,2.61-14.48,9.29-16.14a15.45,15.45,0,0,1,7.37.32C822.18,616.58,823.92,618.09,822.52,621.87Z" transform="translate(-618 -337)"/><path class="cls-3" d="M1019.46,638.75c0,1.5.83,2.82-.79,3.57-3.8,1.77-7.7,2.15-11.48.16-4.24-2.24-5-6.23-4.77-10.56.22-4.14,1.74-7.52,5.78-9.24a8.3,8.3,0,0,1,8.82,1c2.56,2,3,5,3,8.08,0,1.89-1.2,1.51-2.25,1.52-3.36,0-6.73.08-10.09,0-1.83-.06-2,.67-1.7,2.23.87,4.29,4.73,6.28,9.6,4.8C1016.77,639.88,1017.89,639.35,1019.46,638.75Zm-13.66-8.55c2.74,0,5.2.09,7.65,0,1,0,2.48.79,2.84-.73a3.52,3.52,0,0,0-1.58-3.53C1011.6,623.49,1007.46,625.29,1005.8,630.2Z" transform="translate(-618 -337)"/><path class="cls-3" d="M969,638.94c1.08,2.29.09,3.36-2.05,4.06-5,1.63-10,.6-12.67-2.74s-2.89-10-.6-13.84a9.16,9.16,0,0,1,10.28-4.2c3.74,1,5.73,4,5.86,8.52.05,1.85-.32,2.67-2.4,2.54-3.23-.19-6.48.05-9.72-.08-2-.09-2.32.58-1.89,2.38.9,3.76,4.08,5.83,8.28,5A39.76,39.76,0,0,0,969,638.94ZM955.6,630.2c3,0,5.73-.1,8.43,0,2.9.15,2.31-1.45,1.55-3-1-2-3-2.52-5-2.25C957.79,625.37,956.13,627,955.6,630.2Z" transform="translate(-618 -337)"/><path class="cls-3" d="M841.75,638.74c0,1.51.82,2.83-.8,3.58-3.81,1.77-7.7,2.15-11.48.15-4.23-2.23-5-6.23-4.76-10.55.21-4.14,1.74-7.53,5.78-9.24a8.3,8.3,0,0,1,8.82,1c2.56,2,3,5,3,8.09,0,1.89-1.21,1.5-2.26,1.5-3.36,0-6.73.09-10.09,0-1.84-.06-2,.69-1.69,2.23.87,4.3,4.73,6.28,9.6,4.8C839.06,639.87,840.18,639.35,841.75,638.74Zm-13.64-8.54c3,0,5.7-.11,8.4,0s2.42-1.36,1.62-2.94c-1-2-2.92-2.55-5-2.29C830.36,625.35,828.69,626.92,828.11,630.2Z" transform="translate(-618 -337)"/><path class="cls-3" d="M893.35,626.35c-1.09-2.87.11-3.79,2.57-4.1a18.81,18.81,0,0,1,6.65,0c3.21.73,5,2.66,5,6,0,4.23-.1,8.47.06,12.69.08,2.12-1.45,2.69-2.41,1.89-1.85-1.54-3-.31-4.46.27-3.85,1.56-7.66.1-9-3.42a6.66,6.66,0,0,1,4.46-9.16c1.65-.49,3.47-.41,5.11-.92.9-.29,2.57.62,2.69-1.15a3,3,0,0,0-2.49-3.28C898.79,624.5,896.17,625.34,893.35,626.35Zm10.81,9c-.37-.94.93-2.79-1.59-2.82-4.37,0-7.86,2-7.69,4.75.16,2.37,1.56,3.52,4,3.46C902.12,640.63,904.15,638.64,904.16,635.32Z" transform="translate(-618 -337)"/><path class="cls-3" d="M1065.73,626.32c-.69-2.56-.16-3.69,2.2-4a20.78,20.78,0,0,1,6.67-.17c3.46.65,5.49,2.67,5.46,6.42,0,4.11-.07,8.22,0,12.32,0,1.55-.6,2.85-2,2-2.2-1.38-3.68-.15-5.49.5a6.42,6.42,0,0,1-8.34-3.58c-1.46-3.76,0-7.54,3.68-8.91,1.94-.72,4.12-.78,6.14-1.33.86-.23,2.54.64,2.42-1.37a3.09,3.09,0,0,0-2.42-3C1071.2,624.41,1068.49,625.48,1065.73,626.32Zm10.89,9c0-2.73,0-2.73-1.74-2.72-4.46,0-7.54,1.79-7.52,4.46,0,2.36,1.29,3.64,3.74,3.68C1074.5,640.76,1076.65,638.67,1076.62,635.29Z" transform="translate(-618 -337)"/><path class="cls-3" d="M815.25,481.76c0-6.34-.07-12.16,0-18,0-1.09-1.09-3.18,1.18-3.17,2,0,1,1.95,1,3,.1,6.61.09,13.22,0,19.82,0,.95.78,2.38-.79,2.84s-2.52-.22-3.38-1.56c-3.74-5.86-7.57-11.66-11.4-17.45-.5-.76-.64-1.94-2.37-2,0,6.07,0,12.1-.05,18.12,0,1,1,2.89-1.13,2.85s-1-1.92-1.07-2.92q-.15-9.9,0-19.82c0-1-1-2.63,1.09-3,1.6-.26,2.41.55,3.24,1.85,3.46,5.45,7.09,10.78,10.6,16.2A8.3,8.3,0,0,0,815.25,481.76Z" transform="translate(-618 -337)"/><path class="cls-3" d="M1094.25,479.49c0,6.46-2.5,8.27-9.84,7.39-9.39-1.14-12.45-7.49-11.5-15.14,1.09-8.87,8-13.32,16.69-11.53a8.25,8.25,0,0,1,1.05.38c1,.39,3-.08,2.63,1.78s-2.12.68-3.06.45c-4.65-1.14-9.14-1.09-12.35,2.84s-3.1,8.83-1.41,13.48c2.07,5.69,9.8,6.53,14.5,4.8,1.9-.7.7-2.88.9-4.38.41-2.95,0-5.26-4-4.5-.7.14-1.9.46-2-1-.06-1.65,1.23-1.19,2.13-1.25C1094.25,472.46,1094.25,472.46,1094.25,479.49Z" transform="translate(-618 -337)"/><path class="cls-3" d="M839.35,517.81c0-2.49,0-5,0-7.49,0-1.29,1.28-2.22,1.59-1.45,1.37,3.43,2.51.87,3.8.16,2.69-1.49,5.47-1.31,7.61.71,1.55,1.48,2.27,1.08,3.61,0a6.54,6.54,0,0,1,7.64-.76c2.42,1.25,2.83,3.56,2.78,6.08-.08,3.36,0,6.73,0,10.1,0,.86.52,2.18-1.1,2.27s-1.18-1.28-1.2-2.13q-.09-5.06,0-10.11c0-2.84-.67-4.84-4.09-4.92s-5.33,1.41-5.57,4.64c-.26,3.47-.05,7-.09,10.48,0,.93.29,2.18-1.34,2-1.36-.12-.95-1.25-1-2-.05-3.24,0-6.49,0-9.73-.08-2.75-.51-5.3-4.17-5.4s-5.24,1.16-5.55,5c-.27,3.35-.22,6.73-.35,10.09,0,.92.33,2.11-1.31,2.11s-1.15-1.28-1.18-2.12C839.31,522.8,839.35,520.31,839.35,517.81Z" transform="translate(-618 -337)"/><path class="cls-3" d="M1023.1,632.67c0-2.61.15-5.24,0-7.85-.17-2.45,2-2.78,2.7-2,1.63,1.78,2.49.55,3.77-.07,4.68-2.24,9-.11,9.6,5.07.47,4.44.16,9,.25,13.45,0,1.33-.56,1.64-1.78,1.7-1.55.08-1.87-.6-1.85-2,.06-3.74,0-7.48,0-11.22,0-2.55-.48-4.83-3.79-4.82a4.89,4.89,0,0,0-5.26,5.22c0,3.37,0,6.74,0,10.1,0,1.28.5,2.79-1.85,2.72s-1.68-1.67-1.72-2.87C1023.06,637.66,1023.1,635.17,1023.1,632.67Z" transform="translate(-618 -337)"/><path class="cls-3" d="M845.39,632.79c0-2.62.14-5.25,0-7.85s1.91-2.89,3-2c1.36,1.17,1.89.72,3.09.1,5.15-2.72,9.67-.37,10.14,5.43.33,4.21,0,8.48.14,12.71,0,1.61-.74,1.79-2,1.82s-1.59-.72-1.58-1.86q0-5.61,0-11.22c0-2.51-.34-4.88-3.68-4.94S849,626.92,849,630.1c0,3.61,0,7.23,0,10.85,0,1.27-.11,2.1-1.76,2.07s-1.91-.6-1.87-2C845.44,638.28,845.39,635.53,845.39,632.79Z" transform="translate(-618 -337)"/><path class="cls-3" d="M1083.63,638.66c2.73,1.24,5.21,2.47,8,2,1.54-.27,2.93-.88,3.07-2.73s-1.08-2.67-2.63-3.08-3-.55-4.37-1c-2.43-.81-4-2.38-4.16-5.14a5.76,5.76,0,0,1,3.33-5.78c3.1-1.62,6.34-1.09,9.42.06,1.88.7,1.16,2.4.89,4-2.31-1.17-4.52-2.39-7.1-2-1.55.27-2.92.91-3.07,2.73s1,2.46,2.41,2.88,2.91.68,4.34,1.08c2.5.68,4.19,2.07,4.39,4.88a5.93,5.93,0,0,1-3.38,6.14c-3.34,1.69-6.79,1.18-10.14-.12C1082.63,641.83,1083.6,640.26,1083.63,638.66Z" transform="translate(-618 -337)"/><path class="cls-3" d="M917,485c-3.48,3.08-8.39,2-10.58-2.24a14,14,0,0,1-.92-9.48c1.32-6.16,6.94-8.79,14-4.1,0-3.2,0-6.1,0-9,0-.93,0-1.72,1.32-1.67s1.41.74,1.4,1.71q0,12.17,0,24.33c0,.71.19,1.57-.9,1.71-.82.11-.92-.44-1.17-1.07-.91-2.38-2.1,0-3.17-.12a15.4,15.4,0,0,0,2.45-11.28c-.44-3.44-2.49-4.92-6.26-5-3.47,0-4.9,1.66-4.86,5,0,1.12-.23,2.24-.17,3.35.45,7.6.41,7.36,7.11,7.58A16.1,16.1,0,0,1,917,485Z" transform="translate(-618 -337)"/><path class="cls-3" d="M875.32,525.05c0,3.27,0,6.1,0,8.93,0,.82.26,1.83-1.16,1.82s-1.13-1-1.14-1.84q0-11.76,0-23.52c0-.82.44-2.41,1.11-1.59,2.33,2.9,4,0,5.73-.43,4.26-1.06,7.7,1,9.17,5.84,2.27,7.47-2,14-8.53,13.25C878.63,527.31,877.47,526,875.32,525.05Zm11.55-7.26c0-.5-.07-1-.11-1.49-.38-4.25-2-6-5.66-5.95s-5.13,1.56-5.43,5.71a27.44,27.44,0,0,0,.34,5.57c.32,2.31,1.89,3.39,4.1,3.67s4.31-.06,5.64-2.08C886.82,521.6,886.76,519.66,886.87,517.79Z" transform="translate(-618 -337)"/><path class="cls-3" d="M874.64,640.59c.7,0,1.74-1.05,1.89.63a1.86,1.86,0,0,1-1.36,2.26,6.06,6.06,0,0,1-8.35-5.23c-.2-2.6,0-5.23-.12-7.83-.12-1.82,1.15-4.23-2-5.1-.63-.17-.65-2.06,0-2.22,3-.71,1.82-3,1.94-4.71.08-1.28.47-1.72,1.75-1.71s2,.34,1.71,1.66c-.85,4,1.18,4.91,4.63,4.38,1.2-.18,1.83.31,1.77,1.67s-.84,1.51-1.73,1.32c-5.05-1.11-5,2-4.68,5.47a48,48,0,0,1,0,5.23C870.1,639.48,871.26,641.21,874.64,640.59Z" transform="translate(-618 -337)"/><path class="cls-3" d="M982.73,623.06c2.81-1.14,3.95.1,4.72,2.53,1.28,4,2.8,7.94,4.42,12.46,1.62-4.53,3.19-8.46,4.41-12.49.77-2.55,2-3.57,4.69-2.48-2.29,6-4.61,12-6.87,18.08-.43,1.14-.88,1.85-2.32,1.88s-1.84-.89-2.24-1.95Q986.15,632.06,982.73,623.06Z" transform="translate(-618 -337)"/><path class="cls-3" d="M937.28,477.17a21.29,21.29,0,0,0-3,0c-1.15.15-2.75-.76-3.37.61s0,3,1,4.2c2.28,3,5.33,3.09,8.72,2.34.79-.18,2.31-1.55,2.74.17.36,1.41-1.24,1.52-2.31,1.78-5,1.22-9.15,0-11.37-3.25-2.46-3.63-2.22-9.76.52-13.34a8.13,8.13,0,0,1,9.41-2.41,8.44,8.44,0,0,1,4.74,8.19c-.11,1.28-.55,1.75-1.8,1.7C940.78,477.12,939,477.17,937.28,477.17Zm-1.53-2.07c5.42,0,5.42,0,5.48-1.68.08-2.67-2-4.6-4.82-4.56s-5.68,2.36-5.26,4.74C931.7,476.76,934.49,474.26,935.75,475.1Z" transform="translate(-618 -337)"/><path class="cls-3" d="M1039.5,478.36c0,1.5,0,3,0,4.49,0,1.09.18,2.81-.37,3.14-1.54.91-1.4-1-2.09-1.69-.92-.88-1.42.38-2.06.83-3.56,2.54-8.57,2-10.21-1.05a5.44,5.44,0,0,1,2.68-7.78A19,19,0,0,1,1034,475c1.2-.07,3.39,1.07,3.17-1.66-.15-2-.49-4-3.13-4.39a11.39,11.39,0,0,0-5.49.59c-.58.2-1.32.46-1.65-.23-.43-.89.31-1.27,1-1.64,6.22-3.28,11.62-.05,11.64,7Zm-5.18-1.33c-5.83.14-7.53,1.14-7.46,4.24.07,2.64,1.71,3.36,4,3.36,3.77,0,6-2.22,6-5.67C1036.82,476.91,1035.71,476.76,1034.32,477Z" transform="translate(-618 -337)"/><path class="cls-3" d="M1149.88,478.09c0,1.62.06,3.25,0,4.86-.06,1.07.62,2.59-.43,3.13-1.62.85-1-1.19-1.6-1.7-1.06-.83-1.5.31-2.14.74a7.82,7.82,0,0,1-7,1.33c-2.63-.8-3.92-2.39-4-5.08a5.19,5.19,0,0,1,4-5.46,16.92,16.92,0,0,1,5.76-1c1,.07,3,1.08,3-1.44,0-2-.14-3.85-2.42-4.47a9.37,9.37,0,0,0-5.84.44c-.77.28-1.52.51-1.87-.41s.58-1.14,1.2-1.43c6.59-3.06,11.33-.09,11.35,7.11Zm-2.35.4c.34-2.32-1.35-2.05-2.84-2-4.61.14-7.17,1.86-7.13,4.77,0,2.59,1.59,3.39,3.88,3.38A5.78,5.78,0,0,0,1147.53,478.49Z" transform="translate(-618 -337)"/><path class="cls-3" d="M1109.08,477.16h-3.38c-3.59,0-4.32,1.24-2.43,4.42,2.08,3.51,5.36,3.48,8.87,2.77.94-.19,2.46-1.32,2.86,0,.51,1.64-1.31,1.71-2.48,2-5.06,1.15-9.1-.07-11.33-3.43s-2-10,.55-13.45c1.57-2.13,6.48-3.47,8.89-2.43,3.46,1.49,5.84,5.51,5.39,8.76-.17,1.18-.69,1.42-1.69,1.4C1112.58,477.14,1110.83,477.16,1109.08,477.16Zm-1.72-2.06a29.8,29.8,0,0,1,3,0c3.35.34,3.1-1.6,2.28-3.69-1.22-3.12-4-2.45-6.41-2.3a4.56,4.56,0,0,0-4.21,4.73c0,2.36,2.52.81,3.86,1.22A5.29,5.29,0,0,0,1107.36,475.1Z" transform="translate(-618 -337)"/><path class="cls-3" d="M883.86,477.16a8.73,8.73,0,0,0-2.23,0c-1.38.4-3.6-1.29-4.08,1.06a5.08,5.08,0,0,0,2.86,5.58c2.45,1.32,5,1,7.6.35.6-.15,1.67-1.32,2.13,0s-.82,1.62-1.73,1.95c-4.6,1.65-9.72.34-12.12-3.06s-2.24-10.33.48-13.68a8.44,8.44,0,0,1,9.44-2.07c2.76,1.26,5.12,5.51,4.86,8.33-.14,1.46-.88,1.52-2,1.49C887.35,477.12,885.6,477.15,883.86,477.16Zm-1.37-2.06a12.76,12.76,0,0,0,2.23,0c1.09-.21,2.76.85,3.16-.89s.09-3.67-1.73-4.54c-2.56-1.22-5.18-1.52-7.44.84-1,1.1-2.18,2.44-1.7,3.81.53,1.55,2.37.57,3.62.79A11.54,11.54,0,0,0,882.49,475.1Z" transform="translate(-618 -337)"/><path class="cls-3" d="M963.63,510.65c3.94-2.66,7.18-3.15,10.55-1.66,2.88,1.26,3,4,3,6.68,0,3.36,0,6.73,0,10.09,0,.53.36,1.36-.51,1.53-.4.08-1.22-.17-1.28-.41-.82-3.39-2.23-.86-3.29-.3a7.9,7.9,0,0,1-7.49.19c-1.91-.92-2.37-2.66-2.39-4.67,0-2.53,1.44-3.92,3.53-4.71a19.84,19.84,0,0,1,5.8-1.2c1.2-.08,3.44,1.11,3.28-1.55-.13-2.15-.77-4.09-3.58-4.42C969,510,966.92,511.25,963.63,510.65Zm7.91,7.4c-4.71.2-6.72,1.53-6.56,4.38s2.09,3.07,4.25,3c3.4-.18,5.22-2.34,5.15-5.6C974.33,517.45,972.8,518.1,971.54,518.05Z" transform="translate(-618 -337)"/><path class="cls-3" d="M833.1,520.14c0,1.49.09,3,0,4.48-.07.9.66,2.17-.52,2.66-1.59.66-1.16-1-1.69-1.67-.83-1-1.53-.05-2.13.44a7.38,7.38,0,0,1-5.63,1.48c-2.84-.24-4.7-1.61-4.85-4.61s.67-5.42,4.21-5.87c1.71-.21,3.43-.47,5.13-.83,1.12-.24,3.15,1,3.07-1.41-.06-2-.37-4.19-3-4.47a9.4,9.4,0,0,0-5.15.5c-.59.28-1.56.66-1.82-.41s.77-1.23,1.39-1.43c5.59-1.75,11.27-1.24,11,7C833.07,517.39,833.1,518.77,833.1,520.14Zm-2.81-.13c.37-1.83-.72-2-2.36-2-4.68.1-7.13,1.47-7,4.23.07,2.31,1.44,3.19,3.65,3.2C828.17,525.44,830.27,523.57,830.29,520Z" transform="translate(-618 -337)"/><path class="cls-3" d="M948.46,527.52a9.62,9.62,0,0,1-1.86,0c-1.48-.3-4,0-3.73-2,.38-2.47,2.26.16,3.56-.17s3,0,4.46,0c2.34,0,4.17-.93,4.64-3.42.44-2.32-.31-4.16-2.67-5.1-1.84-.74-3.68-1.47-5.46-2.32-3-1.47-5-3.8-4.51-7.36.41-3.11,3.32-5.13,7.19-5.17,1.85,0,3.78-.3,5.52.51.57.27,1.94,0,1.47,1.5s-1.09.79-2,.58a14.37,14.37,0,0,0-6.26-.39c-1.77.36-3,1.18-3.26,3.05s0,3.41,1.71,4.54a31.12,31.12,0,0,0,5.42,2.39c4.36,1.79,6,4.33,5.31,7.77-.8,3.73-3.38,5.54-8.06,5.64h-1.5Z" transform="translate(-618 -337)"/><path class="cls-3" d="M798.7,513.7c0,9.4,3.66,12.38,12.72,11.57.69-.06,2-1.61,2.3.35.21,1.38-1.23,1.4-2.08,1.65-5,1.47-11-.34-13.51-4-3.32-4.81-3.06-13,.57-17.52,2.79-3.51,9.34-5.08,14-3.29.61.23,2.09,0,1.48,1.46-.54,1.27-1.43.72-2.46.52-6.93-1.39-11.39.78-12.76,6.18A14.74,14.74,0,0,0,798.7,513.7Z" transform="translate(-618 -337)"/><path class="cls-3" d="M1034.35,524.48a6.1,6.1,0,0,1-5.58,3.08c-3.62,0-6.1-1.85-6.37-4.92-.25-2.8,1.83-5.07,5.28-5.7,1.46-.27,2.94-.41,4.39-.71,1.11-.22,3,.93,2.92-1.59,0-2-.28-3.91-2.65-4.26a8.79,8.79,0,0,0-5.5.54c-.44.23-1.17.62-1.59-.19-.52-1,.32-1.34,1-1.59,5.69-2.19,12-.88,11.15,6.56-.44,3.85-.08,7.77-.08,11.93-2.18-.59-1.31-2.94-3-3.08-1-1.19.44-1.88.62-2.83.5-2.51.27-4.25-3-3.68-1.33.23-2.72.27-4,.63-2.15.59-2.85,2.25-2.56,4.31s1.89,2.21,3.57,2.47C1030.9,525.76,1032.39,523.88,1034.35,524.48Z" transform="translate(-618 -337)"/><path class="cls-3" d="M1002.71,476.55c0-2.74,0-5.48,0-8.22,0-.57-.13-1.36.75-1.4.42,0,1.19.29,1.23.53.37,2.71,1.46,1.25,2.63.58,6.18-3.49,11.22-.64,11.29,6.34,0,3.37,0,6.73,0,10.09,0,.81.26,1.85-1.16,1.82s-1.23-1-1.24-1.82c0-3.49,0-7,0-10.47,0-2.54-.35-4.79-3.56-5.06s-6-.05-7.07,3.75c-1,3.33-.2,6.7-.62,10-.16,1.19,1.33,3.58-1.18,3.47-2.23-.1-.85-2.39-1-3.64A45.69,45.69,0,0,1,1002.71,476.55Z" transform="translate(-618 -337)"/><path class="cls-3" d="M1001.94,517.87c0-2.49,0-5,0-7.48,0-1,.69-2.59,1.41-1.26,1.43,2.67,2.28.75,3.41.13,5.28-2.9,10.19-.41,10.6,5.53.23,3.48.09,7,.06,10.48,0,.89.4,2.11-1.24,2.15s-1.28-1.2-1.29-2.09c0-3.36,0-6.73,0-10.1,0-2.57-.38-4.74-3.66-5-3.77-.27-6.32,1-6.73,4.28s-.11,6.72-.27,10.08c0,1,.83,2.91-1.32,2.73-1.68-.15-.86-1.78-.91-2.73C1001.85,522.37,1001.94,520.12,1001.94,517.87Z" transform="translate(-618 -337)"/><path class="cls-3" d="M910.53,518.12q0,3.95,0,7.87c0,1.44-1.34,2-1.71,1-1.06-3-2-1.06-3.3-.36-5.16,2.9-10.34.17-10.67-5.69-.19-3.36-.09-6.74-.07-10.11,0-.91-.34-2.17,1.28-2.11s1.1,1.38,1.12,2.23c.06,3-.06,6,0,9,.13,4,1.64,5.79,4.76,5.9a5.6,5.6,0,0,0,6.09-5.3c.33-2.84,0-5.75.21-8.61.08-1.1-1.11-3.25,1.19-3.13,2,.12.9,2.17,1,3.32A59.79,59.79,0,0,1,910.53,518.12Z" transform="translate(-618 -337)"/><path class="cls-3" d="M827.69,468.23c4.18-2.27,7-2.12,10.36.73A9,9,0,0,1,841,479c-1.94,6.79-5.51,9.06-11.37,7.23-3.78-1.18-6-4.67-5.8-9.7.09-2.17.17-4.49,1.78-6.29,1.31.05,1,1.31,1.51,2-2.35,3.25-1.63,8.81,1.43,11.16,2.74,2.11,7.79,1.48,9.13-1.5a12.31,12.31,0,0,0,0-10.43c-1.41-2.93-4.57-2.68-7.41-2.31C829.49,468.65,828.31,469.19,827.69,468.23Z" transform="translate(-618 -337)"/><path class="cls-3" d="M1052.36,466.75a8.32,8.32,0,0,1,1.12,0c1.53.25,4.11.09,3.89,1.85-.31,2.54-2.36-.55-3.59.3-.23.16-.72-.11-1.09-.1-2.06.05-4.66-.53-5.28,2.2-.58,2.51,1.8,3.19,3.59,4,1.58.71,3.23,1.3,4.79,2.05,2,1,2.75,2.67,2.58,4.91s-1.56,3.34-3.33,4.09c-2.89,1.22-5.86.74-8.79,0-.89-.21-1.72-.84-1.35-1.86.5-1.37,1.55-.22,2.08,0a13.63,13.63,0,0,0,5.52.49c1.5-.12,3-.52,3.42-2.3a3.16,3.16,0,0,0-2.08-3.89c-1.25-.54-2.51-1.05-3.76-1.6-2.66-1.15-5.75-2.39-5-5.91C1045.78,467.33,1049,466.59,1052.36,466.75Z" transform="translate(-618 -337)"/><path class="cls-3" d="M1172.65,466.76a3.1,3.1,0,0,1,1.1,0c1.36.39,3.91-.15,3.62,1.82-.36,2.47-2.38-.38-3.59.33-.18.11-.49,0-.74,0-2.21-.11-5-.72-5.63,2.13-.64,2.66,2,3.28,3.91,4.1a33.83,33.83,0,0,1,4.74,2.15,4.72,4.72,0,0,1,0,8.26c-3.24,1.9-6.69,1.43-10.1.45a1.35,1.35,0,0,1-1.06-1.7c.37-1.37,1.25-.31,1.69-.17a13.54,13.54,0,0,0,6.61.5c1.31-.23,2.65-.77,2.8-2.52a3,3,0,0,0-1.76-3.36l-4.08-1.78c-2.66-1.16-5.77-2.39-5.12-5.89C1165.67,467.38,1168.89,466.61,1172.65,466.76Z" transform="translate(-618 -337)"/><path class="cls-3" d="M915.77,629c0,4,0,8,0,12,0,1.22,0,2.14-1.7,2.09-1.52,0-1.88-.64-1.88-2q.07-12.16,0-24.32c0-1.48.24-2.27,2-2.27s1.55,1.14,1.55,2.21C915.78,620.74,915.77,624.86,915.77,629Z" transform="translate(-618 -337)"/><path class="cls-3" d="M1048.21,527.52a6,6,0,0,1-1.12,0c-1.61-.28-4.38.12-4.1-1.92.22-1.71,2.52,0,3.89.09a9,9,0,0,0,3.32,0c1.59-.44,3.25-.93,3.42-2.9.15-1.76-1.18-2.66-2.57-3.31-1.57-.73-3.22-1.3-4.8-2-2-.92-3.69-2.37-3.48-4.76s1.94-3.41,4.17-4.16c2.46-.84,4.65-.1,6.94.31.62.12,1.28.45,1.08,1.21a1.11,1.11,0,0,1-1.75.75c-1.29-.76-2.66-.45-4-.52-1.82-.1-3.73,0-4.16,2.18s1.58,2.85,3.09,3.61c1.21.6,2.51,1,3.77,1.55,2.53,1,4.52,2.56,3.92,5.52s-2.87,4.18-5.74,4.38C1049.46,527.56,1048.83,527.52,1048.21,527.52Z" transform="translate(-618 -337)"/><path class="cls-3" d="M920.64,527.53a5.91,5.91,0,0,1-1.64-.11c-1.2-.34-3.35-.17-2.85-2,.42-1.55,2,.19,3.13,0,.55-.09,1.19.4,1.79.41,2.28,0,4.9,0,5.66-2.52s-1.71-3.49-3.62-4.38a51.59,51.59,0,0,1-4.73-2.12c-1.51-.92-2.7-2.34-2.36-4.28a4.79,4.79,0,0,1,3.26-3.74,11.57,11.57,0,0,1,7.66,0c.72.19,1.59.38,1.21,1.38-.31.83-1.1.92-1.87.54-1.54-.75-3.18-.33-4.78-.42a2.83,2.83,0,0,0-3.19,2c-.42,1.56.6,2.56,2,3.17,1.57.72,3.17,1.39,4.77,2,2.45,1,4.6,2.46,4.07,5.45s-3,4.37-6,4.54C922.48,527.56,921.85,527.53,920.64,527.53Z" transform="translate(-618 -337)"/><path class="cls-3" d="M881,622.71c.22,0,.43-.05.46,0,2.1,3.42,4.2.46,6.33.06,1-.19,2.36-.54,2.35,1.36,0,1.32.07,2.2-1.82,2.42-5.18.6-5.61,1.25-5.61,6.22,0,2.74-.05,5.48,0,8.22,0,1.35-.24,2-1.82,2s-1.83-.72-1.82-2c0-5.49.07-11,0-16.46C879.09,623,879.74,622.53,881,622.71Z" transform="translate(-618 -337)"/><path class="cls-3" d="M859.81,468.44c3.41-.95,3.18-4.31,5.59-6.89-.51,4.17.49,6.27,4.34,5.32.72-.18,1.16.3,1.15,1.05s-.48,1.22-1.18,1.08c-5.16-1-4.4,2.45-4.27,5.5,0,1,0,2,0,3,0,6.54,0,6.54,5.81,7.71-3.09,2.88-7,1.85-8-2.15-.93-3.56-.39-7.2-.44-10.81C862.75,470.35,862.91,468.52,859.81,468.44Z" transform="translate(-618 -337)"/><path class="cls-2" d="M1065.53,448.1c-5,.26-6.73-1.23-6.76-6-.06-8.36,0-16.71,0-25.07a5.6,5.6,0,0,1,1.58-4.35v28.54C1060.33,445.94,1061.18,447.06,1065.53,448.1Z" transform="translate(-618 -337)"/><path class="cls-2" d="M799.84,623.3c-3.34,12.38,3.17,22.78,15.18,24-6.74.84-11.86-.82-14.66-5.48C796.8,635.83,796.67,629.55,799.84,623.3Z" transform="translate(-618 -337)"/><path class="cls-3" d="M986.16,514.32c0,3.75,0,7.49,0,11.24,0,.73.48,1.81-1,1.86s-1.43-1-1.43-2q0-11.43,0-22.86c0-.94-.33-2.14,1.31-2.08s1.14,1.33,1.15,2.19C986.19,506.58,986.16,510.45,986.16,514.32Z" transform="translate(-618 -337)"/><path class="cls-2" d="M979.67,624.23c3.92,7.54,5.41,15.25,9.23,21.78C985.28,645.54,978.59,630.94,979.67,624.23Z" transform="translate(-618 -337)"/><path class="cls-3" d="M850.31,470c2.06-1.5,3.51-3.66,6.25-3.29.72.09,1.52-.08,1.51,1.07,0,1-.52,1.1-1.38,1.26-5.48,1-6.84,2.63-6.87,8.11,0,2.37,0,4.74,0,7.11,0,.92.32,2.15-1.34,2-1.4-.13-1-1.23-1-2,0-4.74-.08-9.48,0-14.21,0-1.06-.91-2.88.88-3.09S849.23,469,850.31,470Z" transform="translate(-618 -337)"/><path class="cls-3" d="M1124.42,470.66c1.74-2.18,3.3-4,6-3.9.77,0,1.85-.4,2,1s-.88,1.17-1.72,1.28c-4.86.63-6.39,2.35-6.43,7.24,0,2.74,0,5.48,0,8.22,0,.93-.07,1.8-1.33,1.77s-1.1-1.06-1.11-1.88c0-5,0-10,0-14.94,0-.86-.63-2.34.8-2.45s.7,1.53,1.13,2.3C1123.91,469.62,1124.06,470,1124.42,470.66Z" transform="translate(-618 -337)"/><path class="cls-2" d="M861.77,435.34c-10.29.67-17.18-8.17-14.85-18.53C845.4,428,854.24,431.17,861.77,435.34Z" transform="translate(-618 -337)"/><path class="cls-2" d="M956.65,463.2c.75,8.62-.74,17.33.86,25.63C954.85,487.48,953.81,467.32,956.65,463.2Z" transform="translate(-618 -337)"/><path class="cls-2" d="M928.07,629.15c.2,12.38,2.44,16.16,10.32,17.94-3.8,1.15-7.12-.18-9.65-3.49S925.94,633.66,928.07,629.15Z" transform="translate(-618 -337)"/><path class="cls-3" d="M995.92,476.87v7.48c0,1,.12,2-1.45,2s-1.39-1.07-1.39-2.07q0-7.85,0-15.71c0-.88-.08-1.68,1.27-1.73s1.59.69,1.57,1.83C995.89,471.38,995.92,474.12,995.92,476.87Z" transform="translate(-618 -337)"/><path class="cls-3" d="M1159.38,476.59c0,2.61,0,5.22,0,7.83,0,.82.26,1.82-1.11,1.87-1.14,0-1.53-.5-1.53-1.56q0-8.21,0-16.41c0-1.13.51-1.5,1.58-1.48s1,.85,1,1.55C1159.39,471.12,1159.38,473.86,1159.38,476.59Z" transform="translate(-618 -337)"/><path class="cls-2" d="M939.36,506.64c.37,6.27,3.57,10.06,9.3,11.8a12.07,12.07,0,0,1,2.08.84c.84.44,2.19.83,1.47,2.08s-1.69.41-2.58-.08c-2.07-1.14-4.18-2.22-6.27-3.32C938.67,515.48,937.45,512.16,939.36,506.64Z" transform="translate(-618 -337)"/><path class="cls-2" d="M698.42,447.9c-3-.27-4-1.9-4-3.59-.14-9.62-.07-19.24.69-28.87,0,8.23.07,16.45,0,24.67A8.94,8.94,0,0,0,698.42,447.9Z" transform="translate(-618 -337)"/><path class="cls-2" d="M694.28,497.67c2.18,10.5-1.43,21.54,2.73,31.86-1.72-.08-2.63-1.91-2.66-3.68C694.19,516.46,694.28,507.06,694.28,497.67Z" transform="translate(-618 -337)"/><path class="cls-2" d="M813.28,490c-4.16-.69-9.88-8.72-10.58-15.76Z" transform="translate(-618 -337)"/><path class="cls-2" d="M965.7,435.13c-.43-7.18-1.09-14.38.28-21.52A85.15,85.15,0,0,1,965.7,435.13Z" transform="translate(-618 -337)"/><path class="cls-2" d="M1175.34,414.08v31.67A178.19,178.19,0,0,1,1175.34,414.08Z" transform="translate(-618 -337)"/><path class="cls-2" d="M1233.6,447.83c-5.51.82-6.28.56-7.89-4.07-1.21-3.49-3.73-3.95-6.83-4.13,2.1-.11,4.2-.2,6.3-.33,2.38-.14,2,2,2.28,3.15C1228.27,445.73,1229.42,448.34,1233.6,447.83Z" transform="translate(-618 -337)"/><path class="cls-2" d="M1008.24,514c2.87-1.09,3.6-.33,3.47,1.91-.16,3.09-.05,6.19-.11,9.29a6.48,6.48,0,0,0,2.23,5.46c-2.62.25-3.26-1.53-3.46-3.29a77.16,77.16,0,0,1-.32-7.77C1010,517.61,1010.25,515.61,1008.24,514Z" transform="translate(-618 -337)"/><path class="cls-2" d="M1009.94,472.6c2-.9,3.27-.85,3.2,1.71-.09,3,0,6-.1,8.95a8.45,8.45,0,0,0,2,6.51c-3.52-1.65-3.52-1.87-3.62-8.2C1011.4,478.54,1012.26,475.33,1009.94,472.6Z" transform="translate(-618 -337)"/><path class="cls-2" d="M863.88,531c-4-.64-4.45-2.71-4.62-5.07-.28-3.68.68-7.44-.7-11.06-.35-.92.19-1.39,1.1-1.41,1.31,0,1.25.92,1.24,1.8,0,3.22,0,6.45-.09,9.68C860.74,527.14,861,529.16,863.88,531Z" transform="translate(-618 -337)"/><path class="cls-2" d="M1035.31,646.26c-2.5.32-3.36-1.1-3.88-3.39-1-4.54.5-9.2-1.16-13.86,2.19,0,2.38,1.25,2.37,2.69,0,3,0,6,0,9C1032.56,643.05,1033.25,645,1035.31,646.26Z" transform="translate(-618 -337)"/><path class="cls-2" d="M857.63,646.25c-2.25.29-3.34-.78-3.84-3-.71-3.1-.34-6.21-.47-9.31-.06-1.59.11-3.2-1-4.94,2.64.09,2.6,1.57,2.6,3,0,3,0,6,0,9A5.55,5.55,0,0,0,857.63,646.25Z" transform="translate(-618 -337)"/><path class="cls-3" d="M995.25,518.4c0,2.35,0,4.71,0,7.06,0,.76.37,1.83-1,1.94s-1.35-.75-1.35-1.67q0-7.8,0-15.61c0-.81.12-1.47,1.19-1.41s1.17.72,1.18,1.51C995.26,513,995.25,515.67,995.25,518.4Z" transform="translate(-618 -337)"/><path class="cls-2" d="M1020.1,447c-7.22-.6-13.87-8.2-11.76-22a33.56,33.56,0,0,0,2.37,12.76C1012.47,442,1015.79,444.67,1020.1,447Z" transform="translate(-618 -337)"/><path class="cls-2" d="M902,474.46c-.15,6.68,1.28,12.2,7.8,15.21C902.87,489.68,899.09,482.25,902,474.46Z" transform="translate(-618 -337)"/><path class="cls-2" d="M1078.89,489c-6.7-.39-11.43-8.16-9.78-17C1069.89,479.43,1071.64,485.49,1078.89,489Z" transform="translate(-618 -337)"/><path class="cls-2" d="M900,531.28c-6.74.17-9.79-2.72-7.86-7.77C893,528.1,896.2,530,900,531.28Z" transform="translate(-618 -337)"/><path class="cls-2" d="M830,446c-3.37-4.58-6.41-9.34-7.38-15.25l8.37,14.54Z" transform="translate(-618 -337)"/><path class="cls-2" d="M965.46,479.56c2.33,3.35,2.42,7.47,5.35,10.4C966.64,489.5,966.07,488.35,965.46,479.56Z" transform="translate(-618 -337)"/><path class="cls-2" d="M653.31,498.09c2.11,11-1.95,21.5,2.69,30.81-1.81-.68-2.62-1.46-2.66-4.06C653.24,516.28,653.31,507.72,653.31,498.09Z" transform="translate(-618 -337)"/><path class="cls-2" d="M694.94,392.43c1.1,5-2.35,11.16,4.18,14.77C693.76,406.32,692.68,402.39,694.94,392.43Z" transform="translate(-618 -337)"/><path class="cls-2" d="M1042.69,475.55c2.56,3.33,6.24,4.17,10.27,6C1045.83,481.1,1043.37,479.65,1042.69,475.55Z" transform="translate(-618 -337)"/><path class="cls-2" d="M1188.23,435l6.64,10.63-1.24.76C1191.23,443.19,1188.66,440.1,1188.23,435Z" transform="translate(-618 -337)"/><path class="cls-2" d="M1162.53,475.5c2.87,3.37,6.33,4.19,9.56,5.71C1167,481.52,1163.47,479.68,1162.53,475.5Z" transform="translate(-618 -337)"/><path class="cls-2" d="M1040.64,517.15c2.29,2.94,5.88,3.59,9.08,5.39C1041.81,521.45,1041.19,521.08,1040.64,517.15Z" transform="translate(-618 -337)"/><path class="cls-2" d="M991.58,489.66c-1.46-.21-2.41-.82-2.41-2.38,0-5.46,0-10.93.2-16.4C990.88,477,988.14,483.64,991.58,489.66Z" transform="translate(-618 -337)"/><path class="cls-2" d="M653.26,484.11v-24.9h.64v24.89Z" transform="translate(-618 -337)"/><path class="cls-2" d="M1136.9,489.64c-4.86-.72-6.51-2.77-6.06-8.23C1132.29,485.24,1133.55,488.31,1136.9,489.64Z" transform="translate(-618 -337)"/><path class="cls-2" d="M820.13,624.4c-3.4,0-5.09-2.26-8.1-2.1C815.36,620.74,817.6,621.22,820.13,624.4Z" transform="translate(-618 -337)"/><path class="cls-2" d="M1004.67,644.87c-4.16-1-5.89-4-5.43-9.51C1000.5,639.21,1001.71,642.53,1004.67,644.87Z" transform="translate(-618 -337)"/><path class="cls-2" d="M796,526.59c-4-3-4-7.3-3.73-11.75A28.33,28.33,0,0,0,796,526.59Z" transform="translate(-618 -337)"/><path class="cls-2" d="M950.76,444.74c-3.51-1.94-5-5-4.91-8.92C947.41,438.83,948.54,442.09,950.76,444.74Z" transform="translate(-618 -337)"/><path class="cls-2" d="M832.76,647.19a12,12,0,0,1-6.36-1.5c-.73-.39-2.38-.58-1.56-1.89.7-1.12,1.42.31,2.07.65C828.86,645.44,830.65,646.77,832.76,647.19Z" transform="translate(-618 -337)"/><path class="cls-2" d="M1042,642.43c1.82,2.16,4,3.33,6.1,4.67C1045.63,646.3,1042,647.1,1042,642.43Z" transform="translate(-618 -337)"/><path class="cls-2" d="M827.13,472.26c-.48-.68-.2-1.94-1.51-2a2.06,2.06,0,0,1,2.07-2c.62,1,1.8.42,2.58.95Z" transform="translate(-618 -337)"/><path class="cls-3" d="M1157.8,459.87c1.18.07,1.7.45,1.65,1.4s-.31,1.78-1.5,1.66-1.46-.77-1.39-1.82S1157.37,460,1157.8,459.87Z" transform="translate(-618 -337)"/><path class="cls-3" d="M994.39,462.93c-1.12-.17-1.34-.93-1.3-1.91s.81-1.15,1.57-1.13,1.4.44,1.32,1.4S995.53,463,994.39,462.93Z" transform="translate(-618 -337)"/><path class="cls-2" d="M697.12,488.07c-2.81-1.82-2.81-1.82-2.29-7.72C695.15,483,694.85,485.91,697.12,488.07Z" transform="translate(-618 -337)"/><path class="cls-2" d="M891,644.45c-3-.2-2.73-2.55-2.68-4.76l2.66,4.78Z" transform="translate(-618 -337)"/><path class="cls-2" d="M654.55,398.34c-1.84-.67-2.24-2.06-2-3.91C654.37,395.22,653.93,397,654.55,398.34Z" transform="translate(-618 -337)"/><path class="cls-2" d="M656.64,401.73c-1.23-.26-1.84-.88-1.77-2,.11-.14.21-.34.24-.33C656.25,399.73,657,400.31,656.64,401.73Z" transform="translate(-618 -337)"/><path class="cls-2" d="M798.54,528.29l-.34.58a5.1,5.1,0,0,1-.78-.58c0-.06.16-.36.25-.54Z" transform="translate(-618 -337)"/><path class="cls-2" d="M694.8,458.36c.06,0,.17.07.17.1a1,1,0,0,1-.06.29c-.07,0-.18-.07-.18-.1A1,1,0,0,1,694.8,458.36Z" transform="translate(-618 -337)"/><path class="cls-2" d="M654.39,485.66c.07.11.18.19.17.27s-.13.14-.2.21c-.06-.09-.17-.17-.16-.25S654.32,485.74,654.39,485.66Z" transform="translate(-618 -337)"/><path class="cls-2" d="M952.36,445.47c-.1.07-.2.2-.28.19s-.16-.14-.23-.22c.09-.07.18-.19.26-.19S952.28,445.39,952.36,445.47Z" transform="translate(-618 -337)"/><path class="cls-2" d="M662.63,406.68l-.22-.23c.09-.06.18-.18.26-.17s.15.14.23.22Z" transform="translate(-618 -337)"/><polygon class="cls-2" points="181.85 192.54 181.77 192.37 181.97 192.4 181.85 192.54"/><path class="cls-2" d="M660.87,405.23l.47.58c-.41.19-.56-.06-.65-.39Z" transform="translate(-618 -337)"/><path class="cls-2" d="M660.69,405.42c-.31-.06-.75-.18-.46-.54s.54,0,.64.35Z" transform="translate(-618 -337)"/><path class="cls-2" d="M891.8,645.18c-.57.08-.86-.12-.77-.73l0,0,.73.75Z" transform="translate(-618 -337)"/><path class="cls-2" d="M891.74,645.22l.54.35c-.54.33-.48-.07-.48-.39Z" transform="translate(-618 -337)"/><path class="cls-1" d="M1036.55,427.4a15,15,0,0,1-.64,5.91c-1.54,4.47-4.34,6.17-9.59,5.81-3.93-.27-6.26-2.49-6.84-7.07a37.64,37.64,0,0,1-.11-8.22c.48-5.41,3.38-8,8.53-7.89,4.88.06,8.29,3.38,8.64,8.47C1036.61,425.4,1036.55,426.4,1036.55,427.4Z" transform="translate(-618 -337)"/><path class="cls-1" d="M1123.37,427.52c0-3,0-6,0-9,0-.79-.3-1.67.88-2.16,4.69-1.95,11.6,1.41,12.58,6.43a21.68,21.68,0,0,1-.11,9.28c-1.22,5-7.09,8.25-12,7-1.41-.35-1.32-1.25-1.33-2.24C1123.36,433.75,1123.37,430.63,1123.37,427.52Z" transform="translate(-618 -337)"/><path class="cls-1" d="M1185.52,421.05c.59-1.82-1.53-5,2.92-4.73s6.2,1.44,6.17,4.7-1.87,4.46-6.17,4.76C1184,426.09,1186.12,422.86,1185.52,421.05Z" transform="translate(-618 -337)"/><path class="cls-1" d="M1222.2,416.37c2.13,4.21,2.94,8.08,4.14,11.8.6,1.83-.12,2.3-1.93,2.42-6.57.42-6.68.38-4.9-5.72C1220.27,422.25,1221.15,419.68,1222.2,416.37Z" transform="translate(-618 -337)"/><path class="cls-1" d="M1056.58,632.26c-.21,3,1.18,6.64-3.28,8-3.12,1-5.41,0-6.36-3.19a13.2,13.2,0,0,1,.11-8.47,5.13,5.13,0,0,1,5.45-3.67c2.76.12,4.57,1,4.09,4.28A20,20,0,0,0,1056.58,632.26Zm-3,4.1v-7.21c0-.74-.36-1.13-1.14-1-.6.1-.88.54-.62,1C1053,631.45,1051.88,634,1053.57,636.36Z" transform="translate(-618 -337)"/><path class="cls-1" d="M944.85,632.21c-.24,3,1.25,6.71-3.25,8.07a5.56,5.56,0,0,1-3.64.17c-2.48-.9-3.87-4.74-3.25-9.21.44-3.15,1.51-5.88,5.27-6.24,3.54-.34,4.85.93,4.87,4.59ZM941,636.37l.89,0c0-2.32,0-4.64,0-7,0-.89-.28-1.48-1.27-1.23s-.41.88-.34,1.46C940.53,631.86,940.73,634.12,941,636.37Z" transform="translate(-618 -337)"/><path class="cls-1" d="M1005.8,630.2c1.66-4.91,5.8-6.71,8.91-4.3a3.52,3.52,0,0,1,1.58,3.53c-.36,1.52-1.87.68-2.84.73C1011,630.29,1008.54,630.2,1005.8,630.2Z" transform="translate(-618 -337)"/><path class="cls-1" d="M955.6,630.2c.53-3.25,2.19-4.83,4.94-5.19,2.09-.27,4,.22,5,2.25.76,1.52,1.35,3.12-1.55,3C961.33,630.1,958.61,630.2,955.6,630.2Z" transform="translate(-618 -337)"/><path class="cls-1" d="M828.11,630.2c.58-3.28,2.25-4.85,5-5.19,2.1-.26,4,.26,5,2.29.8,1.58,1.2,3.09-1.62,2.94S831.09,630.2,828.11,630.2Z" transform="translate(-618 -337)"/><path class="cls-1" d="M904.16,635.32c0,3.32-2,5.31-5.31,5.39-2.41.06-3.81-1.09-4-3.46-.17-2.77,3.32-4.8,7.69-4.75C905.09,632.53,903.79,634.38,904.16,635.32Z" transform="translate(-618 -337)"/><path class="cls-1" d="M1076.62,635.29c0,3.38-2.12,5.47-5.52,5.42-2.45,0-3.73-1.32-3.74-3.68,0-2.67,3.06-4.43,7.52-4.46C1076.6,632.56,1076.6,632.56,1076.62,635.29Z" transform="translate(-618 -337)"/><path class="cls-1" d="M917,485a16.1,16.1,0,0,0-1.81-.26c-6.7-.22-6.66,0-7.11-7.58-.06-1.11.19-2.23.17-3.35,0-3.31,1.39-5,4.86-5,3.77,0,5.82,1.52,6.26,5A15.4,15.4,0,0,1,917,485.06Z" transform="translate(-618 -337)"/><path class="cls-1" d="M886.87,517.79c-.11,1.87,0,3.81-1.12,5.43-1.33,2-3.4,2.36-5.64,2.08s-3.78-1.36-4.1-3.67a27.44,27.44,0,0,1-.34-5.57c.3-4.15,1.85-5.67,5.43-5.71s5.28,1.7,5.66,5.95C886.8,516.8,886.83,517.29,886.87,517.79Z" transform="translate(-618 -337)"/><path class="cls-1" d="M935.75,475.1c-1.26-.84-4,1.66-4.6-1.5-.42-2.38,2.46-4.71,5.26-4.74s4.9,1.89,4.82,4.56C941.17,475.1,941.17,475.1,935.75,475.1Z" transform="translate(-618 -337)"/><path class="cls-1" d="M1034.32,477c1.39-.27,2.5-.12,2.52,1.93,0,3.45-2.23,5.67-6,5.67-2.27,0-3.91-.72-4-3.36C1026.79,478.17,1028.49,477.17,1034.32,477Z" transform="translate(-618 -337)"/><path class="cls-1" d="M1147.53,478.49a5.78,5.78,0,0,1-6.09,6.14c-2.29,0-3.85-.79-3.88-3.38,0-2.91,2.52-4.63,7.13-4.77C1146.18,476.44,1147.87,476.17,1147.53,478.49Z" transform="translate(-618 -337)"/><path class="cls-1" d="M1107.36,475.1a5.29,5.29,0,0,1-1.49,0c-1.34-.41-3.91,1.14-3.86-1.22a4.56,4.56,0,0,1,4.21-4.73c2.41-.15,5.19-.82,6.41,2.3.82,2.09,1.07,4-2.28,3.69A29.8,29.8,0,0,0,1107.36,475.1Z" transform="translate(-618 -337)"/><path class="cls-1" d="M882.49,475.1a11.54,11.54,0,0,1-1.86,0c-1.25-.22-3.09.76-3.62-.79-.48-1.37.66-2.71,1.7-3.81,2.26-2.36,4.88-2.06,7.44-.84,1.82.87,2.13,2.8,1.73,4.54s-2.07.68-3.16.89A12.76,12.76,0,0,1,882.49,475.1Z" transform="translate(-618 -337)"/><path class="cls-1" d="M971.54,518.05c1.26.05,2.79-.6,2.84,1.74.07,3.26-1.75,5.42-5.15,5.6-2.16.11-4.09-.2-4.25-3S966.83,518.25,971.54,518.05Z" transform="translate(-618 -337)"/><path class="cls-1" d="M830.29,520c0,3.56-2.12,5.43-5.75,5.42-2.21,0-3.58-.89-3.65-3.2-.09-2.76,2.36-4.13,7-4.23C829.57,518,830.66,518.18,830.29,520Z" transform="translate(-618 -337)"/><path class="cls-1" d="M1034.35,524.48c-2-.6-3.45,1.28-5.43,1-1.68-.26-3.28-.43-3.57-2.47s.41-3.72,2.56-4.31c1.29-.36,2.68-.4,4-.63,3.24-.57,3.47,1.17,3,3.68-.18.95-1.61,1.64-.62,2.83Z" transform="translate(-618 -337)"/><path class="cls-1" d="M827.13,472.26l3.14-3.08c2.84-.37,6-.62,7.41,2.31a12.31,12.31,0,0,1,0,10.43c-1.34,3-6.39,3.61-9.13,1.5C825.5,481.07,824.78,475.51,827.13,472.26Z" transform="translate(-618 -337)"/><path class="cls-2" d="M1053.57,636.36c-1.69-2.33-.55-4.91-1.76-7.2-.26-.49,0-.93.62-1,.78-.11,1.13.28,1.14,1Z" transform="translate(-618 -337)"/><path class="cls-2" d="M941,636.37c-.23-2.25-.43-4.51-.72-6.75-.07-.58-.58-1.22.34-1.46s1.28.34,1.27,1.23c0,2.32,0,4.64,0,7Z" transform="translate(-618 -337)"/></svg>