<svg id="Camada_1" data-name="Camada 1" xmlns="http://www.w3.org/2000/svg" viewBox="0 0 375 375"><defs><style>.cls-1{fill:#fefefe;}.cls-2{fill:#ecedeb;}.cls-3{fill:#e5e7e4;}.cls-4{fill:#777;}.cls-5{fill:#d9dad9;}.cls-6{fill:#b7b7b7;}.cls-7{fill:#74ad00;}.cls-8{fill:#79b401;}.cls-9{fill:#7ebb01;}.cls-10{fill:#83c203;}.cls-11{fill:#72a802;}.cls-12{fill:#5b8702;}.cls-13{fill:#515150;}.cls-14{fill:#567f00;}.cls-15{fill:#0d1300;}.cls-16{fill:#030400;}</style></defs><path class="cls-1" d="M849.93,449.5q0,92.22.07,184.44c0,2.56-.5,3.06-3.06,3.06q-184.44-.12-368.88,0c-2.56,0-3.06-.5-3.06-3.06q.12-184.44,0-368.88c0-2.56.5-3.06,3.06-3.06q184.44.12,368.87,0c2.57,0,3.07.5,3.07,3.06Q849.87,357.28,849.93,449.5ZM793.84,315.19l-.77-.76h0a1.54,1.54,0,0,0-.77-1.51l0,0-.77-.77,0,0-1.51-1.48a4.85,4.85,0,0,0-.66,0,1.73,1.73,0,0,0-1.6-.77l0,0c-7.26-4.73-19-1.87-23.2,7.86-2.17,4.95-3.3,10.36-6.22,15-3.07,4.84-5.58,10.2-11,13.12-2.14-1.12-4.78-.73-6.78-2.27-2.25-1.63-4.95-1.75-7.53-2.28a3.12,3.12,0,0,0-.61,0c-2.29-1.59-5-1.73-7.62-2.28l-1.36,0c-3-2-6.5-1.65-9.81-2.23H713a5.5,5.5,0,0,0-1.61-.73c-9.43-1-18.81-2.11-28.37-1.61-9.18.49-18.26,1.27-27.16,3.6-20,5.23-37.93,14.55-54.46,26.78a2.8,2.8,0,0,0-1.51,2.36l-1.32.34a1.32,1.32,0,0,0-1.57,1.42,2.92,2.92,0,0,1-2.18,1.57,1.32,1.32,0,0,0-1.57,1.41,2.94,2.94,0,0,1-2.17,1.58,2.08,2.08,0,0,0-2.32,2.16,5.52,5.52,0,0,1-2.3,2.19c-1.56,0-2.81.46-2.91,2.32l-11.22,11.23c-1.87.1-2.29,1.36-2.33,2.92a9.59,9.59,0,0,1-2.91,3.07c-1.84.18-1.48,1.62-1.59,2.79l-.7.92c-1.57,0-2.78.25-1.73,2.25,0,.48,0,1-.66,1-2.94.08-3.26,2.19-3.41,4.42a.7.7,0,0,1-.28.52c-3.38.91-4.17,4.2-5.54,6.66-1,1.84-4.07,3.19-2.45,6.14-.21.79-.28,1.65-1.11,2.1-3.79,2-4.73,5.44-4.77,9.35a.51.51,0,0,1-.11.5c-2.27.26-2.35,2.34-3,3.82A148,148,0,0,0,533,469.31c-.68,3.87-2.14,7.95-.42,12l0,1.39c-1.48.41-1.26,1.64-1.29,2.73-.37,11.3-.21,22.63,1.69,33.75,2.79,16.29,7.32,32.13,15.22,46.81,1,1.93,2,3.93,3.87,5.23a11.19,11.19,0,0,0,10.14,7.3c2.12,0,4.6.69,5.85-2,2-1.12,4.3-1.79,5.71-3.91a88.32,88.32,0,0,0,7.77-14.18c1.4-.21,1.38-1.26,1.36-2.3a4.91,4.91,0,0,1,1.56-3c1-.12,1.48-.64,1.32-1.67a2,2,0,0,1,.12-.6c1.45,0,2.24-1,3-2,4.29-5,10.21-7,16.26-8.42,11.93-2.74,24.16-3.79,36.29-5.25,14.38-1.74,28.65-4,42.57-8a146.36,146.36,0,0,0,43.13-20.5c1.72-1.21,4.18-1.86,4.62-4.48a2.9,2.9,0,0,1,.6-.12c2,.09,2.77-1.13,3.23-2.78,2.79-.27,4.26-2.09,5.23-4.48a4.39,4.39,0,0,0,3.5-1.82c3.07-3.35,6.44-6.48,9.15-10.1s6.45-6.57,7.59-11.24c2.34-.62,3-2.3,2.92-4.52l.93-1.53c1.32-.22,1.3-1.23,1.31-2.23.48-1.27,1.59-2.31,1.48-3.82l0,0c1-.44,1.06-1.53,1.62-2.27,1.91-.33,1.22-1.87,1.39-3a4.75,4.75,0,0,0,0-.65,1.44,1.44,0,0,0,.76-1.55h0c3.9-3.35,4.16-8.21,5.24-12.73l0,0c2-2.11,1.57-5,2.27-7.49h0c1.91-4.3,2.14-8.87,2.2-13.48l0-.76c0-.25,0-.49,0-.73a42.23,42.23,0,0,0,0-17.94l0-.82c0-4.35-.14-8.7-2.2-12.7l0,0c-.47-2.38-.45-4.92-2.25-6.86a3.62,3.62,0,0,0,0-.57c-.53-1.65-.55-3.57-2.27-4.64-2-2.75,1.31-4.47,1.34-6.82,0-.2.07-.39.11-.58a4,4,0,0,0,2.91-3.89,1.71,1.71,0,0,1,.11-.59c1.51-.1,2.29-.85,2.13-2.42a1.91,1.91,0,0,1,.1-.58,18.45,18.45,0,0,0,6.64-9.14,1.66,1.66,0,0,1,.11-.58c2.56-.5,3.09-2.58,3.64-4.65a1.5,1.5,0,0,1,.1-.59,3.76,3.76,0,0,0,3.13-4.45c0-.5-.07-1-.11-1.51h0c.89-.12,1.25-.84,1.7-1.48,1.85-.63,2-2.19,2-3.78,0-.5,0-1,0-1.5l0,0a9.87,9.87,0,0,0,0-8.27v0c.05-1.28-.15-2.44-1.5-3l0,0-.76-.9a3.33,3.33,0,0,0,0-.55,2.5,2.5,0,0,0-1.52-2.31v0l-.76-.77Z" transform="translate(-475 -262)"/><path class="cls-2" d="M789.42,310.7a4.85,4.85,0,0,1,.66,0,1.34,1.34,0,0,0,1.51,1.48l0,0,.77.77,0,0a1.47,1.47,0,0,0,.77,1.51h0l.77.76,0,0,.76.77v0c0,1.13,0,2.2,1.52,2.31a3.5,3.5,0,0,1,0,.56c.25.3.5.6.76.89l0,0c-.09,1.3.14,2.44,1.5,3v8.25l0,0a1.5,1.5,0,0,0-.78,1.49l-.16.34.18-.31.74,0c-.07,1.59-.17,3.15-2,3.78-2.14-1.31-1.77.25-1.7,1.48h0c-5.19,4.13-8.73,9.49-11.47,15.45-3.81,3.3-6.29,7.65-9.1,11.71-1.21,1.75.25,2,1.7,1.82,0,2.35-3.3,4.07-1.34,6.82.28,1.79,0,3.86,2.27,4.64a3.79,3.79,0,0,1,0,.58c.29,2.43-.22,5.13,2.25,6.85l0,0q.39,5.65.79,11.33a1.37,1.37,0,0,0,1.41,1.37l0,.82V417c0,.24,0,.48,0,.73l-.76.74c-.57,4.49-1.76,8.91-1.48,13.5h0c-2.78,1.88-1.84,4.89-2.27,7.49l0,0c-.42.21-1.11.33-1.22.64-1.39,4-2.69,8.06-4,12.09h0c-.68.3-.76.91-.76,1.55a4.75,4.75,0,0,1,0,.65c-2.29-.22-2.36,1.3-2.28,2.94a2.44,2.44,0,0,0-.73,2.34l0,0c-2.23.3-2,2.34-2.61,3.75-1.09-.07-1.92.2-1.89,1.53l0,2.2h0a.68.68,0,0,0-.75.75h0c-1.6,0-1.6,1.09-1.49,2.24h0c-2.06,0-2.36,1.34-2.24,3v0c-4,1.81-5.87,5.57-8.3,8.83-2,1.52-4,3.06-5.18,5.39l0,0a6.63,6.63,0,0,0-1.63.85,114.54,114.54,0,0,1-17.2,13.6c-8.53,5.49-17.26,10.66-27.15,13.43-1-.19-1.75,0-1.93,1.15-4.07,1.15-7.85,3.37-12.23,3.38-1-.24-1.81,0-2,1.17-1.89.16-3.61,1.32-5.59,1-1.26,0-2.83-.85-3.39,1.19a3.15,3.15,0,0,1-3.06.73c-1.13-1-1.84-.68-2.18.73l-3.8,0c-1.14-.95-1.86-.68-2.19.75-4.51.31-8.86,1.8-13.42,1.76-.88-1.18-1.29-.64-1.54.43l-9.53,1.06c-.78-.07-1.59-.28-2.28.33l-3.19.22c-1.43-.86-2.8-1.4-3.71.66-1.65,1.32-3.5,1-5.36.64-1.32-.59-2.61-1-3.61.52l-3.81.35c-1.25-.81-2.36-1.07-2.93.76l-8.25,1.58c-1.23-1-1.33-.07-1.47.84-.51,1-1.46.6-2.27.67-.94-1-1.26-.36-1.48.55-5.48,1.78-9.48,5.45-12.8,10-2.11.26-2.3,1.41-1.42,3.06-1.77.17-1.43,1.64-1.71,2.74-2,1.24-2.57,3.25-2.76,5.44-1.88,1.1-2.26,3.13-3,4.92-2.86,7-7.76,10-14.72,9.42-2.8-.24-4.31-2.66-6.82-3.2l-.06-.06c0-1.08-.17-2.06-1.57-2.12l-.74-.78c0-.71,0-1.42-.07-2.13-.28-1.73-.63-3.41-2.74-3.83a.57.57,0,0,1-.28-.57,19.87,19.87,0,0,0-5-11.4c-.62-1.72-1.76-3.26-1.77-5.19,1.22-1,.56-1.31-.5-1.54a21.11,21.11,0,0,1-1.79-5.92c1.44-2.83-.16-4.83-1.86-6.8l-.28-2.22q1.8-1.62-.54-2.27l-.21-2.22c1.54-2,.71-3.41-1.19-4.52l-.34-4.45c1.15-1.43,1.6-2.77-.49-3.77l-.27-3c1-.69.82-1.73.82-2.71q0-8.58,0-17.15c0-1,.14-2-.87-2.68.12-2.22.23-4.44.35-6.67,2-1,1.62-2.36.45-3.78a51.82,51.82,0,0,1,1.77-10.43c1.65-.54,1.7-1.33.37-2.33.55-1.42,0-3.14,1.13-4.41,1-.22,1.65-.56.52-1.52l.24-1.47c1.06-.25,1.65-.64.44-1.55,1.94-5.69,3.55-11.53,5.88-17.06a155.2,155.2,0,0,1,19.5-33c5.15-5.12,9-11.47,14.7-16,5.88-4.74,10.81-10.55,17.14-14.74a2.46,2.46,0,0,0,1.26-2.16h0l.89,0c8.92-5.2,16.91-11.84,26.24-16.43a162.11,162.11,0,0,1,23-9.71c7.34-2.28,14.8-4.36,22.51-5,6.53-.51,13.11-1.21,19.62-.93s13.3,1.06,20,1.3h.74c.11.82.5,1.47,1.39,1.42,2.85-.16,5.55,1.26,8.42.81l1.36,0c2,2.73,5,1.89,7.62,2.28a3.12,3.12,0,0,1,.61,0c1.91,2.74,4.92,1.84,7.53,2.28,2,1.54,4.64,1.15,6.78,2.27.82,1.64,2,1.84,3.39.76,2.76-.05,3.76-2.13,4.82-4.14,7.61-7.19,11.18-16.57,14.19-26.25a1.12,1.12,0,0,0-.72-1.48.38.38,0,0,0,.4-.34c1.35.43,1.76-.31,1.83-1.47l0,0,1.06-.74a.9.9,0,0,0,.41-.49l.72-.28c3-1.6,6-2.82,9.52-2.23,1.58.26,3.17.49,4.75.74l0,0A1.52,1.52,0,0,0,789.42,310.7ZM550.86,531.31c-1.37,1.11-.59,1.43.59,1.61l.83,1.49c.24,1.56.25,3.2,1.5,4.42l.46,1.59a17.35,17.35,0,0,0,3,7.73l.41,1.26a1.83,1.83,0,0,0,1,1.94l.32,1.07a3.22,3.22,0,0,0,1.27,2.4l1,2.09a4.67,4.67,0,0,0,2,3.16c1,1.26,1.35,3.77,3.92,2a1.37,1.37,0,0,0,1.24-1.45l1.77-2.28c.91-.15,1.8-.31.77-1.47-.06-1.27.85-2.07,1.44-3,2.12-.65,1.86-2.51,2.09-4.12l-.06-.22.17-.15c.91-.13,1.88-.23.84-1.47a2.48,2.48,0,0,1,1.31-2.31c2.66-.18,2.41-2.9,3.55-4.34,2.91-3.67,6.38-6.81,9.35-10.4l.06-.13c4-1.06,7.83-2.31,11.11-4.89l.75-.63,1.4.1c1,1.23,1.37.57,1.58-.53l.75-.58c.82.25,1.57.27,2.08-.59a8.76,8.76,0,0,0,3.92-.61l2.8-.1c.86,1.32,1.37,1,1.67-.35l1.5-.64c1,.27,2,.46,2.83-.53a24.75,24.75,0,0,0,6.91-.74l2.82,0c1.06,1.38,1.89,1.42,2.4-.41l2.25-.61a3.51,3.51,0,0,0,3.59-.49,22,22,0,0,0,6.9-.7l3.57,0c.89,1.33,1.37.91,1.65-.38l2.25-.65,2.09.27c.84,1.28,1.35,1,1.64-.34l4.51-1.14a3.2,3.2,0,0,0,2.88-.66l2.35-.36c.8.32,1.56.39,2.12-.46l3.88-.69a1.93,1.93,0,0,0,2.14-.7l2.33-.43a.89.89,0,0,0,1.37-.44l2.62.06c1.29,0,2.87.92,3.49-1.13a3.47,3.47,0,0,1,2.35-.64c2,.33,4,.38,5.14-1.75.41-.58,1-.51,1.6-.47,1.61-.24,3.65.58,4.37-1.8l1-.17c1.64-.16,3.48.07,4.2-2l1-.23c1.56.08,3-.11,3.46-1.93l1.06-.3c1.54.05,2.94-.14,3.42-1.95L714,499c1.17.3,1.93,0,2-1.35l.29-.07c1.66.07,3.14-.14,3.45-2.19a7.12,7.12,0,0,1,3.42-2.25c1,.15,1.73-.19,1.85-1.32a1.21,1.21,0,0,1,1.21-.91c1,.14,1.66-.21,1.79-1.3a1.29,1.29,0,0,1,1.17-1,2.05,2.05,0,0,0,2.57-2l.94-.77c2-.1,3.27-1,3.51-3.08a1,1,0,0,1,1-.89c1.72.19,2.73-.4,2.52-2.31l0,0c1.72.2,2.48-.56,2.28-2.29l0,.05c1.84.22,2.47-.73,2.35-2.42l.88-1.09c1.84-.33,2.93-1.31,2.89-3.29l.58-.6a5.27,5.27,0,0,0,4-5.1l.61-.8c1.93-.19,2.21-1.58,2.28-3.12l0,.05c2.66-1,3-3.41,3.69-5.66l.51-1c1.57-.33,2.07-1.3,1.68-2.81l1-2.44c2.12-.65,1.86-2.51,2.09-4.11-.12-1.35.84-2.26,1.33-3.36,1-.3,1-1.05.91-1.89l.18-1.12c.94-.15,1.82-.32.74-1.48l.32-1.5c1.49-.43,1.08-1.59,1-2.63l.14-1.12c2-.47,1.74-1.61.89-2.94l.32-2.29c1-.37,1-1.15.79-2a12.26,12.26,0,0,1,.34-4.71c2.41-1.17,1.48-2.83.67-4.48q0-7.12.05-14.26c.85-1.9,1.65-3.79-.76-5.21a12.78,12.78,0,0,1-.32-4.69c.27-.94.24-1.74-.9-2.05l-.23-1.53c1-1.21.71-1.91-.79-2.2-1.94-6.12-5.92-11.46-6.84-18a24,24,0,0,1,4.1-7.9q10.15-14.09,20.24-28.21c3.46-4.84,3.42-5.38,0-10.15-1.38-1.9-3.12-3.65-5.44-3.42s-3,2.81-3.48,4.81c-3.35,12.86-10.79,23.1-20.34,32-1.59,1.49-3.24,2.74-5.58,2.55-10-3.14-19.82-6.53-30-8.93-21.44-5-42.79-5.82-64.16.44-19.65,5.75-36.93,15.83-52.81,28.48-4.94,3.93-10.05,7.72-14.09,12.67l-.57.56a2.44,2.44,0,0,0-1.68,1.69l-.57.55a2.49,2.49,0,0,0-1.69,1.69l-.56.54a2,2,0,0,0-1.52,1.75A73.56,73.56,0,0,0,573.59,409c-5.79,8-11.49,16-14.86,25.44A4.28,4.28,0,0,0,557,437.9a2.49,2.49,0,0,0-.84,2.35,1.16,1.16,0,0,0-.75,1.4c-.68,1.48-1.67,2.85-1.53,4.6a1.07,1.07,0,0,0-.68,1.38c-.51,1.79-1.64,3.41-1.5,5.38a1.86,1.86,0,0,0-.78,2.1c-.63,2.27-1.76,4.42-1.47,6.88-1,.74-.94,1.79-.83,2.85a10.67,10.67,0,0,0-.46,4.73,31.33,31.33,0,0,0-1.78,12.48,30,30,0,0,0-.19,7.52,5.28,5.28,0,0,0,0,4.4c-.08,2.52-.36,5,.21,7.54l-.06,5.85c-1.35,1.09-1.32,1.91.47,2.37l.7,2.26a11,11,0,0,0,.93,5.92l.2,1.56c-.19,1.07-.29,2.11.76,2.84a3.21,3.21,0,0,0,.4,2.4,3.81,3.81,0,0,0,.9,3.66l.27,1.57Z" transform="translate(-475 -262)"/><path class="cls-3" d="M585.79,548.7c-.88-1.65-.69-2.8,1.42-3.06,1.32,1.58,1.87-.09,2.6-.66,2.44-1.89,4.83-3.84,8-4.4a8.75,8.75,0,0,0,6.85-2.14l1.36-.22c.89,1,1.29.34,1.65-.48l2.1-.26c.87,1,1.28.36,1.64-.46l2.1-.29c1.24,1,2.3,1,3.13-.51L618,536c1.48.94,2.86,1.3,3.81-.69l21.58-2.43c.88.36,1.84,1.24,2.44-.36l1.37-.11c1.45.74,2.82,1,3.86-.64l1.38-.1a8.28,8.28,0,0,0,7.62-1.34l1.36-.16a18.82,18.82,0,0,0,10.5-2l1.17-.14c1,.48,1.57.14,1.91-.82l1.36-.25c1.71.9,2.9.16,3.88-1.25l1.36-.21c.92,1,1.3.31,1.64-.53l1.35-.26a10.47,10.47,0,0,0,8.33-2.84l1.91-.47c1.64.06,3.21,0,4.08-1.77l3.4-1.24a2.68,2.68,0,0,0,3.33-1.76l3.71-1.63c2.28-.34,4.56-.68,5.37-3.37l.16-.23.17,0,3-1.12c1.75-.3,3.25-1,4-2.77h0c1.11.05,2.14,0,2.24-1.49h0c1.11.05,2.15,0,2.24-1.49h0a1.37,1.37,0,0,0,1.6-1.28,4.54,4.54,0,0,1,.61-.24l3-.75c-.44,2.62-2.9,3.27-4.62,4.48A146.36,146.36,0,0,1,684,527.22c-13.92,4.09-28.19,6.3-42.57,8-12.13,1.46-24.36,2.51-36.29,5.25-6.05,1.38-12,3.42-16.26,8.42-.79.92-1.58,2-3,2C585.81,550.16,585.8,549.43,585.79,548.7Z" transform="translate(-475 -262)"/><path class="cls-4" d="M541.11,455.12c-1.16,1.27-.58,3-1.13,4.41-.63.7-.4,1.53-.37,2.33a51.82,51.82,0,0,0-1.77,10.43c-.89,1.17-.44,2.5-.45,3.78-.12,2.23-.23,4.45-.35,6.67l-.78,1.6c-2,.47-1.28,2.14-1.34,3.36-.29,5.94.43,11.91-.4,17.84l-1.2-.27q0-10.86,0-21.73c.95-.66.84-1.5.42-2.4.12-2.2.23-4.39.35-6.59a1,1,0,0,0,.42-1.61l.27-3.63a1,1,0,0,0,.44-1.62l.24-1.39c.78-.33.88-.89.53-1.6l.26-2.13a1,1,0,0,0,.44-1.61l.3-2.14a1,1,0,0,0,.51-1.6c1.38-6.7,4.07-13,6.36-19.36.43-.08.68-.28.52-.76-.24-1,1.41-1.82.36-2.94a.53.53,0,0,0,.1-.5,19.24,19.24,0,0,0,4.77-9.35c.83-.45.9-1.31,1.11-2.1,3.34-3.84,5.62-8.35,8-12.8a.66.66,0,0,0,.27-.52c1.93-.86,2.66-2.65,3.42-4.42.66-.05.67-.53.66-1,.87-.53,1.89-.94,1.73-2.25l.7-.92.75,0,1.43.25a155.2,155.2,0,0,0-19.5,33c-2.33,5.53-3.94,11.37-5.88,17.06-.62.38-.5,1-.44,1.55l-.24,1.47A1.44,1.44,0,0,0,541.11,455.12Z" transform="translate(-475 -262)"/><path class="cls-5" d="M713,336.89c-6.66-.24-13.31-1-20-1.3s-13.09.42-19.62.93c-7.71.6-15.17,2.68-22.51,5a162.11,162.11,0,0,0-23,9.71c-9.33,4.59-17.32,11.23-26.24,16.43-.29-.43-.57-.79-.89,0h0l-.89-.3a2.8,2.8,0,0,1,1.51-2.36c16.53-12.23,34.49-21.55,54.46-26.78,8.9-2.33,18-3.11,27.16-3.6,9.56-.5,18.94.66,28.37,1.61A5.5,5.5,0,0,1,713,336.89Z" transform="translate(-475 -262)"/><path class="cls-5" d="M533.34,483.54q0,10.86,0,21.73c-.91.82-.5,1.23.45,1.47l.3,6.76c-.83.71-.6,1.18.34,1.47l.43,4.51c-.93.81-.54,1.23.44,1.48l.2,1.5c-.73.75-.52,1.23.44,1.49l.39,3c-.84.74-.56,1.19.38,1.47l.37,2.26c-.79,1.72-.19,2.95,1.36,3.83l.36-.17-.3,1.57c-.74.75-.52,1.23.44,1.49l.42,1.6c0,2.22,0,4.49,2.1,6l.35-.17c-.06.52-.13,1-.2,1.56-.38,1.36-.17,2.46,1.27,3.06.95,1,.6,2.73,2.08,3.37l.52,1.78.59,3.17a1.33,1.33,0,0,0,.81,1.36l5.88,11.46-.76.63c-1.88-1.3-2.84-3.3-3.87-5.23-7.9-14.68-12.43-30.52-15.22-46.81-1.9-11.12-2.06-22.45-1.69-33.75,0-1.09-.19-2.32,1.29-2.73Z" transform="translate(-475 -262)"/><path class="cls-5" d="M787.85,310c-1.58-.25-3.17-.48-4.75-.74-3.49-.59-6.55.63-9.52,2.23-.55-.7-.63-.18-.72.28a.9.9,0,0,1-.41.49.93.93,0,0,0-1.06.74l0,0c-1.15-.18-1.57.55-1.83,1.47a.38.38,0,0,1-.4.34c-1.91,1.36-2.41,3.57-3.35,5.52a2.92,2.92,0,0,0-1.36,3.83c-1.85,6.31-5.63,11.61-9,17.16-2.41,1-3.41,3.28-4.62,5.36-1.43,1.08-2.57.88-3.39-.76,5.39-2.92,7.9-8.28,11-13.12,2.92-4.61,4.05-10,6.22-15C768.9,308.08,780.59,305.22,787.85,310Z" transform="translate(-475 -262)"/><path class="cls-5" d="M534.11,474.55c-.12,2.2-.23,4.39-.35,6.59l-1.23.17c-1.72-4.05-.26-8.13.42-12A148,148,0,0,1,541.79,438c.61-1.48.69-3.56,3-3.82,1.06,1.12-.59,1.92-.35,2.94l-.52.76c-2.29,6.4-5,12.66-6.35,19.36-.78.34-1.4.73-.52,1.6l-.3,2.14c-.76.36-1.33.78-.44,1.61-.09.71-.17,1.42-.26,2.13-.77.33-1.38.72-.53,1.6l-.24,1.39c-.78.36-1.35.79-.44,1.62l-.27,3.63C533.72,473.3,533.13,473.72,534.11,474.55Z" transform="translate(-475 -262)"/><path class="cls-6" d="M599.9,367.29l.89.3a2.46,2.46,0,0,1-1.26,2.16c-6.33,4.19-11.26,10-17.14,14.74-5.67,4.56-9.55,10.91-14.7,16l-1.43-.25.84-2.77a9.59,9.59,0,0,0,2.91-3.07,3.32,3.32,0,0,0,2.33-2.92l11.22-11.23a3.27,3.27,0,0,0,2.91-2.32,5.52,5.52,0,0,0,2.3-2.19,2.18,2.18,0,0,0,2.32-2.16,2.94,2.94,0,0,0,2.17-1.58,1.37,1.37,0,0,0,1.57-1.41,2.92,2.92,0,0,0,2.18-1.57,1.4,1.4,0,0,0,1.57-1.42Z" transform="translate(-475 -262)"/><path class="cls-6" d="M556.78,568c2.51.54,4,3,6.82,3.2,7,.57,11.86-2.42,14.72-9.42.74-1.79,1.12-3.82,3-4.92v0l.14,1.56a88.32,88.32,0,0,1-7.77,14.18c-1.41,2.12-3.68,2.79-5.71,3.91l-1.07-.4,1-1.85a6.24,6.24,0,0,0-1.74-.24c-1.18.18-2.33.53-3.5.8.13-1.49-1.19-1.66-2-2.25C558.89,571.4,556.92,570.48,556.78,568Z" transform="translate(-475 -262)"/><path class="cls-3" d="M761,471.7c-1.14,4.67-4.89,7.64-7.59,11.24s-6.08,6.75-9.15,10.1a4.39,4.39,0,0,1-3.5,1.82l-.47-.59,2.72-3.19c.24-.23.48-.46.73-.68.63-1,2.26-1.5,1.44-3.15l0,0c1.66.88,2.28-.55,3.14-1.44l.61-.83,2.51-3a23.13,23.13,0,0,0,7.22-9v0l2.25-1.47Z" transform="translate(-475 -262)"/><path class="cls-5" d="M566.9,576.1l1.07.41c-1.25,2.7-3.73,2-5.85,2a11.19,11.19,0,0,1-10.14-7.3l.76-.63,1.7,1c.63,1.37,1,3,3.06,2.84l2.44.82C562,577.46,564.55,576.12,566.9,576.1Z" transform="translate(-475 -262)"/><path class="cls-6" d="M783.11,353.11c2.74-6,6.28-11.32,11.47-15.45,0,.5.08,1,.11,1.51a7.46,7.46,0,0,0-3.13,4.45,1.5,1.5,0,0,0-.1.59c-2.13.84-3,2.67-3.64,4.65a1.67,1.67,0,0,0-.11.59c-2.22.5-2.38,3.13-4.2,4A4.75,4.75,0,0,1,783.11,353.11Z" transform="translate(-475 -262)"/><path class="cls-6" d="M775.71,366.64c-1.45.2-2.91-.07-1.7-1.82,2.81-4.06,5.29-8.41,9.1-11.71a4.75,4.75,0,0,0,.4.38c-.39,1.9-2.33,3.06-2.44,5.09a1.92,1.92,0,0,0-.1.59,2.49,2.49,0,0,0-2.13,2.41,1.5,1.5,0,0,0-.1.59c-1.93.58-2.46,2.21-2.92,3.89C775.78,366.25,775.74,366.44,775.71,366.64Z" transform="translate(-475 -262)"/><path class="cls-5" d="M558.73,409.41c-2.37,4.45-4.65,9-8,12.8-1.62-2.95,1.43-4.3,2.45-6.14C554.56,413.61,555.35,410.32,558.73,409.41Z" transform="translate(-475 -262)"/><path class="cls-5" d="M549.63,424.31a19.24,19.24,0,0,1-4.77,9.35C544.9,429.75,545.84,426.31,549.63,424.31Z" transform="translate(-475 -262)"/><path class="cls-5" d="M771.39,452.13c1.33-4,2.63-8.07,4-12.09.11-.31.8-.43,1.22-.64C775.55,443.92,775.29,448.78,771.39,452.13Z" transform="translate(-475 -262)"/><path class="cls-2" d="M781.07,358.58c.11-2,2-3.19,2.44-5.09,1.82-.91,2-3.54,4.2-4A18.47,18.47,0,0,1,781.07,358.58Z" transform="translate(-475 -262)"/><path class="cls-5" d="M781.05,398.21a1.37,1.37,0,0,1-1.41-1.37q-.39-5.67-.79-11.33C780.91,389.51,781,393.86,781.05,398.21Z" transform="translate(-475 -262)"/><path class="cls-5" d="M778.86,431.94c-.28-4.59.91-9,1.48-13.5l.72,0C781,423.07,780.77,427.64,778.86,431.94Z" transform="translate(-475 -262)"/><path class="cls-5" d="M781.09,417V399A42.23,42.23,0,0,1,781.09,417Z" transform="translate(-475 -262)"/><path class="cls-3" d="M740.77,494.86c-1,2.39-2.44,4.21-5.23,4.48l-.15-.16c.29-.69.58-1.39.86-2.09,1.37-.91,2.22-2.56,4-2.83Z" transform="translate(-475 -262)"/><path class="cls-5" d="M723.56,339.13c-2.87.45-5.57-1-8.42-.81-.89.05-1.28-.6-1.39-1.42C717.06,337.48,720.57,337.16,723.56,339.13Z" transform="translate(-475 -262)"/><path class="cls-5" d="M776.61,439.42c.43-2.6-.51-5.61,2.27-7.49C778.18,434.44,778.65,437.31,776.61,439.42Z" transform="translate(-475 -262)"/><path class="cls-5" d="M732.54,341.38c-2.65-.39-5.66.45-7.62-2.28C727.53,339.65,730.25,339.79,732.54,341.38Z" transform="translate(-475 -262)"/><path class="cls-5" d="M740.68,343.63c-2.61-.44-5.62.46-7.53-2.28C735.73,341.88,738.43,342,740.68,343.63Z" transform="translate(-475 -262)"/><path class="cls-2" d="M791.56,343.62a7.46,7.46,0,0,1,3.13-4.45A3.76,3.76,0,0,1,791.56,343.62Z" transform="translate(-475 -262)"/><path class="cls-2" d="M787.82,348.86c.66-2,1.51-3.81,3.64-4.65C790.91,346.28,790.38,348.36,787.82,348.86Z" transform="translate(-475 -262)"/><path class="cls-5" d="M778.87,385.53c-2.47-1.72-2-4.42-2.25-6.85C778.42,380.61,778.4,383.15,778.87,385.53Z" transform="translate(-475 -262)"/><path class="cls-5" d="M562.42,404.47c-.76,1.77-1.49,3.56-3.42,4.42C559.16,406.66,559.48,404.55,562.42,404.47Z" transform="translate(-475 -262)"/><path class="cls-3" d="M763.93,467.18c.13,2.22-.58,3.9-2.92,4.52l-.12-.12c0-.51,0-1,0-1.51h0a2,2,0,0,0,1.49-2.24h0l.75-.75h0Z" transform="translate(-475 -262)"/><path class="cls-6" d="M581.32,556.88c.19-2.19.72-4.2,2.76-5.44.12.1.23.19.33.29l0,1.43a4.91,4.91,0,0,0-1.56,3l-1.5.74Z" transform="translate(-475 -262)"/><path class="cls-3" d="M768.36,457.28c-.08-1.64,0-3.16,2.28-2.94-.17,1.14.52,2.68-1.39,3Z" transform="translate(-475 -262)"/><path class="cls-6" d="M731.71,502.24l-3,.75c.47-2,2-2.6,3.77-3l-.17,2.09A2.9,2.9,0,0,0,731.71,502.24Z" transform="translate(-475 -262)"/><path class="cls-2" d="M775.82,366.06c.46-1.68,1-3.31,2.92-3.89A4,4,0,0,1,775.82,366.06Z" transform="translate(-475 -262)"/><path class="cls-5" d="M798.3,330.93v-8.27A9.87,9.87,0,0,1,798.3,330.93Z" transform="translate(-475 -262)"/><path class="cls-3" d="M732.31,502.12c.06-.69.11-1.39.17-2.09l1.35-.91,1.56.06.15.16C735.08,501,734.26,502.21,732.31,502.12Z" transform="translate(-475 -262)"/><path class="cls-5" d="M776.64,378.1c-2.32-.78-2-2.85-2.27-4.64C776.09,374.53,776.11,376.45,776.64,378.1Z" transform="translate(-475 -262)"/><path class="cls-3" d="M763.15,464.88c0-1.33.8-1.6,1.89-1.53l1.13.07c0,1,0,2-1.31,2.23A1.61,1.61,0,0,0,763.15,464.88Z" transform="translate(-475 -262)"/><path class="cls-6" d="M766.17,463.42l-1.13-.07c.64-1.41.38-3.45,2.61-3.75C767.76,461.11,766.65,462.15,766.17,463.42Z" transform="translate(-475 -262)"/><path class="cls-6" d="M585.79,548.7c0,.73,0,1.46,0,2.19a2,2,0,0,0-.12.6l-1.28.24c-.1-.1-.21-.19-.33-.29C584.36,550.34,584,548.87,585.79,548.7Z" transform="translate(-475 -262)"/><path class="cls-5" d="M586.47,378a3.27,3.27,0,0,1-2.91,2.32C583.66,378.42,584.91,378,586.47,378Z" transform="translate(-475 -262)"/><path class="cls-5" d="M572.34,391.51a3.32,3.32,0,0,1-2.33,2.92C570.05,392.87,570.47,391.61,572.34,391.51Z" transform="translate(-475 -262)"/><path class="cls-5" d="M591.09,373.61a2.18,2.18,0,0,1-2.32,2.16A2.08,2.08,0,0,1,591.09,373.61Z" transform="translate(-475 -262)"/><path class="cls-5" d="M564.81,401.21c.16,1.31-.86,1.72-1.73,2.25C562,401.46,563.24,401.2,564.81,401.21Z" transform="translate(-475 -262)"/><path class="cls-2" d="M778.84,361.58a2.49,2.49,0,0,1,2.13-2.41C781.13,360.73,780.35,361.48,778.84,361.58Z" transform="translate(-475 -262)"/><path class="cls-5" d="M567.1,397.5l-.84,2.77-.75,0C565.62,399.12,565.26,397.68,567.1,397.5Z" transform="translate(-475 -262)"/><path class="cls-5" d="M798.31,322.68c-1.36-.58-1.59-1.72-1.5-3C798.16,320.24,798.36,321.4,798.31,322.68Z" transform="translate(-475 -262)"/><path class="cls-6" d="M532.53,481.31l1.23-.17c.42.9.53,1.74-.42,2.4l-.85-.84C532.51,482.23,532.52,481.77,532.53,481.31Z" transform="translate(-475 -262)"/><path class="cls-6" d="M763.15,464.88a1.61,1.61,0,0,1,1.71.77l-.93,1.53-.81-.1Z" transform="translate(-475 -262)"/><path class="cls-6" d="M794.58,337.66c-.07-1.23-.44-2.79,1.7-1.48C795.83,336.82,795.47,337.54,794.58,337.66Z" transform="translate(-475 -262)"/><path class="cls-3" d="M581.31,556.86l1.5-.74c0,1,0,2.09-1.36,2.3C581.4,557.9,581.35,557.38,581.31,556.86Z" transform="translate(-475 -262)"/><path class="cls-5" d="M796.09,318.23c-1.52-.11-1.56-1.18-1.52-2.31A2.5,2.5,0,0,1,796.09,318.23Z" transform="translate(-475 -262)"/><path class="cls-6" d="M768.36,457.28l.89.07c-.56.74-.64,1.83-1.62,2.27A2.44,2.44,0,0,1,768.36,457.28Z" transform="translate(-475 -262)"/><path class="cls-3" d="M584.41,551.73l1.28-.24c.16,1-.33,1.55-1.32,1.67C584.39,552.69,584.4,552.21,584.41,551.73Z" transform="translate(-475 -262)"/><path class="cls-5" d="M594.83,370.62a1.37,1.37,0,0,1-1.57,1.41A1.32,1.32,0,0,1,594.83,370.62Z" transform="translate(-475 -262)"/><path class="cls-5" d="M598.58,367.63a1.4,1.4,0,0,1-1.57,1.42A1.32,1.32,0,0,1,598.58,367.63Z" transform="translate(-475 -262)"/><path class="cls-5" d="M791.59,312.2a1.34,1.34,0,0,1-1.51-1.48Z" transform="translate(-475 -262)"/><path class="cls-5" d="M797.54,332.39a1.5,1.5,0,0,1,.78-1.49c0,.5,0,1,0,1.5l-.74,0Z" transform="translate(-475 -262)"/><path class="cls-5" d="M793.09,314.44a1.47,1.47,0,0,1-.77-1.51A1.54,1.54,0,0,1,793.09,314.44Z" transform="translate(-475 -262)"/><path class="cls-5" d="M770.62,453.69c0-.64.08-1.25.76-1.55A1.44,1.44,0,0,1,770.62,453.69Z" transform="translate(-475 -262)"/><path class="cls-5" d="M789.42,310.7a1.52,1.52,0,0,1-1.6-.77A1.73,1.73,0,0,1,789.42,310.7Z" transform="translate(-475 -262)"/><path class="cls-5" d="M794.58,315.94l-.76-.77Z" transform="translate(-475 -262)"/><path class="cls-5" d="M793.84,315.19l-.77-.76Z" transform="translate(-475 -262)"/><path class="cls-3" d="M781.06,418.46l-.72,0,.76-.74C781.09,418,781.07,418.21,781.06,418.46Z" transform="translate(-475 -262)"/><path class="cls-5" d="M792.34,313l-.77-.77Z" transform="translate(-475 -262)"/><path class="cls-5" d="M796.83,319.68c-.26-.29-.51-.59-.76-.89Z" transform="translate(-475 -262)"/><path class="cls-7" d="M732.68,485.86l-.94.77a3.67,3.67,0,0,0-2.57,2,1.29,1.29,0,0,0-1.17,1,1.86,1.86,0,0,0-1.79,1.3,1.21,1.21,0,0,0-1.21.91,2.07,2.07,0,0,0-1.85,1.32,7.12,7.12,0,0,0-3.42,2.25,5.6,5.6,0,0,0-3.45,2.19l-.29.07a2.42,2.42,0,0,0-2,1.35l-2.45,1.14a5.25,5.25,0,0,0-3.42,1.95l-1.06.3-2.91.82c-1.87-3-4.56-1.77-7-1.19-1.31.31-2.5,1-3.93,1-7.05,0-13.9,1.78-20.87,2.57-2.83.32-5.72-.14-8.48.7-7,2.15-14.31,2.17-21.45,3.2s-14.61,2.05-21.94,2.89c-2.72.32-5.52-.28-8.12.64-7.06,2.48-14.58,2.07-21.84,3.15s-14.28,2.55-21.57,2.93c-2.66.13-4.66.72-5-2.77-.11-1-1.07-1.3-2-1.37a75.27,75.27,0,0,1,10-26.09c2.94-4.82,5.68-9.84,10.13-13.57,1.5.87,2.41,3.11,4.71,2.08,1.79-.8,3.76-.18,5.51-.64,4.24-1.11,8.7,0,12.88-1.43,1.06,1.13,1.89,1.23,2.29-.51.15-.68-.07-1.61,1-1.68,4.19-.27,3.68-3.19,3.43-6l2.25-.06c.33,6.32,1.37,7.11,6.89,5.24,1,0,1.93,0,2.43-1.08,1.07,1.21,2,3.41,3.52.34l7.21-.14c3.57,2.62,5.47,2.28,7.68-1.35h1.64c.93,2.08,2.33,3.54,4.79,2.86s2.66-2.85,2.61-5a2.27,2.27,0,0,1,2.13-1.61,20.49,20.49,0,0,0,.14,2.21c.24,1.47-.83,4,.78,4.21,2.52.25.92-2.39,1.37-3.69.25-.72.33-1.51,1.3-1.39.71.09.79.77,1,1.36.46,1.3-1.13,3.91,1.26,3.72,1.77-.14.57-2.73.92-4.18,0-.24,0-.49.08-.73h2.42c.16,1.21.23,2.43.5,3.61s1.34,2,2.45,1.41c1.33-.68-.21-1.27-.36-1.94-.3-1.38-1.47-3.08.9-3.88l2.09,0c.07,1.59.13,3.19.23,4.79,0,.47.1,1,.75,1.06s1.31-.41,1.16-1c-.63-2.58,1.37-4.13,2.25-6.11l3.5-.13a10,10,0,0,0-1.57,2,3.68,3.68,0,0,0,1.08,4.69,3.34,3.34,0,0,0,4.16.09c1.59-1.06,1.75-2.71,1.31-4.32a9.41,9.41,0,0,0-1.6-2.44l4-.86c0,2.24.09,4.48.16,6.71,0,.81.28,1.5,1.28,1.4s.81-.81.83-1.41c.08-2.23.11-4.47.17-6.71a7.82,7.82,0,0,0,4.64-.89c1.05-.62,2.1-.87,2.8.53-.91,2.81.94,3.73,3,4.55.71.28,2,.43,1.57,1.59s-1.57.88-2.48.24c-.2-.14-.39-.31-.59-.45-.55-.36-1.18-.6-1.62.05s0,1.21.48,1.6a4.83,4.83,0,0,0,4.91.71,2.37,2.37,0,0,0,1.79-2.17c0-1.79-1.4-2.4-2.79-3.07-.78-.37-2.48-.26-2-1.62.57-1.59,1.72-.77,2.64,0,.63.51,1.53.75,1.89,0,.43-.92-.6-1.5-1.15-2.13,3.78-1.84,8-2.11,12-2.46,7.25-.64,14.39-2,21.6-2.87,3.19-.39,6.39.15,9.6-.82,5.08-1.53,10.33-2.66,15.65-.86l-2,4.28,0-.05a4.78,4.78,0,0,0-2.28,3.12l-.61.8a13.4,13.4,0,0,0-4,5.1l-.58.6c-1.35.49-1.81,2.27-3.41,2.4-.09-1.11-.24-2.22-.24-3.33,0-2.79-.57-4.87-4.07-3.69-.67.22-1.18-.12-1.77-.19-4.93-.6-5.69.18-5.17,5.23.09.82-.15,2,1.12,1.95s.89-1.2,1-2c.19-1.14-.54-3.11,1-3.15,2.08-.06.87,2.08,1.23,3.21a3.6,3.6,0,0,1,0,.74c0,.68.34,1.21,1.09,1.23s1-.58,1-1.23c0-.5,0-1,0-1.49.13-1-.46-2.62,1.24-2.55,1.34.06,1,1.52,1,2.43,0,1.75-.06,3.39,2.49,2.83l.51.89-.88,1.09a3.53,3.53,0,0,0-2.35,2.42l0-.05a3.09,3.09,0,0,0-2.28,2.29l0,0a4.17,4.17,0,0,0-2.52,2.31,1,1,0,0,0-1,.89A7.26,7.26,0,0,0,732.68,485.86Zm-5.2-15.34c1.14-1.3,3.78.85,3.83-2a2.79,2.79,0,0,0-2.44-2.9,3.41,3.41,0,0,0-4.14,2.33c-.68,1.88-.26,3.54,1.5,4.5s3.41,1.14,4.61-.87C729.85,470.27,728.21,472.43,727.48,470.52Zm-22.37-1.58c-.15-.28-.29-.6-.47-.9-.57-1-.44-3-2.2-2.27-1.47.62.08,1.91.19,2.89.21,1.85,2.31,3.47.69,5.51-.46.6-1.25,1.12-.26,1.72a1.42,1.42,0,0,0,1.94-.63,38.31,38.31,0,0,0,2.26-5.48c.4-1.3,2-3.31.64-3.91C705.61,464.89,706.35,468.07,705.11,468.94Zm11-1.68c-.7-2-2.34-1.95-3.89-1.45-2.79.91-.56,3.09-1,4.4-.82,2.33.31,2.59,1.84,2.82s2.87-.17,3.36-1.65c.58-1.78-.93-2.27-2.21-2.75-.55-.21-1.23-.24-1.07-1.12C714,466.55,715.15,468.69,716.09,467.26Zm7.1,5.07c-3-2.18-1.77-4.25-.72-6.32-1.15-.34-.83-2.27-2.15-2.2-1.14.05-1.73,1.57-1.7,2.15a28.32,28.32,0,0,0,1.15,6c.26.95,1.22,1.18,2.17,1A7.82,7.82,0,0,0,723.19,472.33Z" transform="translate(-475 -262)"/><path class="cls-8" d="M634.14,471.44l-7.21.14a2.57,2.57,0,0,1-.75-4.3c1.64-1.72-.61-1.66-.79-2.49a1,1,0,0,0-1.77-.41c-.62.64-1.44,1.56-.74,2.56,1,1.38.52,2.85.53,4.3-.5,1.05-1.45,1.09-2.43,1.08,0-1.37,0-2.74-.15-4.1-.09-1,.54-2.62-1.27-2.49-1.45.11-.71,1.58-.88,2.45-.22,1.12.46,3-1.27,3s-.77-2-1-3.06c-.1-.48,0-1-.08-1.49-.08-.79-.63-1-1.32-.94s-.75.84-.9,1.42l-2.25.06c-1.55-2-3.9-2-5.75-1.32s-.68,2.81-.83,4.3c-.18,1.72-.11,3.46-.15,5.19-4.18,1.44-8.64.32-12.88,1.43-1.75.46-3.72-.16-5.51.64-2.3,1-3.21-1.21-4.71-2.08,2.7-3.13,4.43-7.33,9.11-8.27,0,1.59,0,3.18.08,4.77,0,.68.3,1.16,1,1.21,1,.08,1.09-.73,1.28-1.42h2.6c.15.72.21,1.6,1.27,1.41,1.49-.26.83-1.53,1-2.4.24-1.06-.65-2.94,1.28-2.85,1.45.07.86,1.77,1,2.8.06.49,0,1,.06,1.48s.28.94.88,1a1.11,1.11,0,0,0,1.14-.73c1.5-3-.88-6.45-4.2-6.6-4.16-.19-1.56,3-2.45,4.4h-2.6c-.09-2.24-.17-4.48-.26-6.72a152.22,152.22,0,0,1,35.31-23.41c1.5-.71,3.78-.85,4.38-3.05,7.06,6.76,16.35,5.74,23,1.26,5.37-3.6,5.38-4.38.81-8.9-.17-.18-.36-.34-.54-.51a32.52,32.52,0,0,1,8.48-3.13c.14.47.3.93.42,1.41,1.88,7.58,6.6,12.56,14.13,14.41,7.11,1.76,15-1.8,19.33-8.28,4.56-6.78,4.63-13.9,1.48-21.23,2-1.28,3.95-2.75,6.34-3.32,1.61.23,3,.3,3,2.73-.18,6.59,0,13.19-.09,19.78,0,.79.38,1.93-.82,2.19-3.91.82-1.88,3.84-1.84,5.72.06,2.15,2.36,1.09,3.66,1.19a59.9,59.9,0,0,0,7.09,0c1.08,0,2.83.73,3-1.19s.89-4.9-.46-5.21c-3.44-.8-2.22-3.08-2.3-4.89-.15-3.47-.11-7,0-10.44.09-4-1.29-8.41,3-11.26,1.74.17,3,1.75,4.91,1.5q.06,14,.14,28c0,2.12-.75,4.53,3.09,4.26,4.58-.32,5.1-.5,5.11-4.67V416.57c1.17,1.29,1.86,1.92,2.4,2.66,4.85,6.64,9.74,13.24,14.47,19.95,2.47,3.51,5.44,1.07,8.12.85,2.3-.19,1.14-2.42,1.17-3.67.17-6.47.15-12.94.19-19.41,3.74-.43,7.29-2.25,11.19-1.47,0,1.49,0,3,.05,4.47a12.06,12.06,0,0,0-.33,4.71,1.55,1.55,0,0,0-.8,2c-.11.76-.22,1.53-.32,2.29a3.23,3.23,0,0,0-.89,2.94c0,.37-.1.75-.14,1.12a2.35,2.35,0,0,0-1,2.63c-.11.5-.21,1-.32,1.5a1.27,1.27,0,0,0-.74,1.48l-.18,1.12c-.65.46-1.19,1-.91,1.89-.49,1.1-1.45,2-1.33,3.36-1.24,1.09-1.63,2.62-2.09,4.11-.34.81-.68,1.63-1,2.44a3.19,3.19,0,0,0-1.68,2.81l-.51,1-1.68,1.38c-5.32-1.8-10.57-.67-15.65.86-3.21,1-6.41.43-9.6.82-7.21.87-14.35,2.23-21.6,2.87-4,.35-8.22.62-12,2.46a5.81,5.81,0,0,0-5.7.73c-.7-1.4-1.75-1.15-2.8-.53a7.82,7.82,0,0,1-4.64.89c-.33-.77.31-2.19-1.19-2.17s-1,1.36-1.25,2.18l-4,.86-3.38-.05-3.5.13c-1.47.41-3.59-1.39-4.39,1.3l-2.09,0c-.53-1.44-1-3.51-2.78-3a2.39,2.39,0,0,0-.71,3.83h-2.42c-1.66-3.36-4.25-2.46-6.85-1.51a2.27,2.27,0,0,0-2.13,1.6c-1.1-1.64-2.44-2.87-4.62-2.22s-2.66,2.4-2.78,4.37h-1.64c-1-.82-1.65-.24-2.55.38-2,1.33-3.29.72-3.41-1.76-.05-1.07-.31-2.32.8-3a2.09,2.09,0,0,1,3,.58c.56.63,1.31.91,1.84.15.4-.57-.26-1.09-.63-1.57-1.23-1.62-3-1.76-4.69-1.36s-2.44,1.86-2.5,3.61A9.16,9.16,0,0,0,634.14,471.44Z" transform="translate(-475 -262)"/><path class="cls-9" d="M588,392.72l.57-.55c1.23.1,1.78-.48,1.68-1.69l.57-.56c1.46-.22,2.92-.46,4.39-.65,9.19-1.16,18.38-2.28,27.57-3.47,8.08-1.05,16.15-2.21,24.24-3.25,7.35-.95,14.72-1.74,22.06-2.71,9.67-1.29,19.33-2.73,29-4s19.09-2.62,28.66-3.6c5.32-.55,10.25-2.74,15.55-3.13a149.44,149.44,0,0,1-17.33,16,129.09,129.09,0,0,1-31.56,19.3c-3.57-1.8-7.25-3.11-11.35-2.71-9,.89-14,6.44-17,14.43-4.81,1.51-9.73,2.73-14.38,4.61s-10,2.61-14,6.21C634,423.41,634.68,417,638,413.3a10.36,10.36,0,0,1,14.15-1.5c3.81,2.68,3.83-1.42,5.38-2.62,2-1.56.5-2.69-.83-3.75A18.12,18.12,0,0,0,631,409.17c-4.9,6.59-5,13.77-2.57,21.25-2.12.67-4.5.82-5.91,2.92-2,.32-2.59-.54-2.56-2.48.09-6.46,0-12.93,0-19.39,0-1-.23-2.07,1-2.52,3.19-1.16,1.51-3.84,1.47-5.7-.05-2.3-2.34-1.09-3.61-1.21a45.54,45.54,0,0,0-6.71,0c-1.1.06-2.82-.77-3.13,1s-1,4.7.32,5.28c3.26,1.42,2,3.86,2.12,5.92.17,4,0,8,.07,11.93.08,3.31.55,6.66-2.88,8.77-1.87.28-3.34-.76-4.9-1.49,2-8-.27-12-8.17-14.27-3-.87-5.95-1.74-8.89-2.75-1.46-.5-2.66-1.38-2.49-3.26a3.92,3.92,0,0,1,2.87-3.55,8.6,8.6,0,0,1,8.42,1.49c3.12,2.34,4.73-1.1,6.43-2.46s-.59-2.55-1.61-3.39c-4.5-3.67-9.66-4.43-15.12-2.84s-10,6.77-9.78,11.46c.18,4,2,8.65,9.19,10.46a81.63,81.63,0,0,1,8.39,2.5c1.14.41,2.73.77,2.57,2.66s-1.27,2.61-2.69,3.26a8,8,0,0,1-9.5-2.11c-.69-.81-1-2.17-2.5-1.45-1.84.92-4.43,1.54-5.24,3.06-1,1.84,1.48,3.35,2.74,4.82.24.28.46.58.69.87-7.32,2-14.73,3.41-22.39,3l-.45-.65a2.49,2.49,0,0,1,.84-2.35c1.54-.67,1.78-2,1.69-3.44,3.37-9.41,9.07-17.46,14.86-25.44a73.56,73.56,0,0,1,10.59-12.32c1.2,0,1.64-.62,1.52-1.75l.56-.54C587.49,394.51,588.06,394,588,392.72Z" transform="translate(-475 -262)"/><path class="cls-10" d="M742.25,369.09c-5.31.39-10.24,2.58-15.56,3.13-9.57,1-19.12,2.32-28.66,3.6s-19.33,2.73-29,4c-7.34,1-14.71,1.76-22.06,2.71-8.09,1-16.16,2.2-24.24,3.25-9.19,1.19-18.38,2.31-27.57,3.47-1.47.19-2.93.43-4.39.65,4-4.95,9.15-8.74,14.09-12.67,15.88-12.65,33.16-22.73,52.81-28.48,21.37-6.26,42.72-5.48,64.16-.44,10.17,2.4,20,5.79,30,8.93.43,2.19-.61,3.79-2,5.31A53.21,53.21,0,0,1,742.25,369.09Z" transform="translate(-475 -262)"/><path class="cls-11" d="M561.9,515c.93.07,1.89.41,2,1.37.38,3.49,2.38,2.9,5,2.77,7.29-.38,14.44-1.87,21.57-2.93s14.78-.67,21.84-3.15c2.6-.92,5.4-.32,8.12-.64,7.33-.84,14.67-1.84,21.94-2.89s14.47-1.05,21.45-3.2c2.76-.84,5.65-.38,8.48-.7,7-.79,13.82-2.55,20.87-2.57,1.43,0,2.62-.67,3.93-1,2.42-.58,5.11-1.78,7,1.19-.18.37-.36.74-.55,1.11l-1,.23c-1.55.35-3.15.62-4.2,2l-1,.17c-1.56.35-3.2.5-4.37,1.8-.59,0-1.19-.11-1.6.47a7.73,7.73,0,0,0-5.14,1.75,3.47,3.47,0,0,0-2.35.64c-1.3,0-2.72-.46-3.49,1.13l-2.62-.06c-.75-.76-1.11-.32-1.37.44l-2.33.43c-1.11-1-1.83-.77-2.14.7l-3.88.69c-.91-.78-1.64-.72-2.12.46l-2.35.36c-1.2-.8-2.28-1.12-2.88.66l-4.51,1.14-1.55-.41c-.91-.66-1.69-.75-2.18.48l-2.25.65-1.55-.27c-1.4-.75-2.78-1.38-3.67.67a22,22,0,0,1-6.9.7c-1.3-.56-2.59-1.1-3.59.49l-2.25.61-2.29-.24c-1.18-.76-2.28-1.15-2.93.61a24.75,24.75,0,0,1-6.91.74c-1.09-.61-2.11-.86-2.83.53l-1.5.64-1.55-.29c-1.22-.75-2.36-1.15-2.92.74a8.76,8.76,0,0,1-3.92.61c-.94-.66-1.66-.58-2.08.59l-.75.58L603,524.6c-1-1-1.28-.34-1.44.62l-.75.63c-4.13.67-8.16,1.54-11.11,4.89l-.06.13c-6.5,3-10.28,8.35-12.9,14.74a2.48,2.48,0,0,0-1.31,2.31,1.47,1.47,0,0,0-.84,1.47l-.17.15.06.22c-1.4,1-1.77,2.56-2.09,4.12-.59,1-1.5,1.75-1.44,3a1.5,1.5,0,0,0-.77,1.47l-1.77,2.28c-.91.05-1.27.59-1.24,1.45-2.57,1.74-2.92-.77-3.92-2,0-1.45-.24-2.78-2-3.16l-1-2.09c.1-1.08.34-2.23-1.27-2.4-.11-.36-.22-.72-.32-1.07.23-.94.15-1.73-1-1.94-.14-.42-.27-.84-.41-1.26-.55-2.75-.87-5.59-3-7.73-.16-.53-.31-1.06-.46-1.59.17-1.7.55-3.48-1.5-4.42-.28-.5-.56-1-.83-1.49,0-.51.11-1,.16-1.54.8-.9.3-1.26-.61-1.44l-.27-1.57c1.34-1.62.08-2.61-.9-3.66a3.21,3.21,0,0,1-.4-2.4c.65-1.19,1-2.28-.76-2.84-.07-.52-.13-1-.2-1.56,1-.8.56-1.93.66-2.94,4,.74,7.31-.78,10.44-3a39.48,39.48,0,0,0,.38,16Z" transform="translate(-475 -262)"/><path class="cls-9" d="M771.43,415.48c-3.9-.78-7.45,1-11.19,1.47,0-4-.34-8,0-12,.25-3.52-1.88-3.1-4-3s-4.55-1-4.39,2.94c.28,7,.08,14.09.08,22.06-1.47-1.87-2.38-3-3.23-4.12-4.5-6.13-9.19-12.13-13.39-18.46-2.32-3.48-5.52-2.7-8.31-2.24s-.75,3.35-1.28,5.06a6.67,6.67,0,0,0-.14,1.49c-1.87.25-3.17-1.33-4.91-1.5l-.18-5.16c0-.76,0-1.51,0-2.27,11.09-7.36,20.76-16.52,31.17-24.75,3.39-2.69,5.73-7,10.69-7.47.92,6.5,4.9,11.84,6.84,18a2.07,2.07,0,0,0,.79,2.2c.07.51.15,1,.23,1.53a1.63,1.63,0,0,0,.9,2.05,12.78,12.78,0,0,0,.32,4.69c0,1.77-.25,3.58.76,5.21q0,7.13-.05,14.26A5.77,5.77,0,0,1,771.43,415.48Z" transform="translate(-475 -262)"/><path class="cls-8" d="M556.65,440.9c7.66.42,15.07-.95,22.39-3,9.66,5.47,18.3,3.9,24.69-4.5,1.56.73,3,1.77,4.9,1.49.08,1.76.15,3.51.23,5.26-4.1,3-8.62,5.33-12.57,8.57a132.4,132.4,0,0,0-18.7,19.1c-2,.19-3.39,1.44-4.69,2.81a5.06,5.06,0,0,1-3.18,1.72c-7.33.91-14.65,2-22,3-.54-2,.64-3.81.45-5.75a10.67,10.67,0,0,1,.46-4.73c1.72-.53,1.39-1.65.83-2.85-.29-2.46.84-4.61,1.47-6.88,1.3-.31,1.44-1.06.78-2.1-.14-2,1-3.59,1.5-5.38.81-.18,1.43-.45.68-1.38-.14-1.75.85-3.12,1.53-4.6Z" transform="translate(-475 -262)"/><path class="cls-12" d="M762.36,367.57c-5,.46-7.3,4.78-10.69,7.47-10.41,8.23-20.08,17.39-31.17,24.75a2,2,0,0,0-1.49,2.13c-2.1,0-4.21,0-6.32.06-6.9.21-6.37-1.64-6.24,6.61-2.39.57-4.32,2-6.34,3.32a34.61,34.61,0,0,0-6.76-7.48,129.09,129.09,0,0,0,31.56-19.3,149.44,149.44,0,0,0,17.33-16,52.75,52.75,0,0,0,7.56-6.52c1.41-1.52,2.45-3.12,2-5.31,2.34.19,4-1.06,5.58-2.55,9.55-8.91,17-19.15,20.34-32,.52-2,1-4.56,3.48-4.81s4.06,1.52,5.44,3.42c3.46,4.77,3.5,5.31,0,10.15q-10.1,14.12-20.24,28.21A24,24,0,0,0,762.36,367.57Z" transform="translate(-475 -262)"/><path class="cls-7" d="M547.75,475.32c7.32-1,14.64-2.05,22-3a5.06,5.06,0,0,0,3.18-1.72c1.3-1.37,2.68-2.62,4.69-2.81a10.73,10.73,0,0,1-.91,2,93.94,93.94,0,0,0-16.35,37.68c-1.06.1-1.93.49-2.08,1.67-.13,1,.56,1.23,1.35,1.33l0,1.49c-3.13,2.22-6.46,3.74-10.44,3-1.24-.62-.17-2.46-1.59-3-.23-.76-.46-1.51-.7-2.26.1-.76.21-1.53.31-2.29.41-2.06,1.53-4.2-.72-5.93-.57-2.5-.29-5-.21-7.54a3.48,3.48,0,0,0,0-4.4,30,30,0,0,1,.19-7.52C549,480.23,547,477.49,547.75,475.32Z" transform="translate(-475 -262)"/><path class="cls-4" d="M733.83,499.12l-1.35.91c-1.75.36-3.3,1-3.77,3a6.37,6.37,0,0,0-.61.23c-1.13-.3-1.64.16-1.6,1.29h0c-1.16-.12-2.25-.14-2.24,1.49h0c-1.16-.12-2.26-.16-2.24,1.49h0c-2-.09-3.66.38-4,2.77l-3,1.12c0-.19-.11-.37-.18-.56v.59l-.16.23c-2.49,0-4.68.5-5.37,3.37l-3.71,1.63a3,3,0,0,0-3.33,1.76l-3.4,1.24c-1.62,0-3.16.17-4.08,1.77l-1.91.47a20.4,20.4,0,0,0-8.33,2.84l-1.35.26c-.7-.3-1.29-.24-1.64.53l-1.36.21a4.34,4.34,0,0,0-3.88,1.25l-1.36.25c-.93-.41-1.51,0-1.91.82l-1.17.14c-.07-.5-.4-1.22-.78-1-3.06,1.64-6.75,1.13-9.72,3l-1.36.16a13,13,0,0,0-7.62,1.34l-1.38.1c-1.35-.17-2.79-.87-3.86.64l-1.37.11c-.88-.31-1.73-.48-2.44.36L621.8,535.3c-1.32,0-2.76-.76-3.81.69l-1.36.23c-1.1-.16-2.27-.77-3.13.51l-2.1.28c-.69-.36-1.27-.31-1.64.47l-2.1.26c-.68-.28-1.28-.31-1.65.48l-1.36.22a10.18,10.18,0,0,0-6.85,2.14c-3.16.56-5.55,2.51-8,4.4-.73.57-1.28,2.24-2.6.66,3.32-4.55,7.32-8.22,12.8-10,.64.2,1.18.16,1.48-.55.81-.07,1.76.37,2.27-.67.58-.12,1.26-.07,1.47-.84l8.25-1.58c1-.06,2.18.34,2.93-.76l3.81-.35c1.28.39,2.59,1,3.61-.52,1.86.37,3.71.68,5.36-.64,1.23-.27,2.7.81,3.71-.66l3.19-.22c1,1.3,1.73,1.23,2.28-.33l9.53-1.06a1.39,1.39,0,0,0,1.54-.43c4.56,0,8.91-1.45,13.42-1.76.82,0,1.7.2,2.19-.75l3.8,0c.82,0,1.71.28,2.18-.73a3.15,3.15,0,0,0,3.06-.73c1.27,0,2.69.41,3.39-1.19,2,.3,3.7-.86,5.59-1a1.71,1.71,0,0,0,2-1.17c4.38,0,8.16-2.23,12.23-3.38,1.05.3,1.53-.35,1.93-1.15,9.89-2.77,18.62-7.94,27.15-13.43a114.54,114.54,0,0,0,17.2-13.6,6.63,6.63,0,0,1,1.63-.85c.82,1.65-.81,2.17-1.44,3.14l-.73.69-2.72,3.19c-1.83.26-2.68,1.91-4,2.82C734.69,496.87,734.09,497.79,733.83,499.12Z" transform="translate(-475 -262)"/><path class="cls-13" d="M559.94,575.29l-2.44-.81c-.39-1.63-.65-3.39-3.06-2.85l-1.7-1-5.88-11.46c.11-.23.21-.47.32-.7.31-1.67.19-3.15-1.72-3.83-.17-.59-.35-1.19-.52-1.79a3.62,3.62,0,0,0-1.37-4.2l-.53-1.37c.16-1.1.25-2.16-1.24-2.41l-.36.17c.08-.53.15-1.07.22-1.6.64-2.38-.43-4.25-1.8-6l-.08-1.14c.46-1.05.13-1.67-1-1.87l-.36.17c.09-.53.17-1.07.26-1.6a3.87,3.87,0,0,0-1.07-4.54c0-.38-.07-.76-.1-1.14.39-1.24.81-2.49-.66-3.36l-.06-1.13a1.25,1.25,0,0,0-.66-1.89l-.1-1.12c.3-1.69,1.1-3.46-.72-4.84l0-1.14c.51-2.48,1-5-.64-7.26l-.1-1c.83-5.93.11-11.9.4-17.84.06-1.22-.71-2.89,1.34-3.36,0,2.85.06,5.71.13,8.56.1,4.13-.36,8.3.7,12.38l.27,3c-.05,1.28-.52,2.63.49,3.77l.34,4.45a9.64,9.64,0,0,0,1.19,4.52l.21,2.22c-.08.82-.36,1.68.54,2.27l.28,2.22,1.86,6.8a21.11,21.11,0,0,0,1.79,5.92c-.09.6-.22,1.21.5,1.54,0,1.93,1.15,3.47,1.77,5.19,1.22,4,2.44,8,5,11.4a.57.57,0,0,0,.28.57,4.81,4.81,0,0,0,1.93,3.83c.2.75-.29,1.78.88,2.13l.74.78c0,1.11.36,1.92,1.57,2.12l.06.06c.14,2.46,2.11,3.38,3.8,4.55.86.59,2.18.76,2,2.25Z" transform="translate(-475 -262)"/><path class="cls-4" d="M755.47,341.3c3.33-5.55,7.11-10.85,9-17.16a4.31,4.31,0,0,0,1.36-3.83c.94-1.95,1.44-4.16,3.35-5.52a1.12,1.12,0,0,1,.72,1.48c-3,9.68-6.58,19.06-14.19,26.25C755.6,342.11,755.54,341.71,755.47,341.3Z" transform="translate(-475 -262)"/><path class="cls-3" d="M537.09,505.28c-1.06-4.08-.6-8.25-.7-12.38-.07-2.85-.09-5.71-.13-8.56l.78-1.6c1,.66.87,1.7.87,2.68q0,8.58,0,17.15C537.91,503.55,538.07,504.59,537.09,505.28Z" transform="translate(-475 -262)"/><path class="cls-3" d="M576.72,545.61c2.62-6.39,6.4-11.76,12.9-14.74-3,3.59-6.44,6.73-9.35,10.4C579.13,542.71,579.38,545.43,576.72,545.61Z" transform="translate(-475 -262)"/><path class="cls-6" d="M758.63,473.07a23.13,23.13,0,0,1-7.22,9l-1.08-.14C752.76,478.64,754.65,474.88,758.63,473.07Z" transform="translate(-475 -262)"/><path class="cls-3" d="M589.68,530.74c3-3.35,7-4.22,11.11-4.89C597.51,528.43,593.64,529.68,589.68,530.74Z" transform="translate(-475 -262)"/><path class="cls-3" d="M551.32,558.53c-2.55-3.41-3.77-7.41-5-11.4A19.87,19.87,0,0,1,551.32,558.53Z" transform="translate(-475 -262)"/><path class="cls-10" d="M547.75,475.32c-.8,2.17,1.26,4.91-1.33,6.73a31.33,31.33,0,0,1,1.78-12.48C548.39,471.51,547.21,473.35,547.75,475.32Z" transform="translate(-475 -262)"/><path class="cls-4" d="M750.33,481.9l1.08.14-2.51,3-.61.83c-.86.89-1.48,2.32-3.14,1.44C746.32,485,748.31,483.42,750.33,481.9Z" transform="translate(-475 -262)"/><path class="cls-6" d="M755.47,341.3c.07.41.13.81.2,1.22-1.06,2-2.06,4.09-4.82,4.14C752.06,344.58,753.06,342.33,755.47,341.3Z" transform="translate(-475 -262)"/><path class="cls-10" d="M554.24,540.42c2.12,2.14,2.44,5,3,7.73A17.35,17.35,0,0,1,554.24,540.42Z" transform="translate(-475 -262)"/><path class="cls-10" d="M546.43,501.51c2.25,1.73,1.13,3.87.72,5.93l-.78-.08Z" transform="translate(-475 -262)"/><path class="cls-3" d="M542.27,534.48l-1.86-6.8C542.11,529.65,543.71,531.65,542.27,534.48Z" transform="translate(-475 -262)"/><path class="cls-10" d="M547.54,512c1.42.52.35,2.36,1.59,3-.1,1,.35,2.14-.66,2.94A11,11,0,0,1,547.54,512Z" transform="translate(-475 -262)"/><path class="cls-3" d="M748.66,470a13.4,13.4,0,0,1,4-5.1A5.27,5.27,0,0,1,748.66,470Z" transform="translate(-475 -262)"/><path class="cls-3" d="M686.18,510.77a7.73,7.73,0,0,1,5.14-1.75C690.13,511.15,688.2,511.1,686.18,510.77Z" transform="translate(-475 -262)"/><path class="cls-3" d="M757.52,456.73l1.68-1.38c-.67,2.25-1,4.7-3.69,5.66Z" transform="translate(-475 -262)"/><path class="cls-3" d="M772.2,401.21c-1-1.63-.77-3.44-.76-5.21C773.85,397.42,773.05,399.31,772.2,401.21Z" transform="translate(-475 -262)"/><path class="cls-3" d="M771.43,415.48a5.77,5.77,0,0,0,.72,0c.81,1.65,1.74,3.31-.67,4.48C771.47,418.46,771.45,417,771.43,415.48Z" transform="translate(-475 -262)"/><path class="cls-10" d="M546.23,489.57a3.48,3.48,0,0,1,0,4.4A5.28,5.28,0,0,1,546.23,489.57Z" transform="translate(-475 -262)"/><path class="cls-3" d="M553.53,562.93a4.81,4.81,0,0,1-1.93-3.83c2.11.42,2.46,2.1,2.74,3.83Z" transform="translate(-475 -262)"/><path class="cls-3" d="M539.38,521a9.64,9.64,0,0,1-1.19-4.52C540.09,517.56,540.92,519,539.38,521Z" transform="translate(-475 -262)"/><path class="cls-3" d="M745.19,473.87l-.51-.89h0c1.6-.13,2.06-1.91,3.41-2.4C748.12,472.56,747,473.54,745.19,473.87Z" transform="translate(-475 -262)"/><path class="cls-3" d="M692.92,508.55c1.17-1.3,2.81-1.45,4.37-1.8C696.57,509.13,694.53,508.31,692.92,508.55Z" transform="translate(-475 -262)"/><path class="cls-10" d="M549.83,524.71c1,1,2.24,2,.9,3.66A3.81,3.81,0,0,1,549.83,524.71Z" transform="translate(-475 -262)"/><path class="cls-10" d="M552.28,534.41c2.05.94,1.67,2.72,1.5,4.42C552.53,537.61,552.52,536,552.28,534.41Z" transform="translate(-475 -262)"/><path class="cls-3" d="M732.68,485.86a7.26,7.26,0,0,1,3.51-3.08C736,484.86,734.67,485.76,732.68,485.86Z" transform="translate(-475 -262)"/><path class="cls-3" d="M632.9,529.07c-1,1.47-2.48.39-3.71.66C630.1,527.67,631.47,528.21,632.9,529.07Z" transform="translate(-475 -262)"/><path class="cls-3" d="M537.85,512c-1-1.14-.54-2.49-.49-3.77C539.45,509.23,539,510.57,537.85,512Z" transform="translate(-475 -262)"/><path class="cls-3" d="M623.83,530.37c-1,1.48-2.33.91-3.61.52C621.22,529.35,622.51,529.78,623.83,530.37Z" transform="translate(-475 -262)"/><path class="cls-10" d="M634.45,519.67c1-1.59,2.29-1,3.59-.49A3.51,3.51,0,0,1,634.45,519.67Z" transform="translate(-475 -262)"/><path class="cls-10" d="M644.94,518.48c.89-2.05,2.27-1.42,3.67-.67a3.52,3.52,0,0,0-.1.65Z" transform="translate(-475 -262)"/><path class="cls-3" d="M537.39,476.07c0-1.28-.44-2.61.45-3.78C539,473.71,539.43,475,537.39,476.07Z" transform="translate(-475 -262)"/><path class="cls-3" d="M572.37,553.88c.32-1.56.69-3.1,2.09-4.12C574.23,551.37,574.49,553.23,572.37,553.88Z" transform="translate(-475 -262)"/><path class="cls-3" d="M698.33,506.58c1-1.39,2.65-1.66,4.2-2C701.81,506.65,700,506.42,698.33,506.58Z" transform="translate(-475 -262)"/><path class="cls-3" d="M762.42,449.13c.46-1.49.85-3,2.09-4.11C764.28,446.62,764.54,448.48,762.42,449.13Z" transform="translate(-475 -262)"/><path class="cls-3" d="M716.28,497.6a5.6,5.6,0,0,1,3.45-2.19C719.42,497.46,717.94,497.67,716.28,497.6Z" transform="translate(-475 -262)"/><path class="cls-3" d="M708.09,502.11a5.25,5.25,0,0,1,3.42-1.95C711,502,709.63,502.16,708.09,502.11Z" transform="translate(-475 -262)"/><path class="cls-10" d="M611.27,523c.56-1.89,1.7-1.49,2.92-.74-.05.21-.09.42-.12.64Z" transform="translate(-475 -262)"/><path class="cls-3" d="M703.57,504.34c.19-.37.37-.74.55-1.11l2.91-.82C706.53,504.23,705.13,504.42,703.57,504.34Z" transform="translate(-475 -262)"/><path class="cls-3" d="M680.34,512.54c.77-1.59,2.19-1.16,3.49-1.13C683.21,513.46,681.63,512.55,680.34,512.54Z" transform="translate(-475 -262)"/><path class="cls-10" d="M660.65,516.22c.6-1.78,1.68-1.46,2.88-.66A3.2,3.2,0,0,1,660.65,516.22Z" transform="translate(-475 -262)"/><path class="cls-10" d="M548.67,519.47c1.72.56,1.41,1.65.76,2.84C548.38,521.58,548.48,520.54,548.67,519.47Z" transform="translate(-475 -262)"/><path class="cls-10" d="M627,520.65c.65-1.76,1.75-1.37,2.93-.61a3.53,3.53,0,0,0-.11.65Z" transform="translate(-475 -262)"/><path class="cls-10" d="M617.24,521.92c.72-1.39,1.74-1.14,2.83-.53C619.28,522.38,618.27,522.19,617.24,521.92Z" transform="translate(-475 -262)"/><path class="cls-3" d="M677.48,521.85c-.7,1.6-2.12,1.19-3.39,1.19C674.65,521,676.22,521.87,677.48,521.85Z" transform="translate(-475 -262)"/><path class="cls-3" d="M616.41,531.24c-.75,1.1-1.9.7-2.93.76C614.05,530.17,615.16,530.43,616.41,531.24Z" transform="translate(-475 -262)"/><path class="cls-10" d="M561.26,556.91c1.73.38,2,1.71,2,3.16A4.67,4.67,0,0,1,561.26,556.91Z" transform="translate(-475 -262)"/><path class="cls-3" d="M769.14,431.92A3.23,3.23,0,0,1,770,429C770.88,430.31,771.14,431.45,769.14,431.92Z" transform="translate(-475 -262)"/><path class="cls-10" d="M558.73,434.46c.09,1.46-.15,2.77-1.69,3.44A4.28,4.28,0,0,1,558.73,434.46Z" transform="translate(-475 -262)"/><path class="cls-3" d="M753.27,464.08a4.78,4.78,0,0,1,2.28-3.12C755.48,462.5,755.2,463.89,753.27,464.08Z" transform="translate(-475 -262)"/><path class="cls-10" d="M549.49,462c.56,1.2.89,2.32-.83,2.85C548.55,463.78,548.47,462.73,549.49,462Z" transform="translate(-475 -262)"/><path class="cls-6" d="M760.88,470.07c0,.5,0,1,0,1.51l-2.25,1.47C758.52,471.41,758.82,470.08,760.88,470.07Z" transform="translate(-475 -262)"/><path class="cls-3" d="M729.17,488.67a3.67,3.67,0,0,1,2.57-2A2.05,2.05,0,0,1,729.17,488.67Z" transform="translate(-475 -262)"/><path class="cls-3" d="M739.72,479.62a3.09,3.09,0,0,1,2.28-2.29C742.2,479.06,741.44,479.82,739.72,479.62Z" transform="translate(-475 -262)"/><path class="cls-3" d="M737.24,481.89a4.17,4.17,0,0,1,2.52-2.31C740,481.49,739,482.08,737.24,481.89Z" transform="translate(-475 -262)"/><path class="cls-3" d="M759.71,454.38a3.19,3.19,0,0,1,1.68-2.81C761.78,453.08,761.28,454.05,759.71,454.38Z" transform="translate(-475 -262)"/><path class="cls-3" d="M742,477.38a3.53,3.53,0,0,1,2.35-2.42C744.43,476.65,743.8,477.6,742,477.38Z" transform="translate(-475 -262)"/><path class="cls-3" d="M540.13,525.46c-.9-.59-.62-1.45-.54-2.27Q541.93,523.84,540.13,525.46Z" transform="translate(-475 -262)"/><path class="cls-3" d="M770,387.73a2.07,2.07,0,0,1-.79-2.2C770.7,385.82,771,386.52,770,387.73Z" transform="translate(-475 -262)"/><path class="cls-10" d="M605.27,524.21c.42-1.17,1.14-1.25,2.08-.59C606.84,524.48,606.09,524.46,605.27,524.21Z" transform="translate(-475 -262)"/><path class="cls-3" d="M546.37,507.36l.78.08c-.1.76-.21,1.53-.31,2.29C545.05,509.27,545,508.45,546.37,507.36Z" transform="translate(-475 -262)"/><path class="cls-3" d="M768,435.67a2.35,2.35,0,0,1,1-2.63C769.07,434.08,769.48,435.24,768,435.67Z" transform="translate(-475 -262)"/><path class="cls-3" d="M638.37,528.52c-.55,1.56-1.32,1.63-2.28.33C636.78,528.24,637.59,528.45,638.37,528.52Z" transform="translate(-475 -262)"/><path class="cls-10" d="M551.74,453c.66,1,.52,1.79-.78,2.1A1.86,1.86,0,0,1,551.74,453Z" transform="translate(-475 -262)"/><path class="cls-3" d="M629.8,520.69a3.53,3.53,0,0,1,.11-.65l2.29.24C631.69,522.11,630.86,522.07,629.8,520.69Z" transform="translate(-475 -262)"/><path class="cls-3" d="M671,523.77c-.47,1-1.36.76-2.18.73C669.19,523.09,669.9,522.81,671,523.77Z" transform="translate(-475 -262)"/><path class="cls-10" d="M665.88,515.2c.48-1.18,1.21-1.24,2.12-.46C667.44,515.59,666.68,515.52,665.88,515.2Z" transform="translate(-475 -262)"/><path class="cls-10" d="M671.88,514.05c.31-1.47,1-1.69,2.14-.7A1.93,1.93,0,0,1,671.88,514.05Z" transform="translate(-475 -262)"/><path class="cls-10" d="M652.41,517.43c.49-1.23,1.27-1.14,2.18-.48l-.09.75Z" transform="translate(-475 -262)"/><path class="cls-3" d="M539.61,461.86c0-.8-.26-1.63.37-2.33C541.31,460.53,541.26,461.32,539.61,461.86Z" transform="translate(-475 -262)"/><path class="cls-3" d="M665.05,524.52c-.49,1-1.37.74-2.19.75C663.19,523.84,663.91,523.57,665.05,524.52Z" transform="translate(-475 -262)"/><path class="cls-6" d="M762.37,467.82a2,2,0,0,1-1.49,2.24C760.77,468.91,760.77,467.83,762.37,467.82Z" transform="translate(-475 -262)"/><path class="cls-10" d="M559,552.42c1.61.17,1.37,1.32,1.27,2.4A3.22,3.22,0,0,1,559,552.42Z" transform="translate(-475 -262)"/><path class="cls-6" d="M556.72,568c-1.21-.2-1.59-1-1.57-2.12C556.55,565.9,556.71,566.88,556.72,568Z" transform="translate(-475 -262)"/><path class="cls-3" d="M654.5,517.7l.09-.75,1.55.41C655.85,518.68,655.34,519,654.5,517.7Z" transform="translate(-475 -262)"/><path class="cls-3" d="M648.51,518.46a3.52,3.52,0,0,1,.1-.65l1.55.27C649.88,519.37,649.4,519.79,648.51,518.46Z" transform="translate(-475 -262)"/><path class="cls-3" d="M714,499a2.42,2.42,0,0,1,2-1.35C715.89,499,715.13,499.32,714,499Z" transform="translate(-475 -262)"/><path class="cls-3" d="M685.05,519.66a1.71,1.71,0,0,1-2,1.17C683.24,519.62,684,519.42,685.05,519.66Z" transform="translate(-475 -262)"/><path class="cls-3" d="M614.07,522.91c0-.22.07-.43.12-.64l1.55.29C615.44,523.93,614.93,524.23,614.07,522.91Z" transform="translate(-475 -262)"/><path class="cls-10" d="M601.54,525.22c.16-1,.46-1.59,1.44-.62a3.48,3.48,0,0,0,0,.72Z" transform="translate(-475 -262)"/><path class="cls-3" d="M602.94,525.32a3.48,3.48,0,0,1,0-.72l1.54.19C604.31,525.89,604,526.55,602.94,525.32Z" transform="translate(-475 -262)"/><path class="cls-3" d="M541.11,455.12a1.44,1.44,0,0,1,.52-1.52C542.76,454.56,542.11,454.9,541.11,455.12Z" transform="translate(-475 -262)"/><path class="cls-3" d="M649.44,527a1.39,1.39,0,0,1-1.54.43C648.15,526.39,648.56,525.85,649.44,527Z" transform="translate(-475 -262)"/><path class="cls-3" d="M541.87,452.13c-.06-.58-.18-1.17.44-1.55C543.52,451.49,542.93,451.88,541.87,452.13Z" transform="translate(-475 -262)"/><path class="cls-10" d="M551,529.94c.91.18,1.41.54.61,1.44l-.75-.07Z" transform="translate(-475 -262)"/><path class="cls-10" d="M553.92,446.25c.75.93.13,1.2-.68,1.38A1.07,1.07,0,0,1,553.92,446.25Z" transform="translate(-475 -262)"/><path class="cls-3" d="M765.84,441.66c-.28-.91.26-1.43.91-1.89C766.89,440.61,766.84,441.36,765.84,441.66Z" transform="translate(-475 -262)"/><path class="cls-10" d="M556.65,440.9l-1.2.75a1.16,1.16,0,0,1,.75-1.4Z" transform="translate(-475 -262)"/><path class="cls-3" d="M766.93,438.65a1.27,1.27,0,0,1,.74-1.48C768.75,438.33,767.87,438.5,766.93,438.65Z" transform="translate(-475 -262)"/><path class="cls-3" d="M723.15,493.16a2.07,2.07,0,0,1,1.85-1.32C724.88,493,724.19,493.31,723.15,493.16Z" transform="translate(-475 -262)"/><path class="cls-3" d="M550.86,531.31l.75.07c-.05.52-.11,1-.16,1.54C550.27,532.74,549.49,532.42,550.86,531.31Z" transform="translate(-475 -262)"/><path class="cls-3" d="M605.23,533.58c-.21.77-.89.72-1.47.84C603.9,533.51,604,532.56,605.23,533.58Z" transform="translate(-475 -262)"/><path class="cls-3" d="M601.49,535.09c-.3.71-.84.75-1.48.55C600.23,534.73,600.55,534.07,601.49,535.09Z" transform="translate(-475 -262)"/><path class="cls-3" d="M770.35,426.69a1.55,1.55,0,0,1,.8-2C771.39,425.54,771.4,426.32,770.35,426.69Z" transform="translate(-475 -262)"/><path class="cls-3" d="M544.56,541.94c-.72-.33-.59-.94-.5-1.54C545.12,540.63,545.78,541,544.56,541.94Z" transform="translate(-475 -262)"/><path class="cls-10" d="M585.7,395c.12,1.13-.32,1.77-1.52,1.75A2,2,0,0,1,585.7,395Z" transform="translate(-475 -262)"/><path class="cls-10" d="M588,392.72c.11,1.23-.46,1.79-1.69,1.69A2.49,2.49,0,0,1,588,392.72Z" transform="translate(-475 -262)"/><path class="cls-3" d="M574.57,549.39a1.47,1.47,0,0,1,.84-1.47C576.45,549.16,575.48,549.26,574.57,549.39Z" transform="translate(-475 -262)"/><path class="cls-10" d="M590.2,390.48c.1,1.21-.45,1.79-1.68,1.69A2.44,2.44,0,0,1,590.2,390.48Z" transform="translate(-475 -262)"/><path class="cls-10" d="M557.64,549.41c1.16.21,1.24,1,1,1.94A1.83,1.83,0,0,1,557.64,549.41Z" transform="translate(-475 -262)"/><path class="cls-3" d="M771.12,391.31a1.63,1.63,0,0,1-.9-2.05C771.36,389.57,771.39,390.37,771.12,391.31Z" transform="translate(-475 -262)"/><path class="cls-6" d="M769.54,314.45c.26-.92.68-1.65,1.83-1.47C771.3,314.14,770.89,314.88,769.54,314.45Z" transform="translate(-475 -262)"/><path class="cls-3" d="M726.21,490.93a1.86,1.86,0,0,1,1.79-1.3C727.87,490.72,727.21,491.07,726.21,490.93Z" transform="translate(-475 -262)"/><path class="cls-10" d="M676.35,512.92c.26-.76.62-1.2,1.37-.44A.89.89,0,0,1,676.35,512.92Z" transform="translate(-475 -262)"/><path class="cls-3" d="M570.16,558.37a1.5,1.5,0,0,1,.77-1.47C572,558.06,571.07,558.22,570.16,558.37Z" transform="translate(-475 -262)"/><path class="cls-10" d="M567.15,562.1c0-.86.33-1.4,1.24-1.45A1.37,1.37,0,0,1,567.15,562.1Z" transform="translate(-475 -262)"/><path class="cls-3" d="M699.21,515.13c-.4.8-.88,1.45-1.93,1.15C697.46,515.12,698.22,514.94,699.21,515.13Z" transform="translate(-475 -262)"/><path class="cls-6" d="M553.53,562.93h.81c0,.71,0,1.42.07,2.13C553.24,564.71,553.73,563.68,553.53,562.93Z" transform="translate(-475 -262)"/><path class="cls-6" d="M771.39,313a.93.93,0,0,1,1.06-.74Z" transform="translate(-475 -262)"/><path class="cls-6" d="M763.13,467.07l-.75.75A.68.68,0,0,1,763.13,467.07Z" transform="translate(-475 -262)"/><path class="cls-6" d="M772.86,311.72c.09-.46.17-1,.72-.28Z" transform="translate(-475 -262)"/><path class="cls-5" d="M797.56,332.42l-.18.31.16-.34Z" transform="translate(-475 -262)"/><path class="cls-6" d="M600.78,367.59c.32-.76.6-.4.89,0Z" transform="translate(-475 -262)"/><path class="cls-6" d="M661.41,530.16c3-1.84,6.66-1.33,9.72-3,.38-.21.71.51.78,1A18.82,18.82,0,0,1,661.41,530.16Z" transform="translate(-475 -262)"/><path class="cls-6" d="M709.34,515c.69-2.87,2.88-3.37,5.37-3.37C713.9,514.35,711.62,514.69,709.34,515Z" transform="translate(-475 -262)"/><path class="cls-6" d="M684.58,524.74a20.4,20.4,0,0,1,8.33-2.84A10.47,10.47,0,0,1,684.58,524.74Z" transform="translate(-475 -262)"/><path class="cls-6" d="M652.43,531.66a13,13,0,0,1,7.62-1.34A8.28,8.28,0,0,1,652.43,531.66Z" transform="translate(-475 -262)"/><path class="cls-6" d="M597.8,540.58a10.18,10.18,0,0,1,6.85-2.14A8.75,8.75,0,0,1,597.8,540.58Z" transform="translate(-475 -262)"/><path class="cls-6" d="M718.05,510.28c.29-2.39,1.93-2.86,4-2.77C721.3,509.32,719.8,510,718.05,510.28Z" transform="translate(-475 -262)"/><path class="cls-6" d="M618,536c1-1.45,2.49-.7,3.81-.69C620.85,537.29,619.47,536.93,618,536Z" transform="translate(-475 -262)"/><path class="cls-6" d="M647.19,532.4c1.07-1.51,2.51-.81,3.86-.64C650,533.44,648.64,533.14,647.19,532.4Z" transform="translate(-475 -262)"/><path class="cls-6" d="M676.35,527a4.34,4.34,0,0,1,3.88-1.25C679.25,527.15,678.06,527.89,676.35,527Z" transform="translate(-475 -262)"/><path class="cls-6" d="M694.82,521.43c.92-1.6,2.46-1.77,4.08-1.77C698,521.39,696.46,521.49,694.82,521.43Z" transform="translate(-475 -262)"/><path class="cls-6" d="M613.5,536.73c.86-1.28,2-.67,3.13-.51C615.8,537.72,614.74,537.77,613.5,536.73Z" transform="translate(-475 -262)"/><path class="cls-6" d="M702.3,518.42a3,3,0,0,1,3.33-1.76A2.68,2.68,0,0,1,702.3,518.42Z" transform="translate(-475 -262)"/><path class="cls-6" d="M722,507.51c0-1.65,1.08-1.61,2.24-1.49C724.15,507.49,723.12,507.56,722,507.51Z" transform="translate(-475 -262)"/><path class="cls-6" d="M724.25,506c0-1.63,1.08-1.61,2.24-1.49C726.4,506,725.36,506.06,724.25,506Z" transform="translate(-475 -262)"/><path class="cls-6" d="M643.38,532.87c.71-.84,1.56-.67,2.44-.36C645.22,534.11,644.26,533.23,643.38,532.87Z" transform="translate(-475 -262)"/><path class="cls-6" d="M681.59,525.53c.35-.77.94-.83,1.64-.53C682.89,525.84,682.51,526.54,681.59,525.53Z" transform="translate(-475 -262)"/><path class="cls-6" d="M673.08,528.06c.4-.82,1-1.23,1.91-.82C674.65,528.2,674,528.54,673.08,528.06Z" transform="translate(-475 -262)"/><path class="cls-6" d="M609.76,537.48c.37-.78,1-.83,1.64-.47C611,537.84,610.63,538.47,609.76,537.48Z" transform="translate(-475 -262)"/><path class="cls-6" d="M606,538.22c.37-.79,1-.76,1.65-.48C607.3,538.56,606.9,539.23,606,538.22Z" transform="translate(-475 -262)"/><path class="cls-6" d="M726.5,504.51c0-1.13.47-1.59,1.6-1.29A1.37,1.37,0,0,1,726.5,504.51Z" transform="translate(-475 -262)"/><path class="cls-6" d="M714.87,511.43v-.59c.07.19.13.37.18.56Z" transform="translate(-475 -262)"/><path class="cls-6" d="M534.52,505.54c0,.33.06.65.1,1l-.85.23c-.95-.24-1.36-.65-.45-1.47Z" transform="translate(-475 -262)"/><path class="cls-6" d="M534.11,474.55c-1-.83-.39-1.25.42-1.61A1,1,0,0,1,534.11,474.55Z" transform="translate(-475 -262)"/><path class="cls-6" d="M535.48,466.3c-.85-.88-.24-1.27.53-1.6C536.36,465.41,536.26,466,535.48,466.3Z" transform="translate(-475 -262)"/><path class="cls-6" d="M536.27,462.57c-.89-.83-.32-1.25.44-1.61A1,1,0,0,1,536.27,462.57Z" transform="translate(-475 -262)"/><path class="cls-6" d="M537,458.82c-.88-.87-.26-1.26.52-1.6A1,1,0,0,1,537,458.82Z" transform="translate(-475 -262)"/><path class="cls-6" d="M534.8,469.31c-.91-.83-.34-1.26.44-1.62A1,1,0,0,1,534.8,469.31Z" transform="translate(-475 -262)"/><path class="cls-6" d="M543.88,437.86l.52-.76C544.56,437.58,544.31,437.78,543.88,437.86Z" transform="translate(-475 -262)"/><path class="cls-4" d="M533.77,506.74l.85-.23c1.59,2.3,1.15,4.78.65,7.26l-1.2-.27Z" transform="translate(-475 -262)"/><path class="cls-4" d="M539.86,537.37c1.37,1.78,2.44,3.65,1.8,6-1.45-1.1-.8-3.32-2.32-4.38-.14-.54-.28-1.07-.41-1.6Z" transform="translate(-475 -262)"/><path class="cls-4" d="M535.31,514.91c1.82,1.38,1,3.15.72,4.84l-1.19-.27c-.14-1.5-.29-3-.43-4.51Z" transform="translate(-475 -262)"/><path class="cls-6" d="M539.34,539c1.52,1.06.87,3.28,2.32,4.38-.07.53-.14,1.07-.22,1.6C539.32,543.51,539.37,541.24,539.34,539Z" transform="translate(-475 -262)"/><path class="cls-4" d="M537.6,528.39a3.86,3.86,0,0,1,1.08,4.54l-1.62-2.23-.36-2.26Z" transform="translate(-475 -262)"/><path class="cls-6" d="M543,547.24c.18.46.35.92.54,1.37l-.72.84c-1.44-.6-1.65-1.7-1.27-3.06Z" transform="translate(-475 -262)"/><path class="cls-4" d="M542.86,549.45l.72-.84a3.63,3.63,0,0,1,1.36,4.2C543.46,552.18,543.81,550.41,542.86,549.45Z" transform="translate(-475 -262)"/><path class="cls-6" d="M537.06,530.7l1.62,2.23c-.09.53-.17,1.07-.26,1.6C536.87,533.65,536.27,532.42,537.06,530.7Z" transform="translate(-475 -262)"/><path class="cls-4" d="M536.85,523.89c1.47.87,1,2.12.66,3.35l-1.2-.27-.39-3Z" transform="translate(-475 -262)"/><path class="cls-4" d="M545.46,554.6c1.91.68,2,2.16,1.72,3.83l-1.13-.66Z" transform="translate(-475 -262)"/><path class="cls-6" d="M539.86,537.37l-.93,0c-1-.26-1.19-.74-.45-1.49l1.3.3Z" transform="translate(-475 -262)"/><path class="cls-6" d="M536.31,527l1.2.27c0,.39.06.77.1,1.15l-.91.05C535.75,528.16,535.47,527.71,536.31,527Z" transform="translate(-475 -262)"/><path class="cls-6" d="M535.31,514.91l-.9.06c-.94-.29-1.17-.76-.34-1.47l1.2.27C535.28,514.15,535.3,514.53,535.31,514.91Z" transform="translate(-475 -262)"/><path class="cls-6" d="M536.85,523.89l-.93.06c-1-.26-1.17-.74-.43-1.49l1.3.3Z" transform="translate(-475 -262)"/><path class="cls-6" d="M534.84,519.48l1.19.27c0,.37.07.75.1,1.12l-.85.09C534.3,520.71,533.91,520.29,534.84,519.48Z" transform="translate(-475 -262)"/><path class="cls-4" d="M543,547.24l-1.45-.85c.07-.52.14-1,.2-1.56C543.29,545.08,543.2,546.14,543,547.24Z" transform="translate(-475 -262)"/><path class="cls-4" d="M535.28,521l.85-.09a1.25,1.25,0,0,1,.66,1.89l-1.3-.3Z" transform="translate(-475 -262)"/><path class="cls-4" d="M539.78,536.23l-1.3-.3.3-1.57C539.91,534.56,540.24,535.18,539.78,536.23Z" transform="translate(-475 -262)"/><path class="cls-6" d="M546.05,557.77l1.13.66c-.11.23-.21.47-.32.7A1.33,1.33,0,0,1,546.05,557.77Z" transform="translate(-475 -262)"/><path class="cls-6" d="M765.79,320.31a4.31,4.31,0,0,1-1.36,3.83A2.92,2.92,0,0,1,765.79,320.31Z" transform="translate(-475 -262)"/><path class="cls-4" d="M559.94,575.29l2.69-.47c1.17-.27,2.32-.62,3.5-.8a6.24,6.24,0,0,1,1.74.24l-1,1.85C564.55,576.12,562,577.46,559.94,575.29Z" transform="translate(-475 -262)"/><path class="cls-6" d="M743,491.08l.73-.69Z" transform="translate(-475 -262)"/><path class="cls-6" d="M748.29,485.85l.61-.83Z" transform="translate(-475 -262)"/><path class="cls-4" d="M554.44,571.63c2.41-.54,2.67,1.22,3.06,2.85C555.45,574.64,555.07,573,554.44,571.63Z" transform="translate(-475 -262)"/><path class="cls-6" d="M733.83,499.12c.26-1.33.86-2.25,2.42-2-.28.7-.57,1.4-.86,2.09Z" transform="translate(-475 -262)"/><path class="cls-14" d="M559.57,512l0-1.49c.25-1,.49-2,.73-3a93.94,93.94,0,0,1,16.35-37.68,10.73,10.73,0,0,0,.91-2,132.4,132.4,0,0,1,18.7-19.1c4-3.24,8.47-5.58,12.57-8.57,2.33,0,4.67,0,7,.06,6.9,0,6.9,0,6.61-6.88,1.41-2.1,3.79-2.25,5.91-2.92,1.53,2.15,3.05,4.31,4.57,6.46-.6,2.2-2.88,2.34-4.38,3.05a152.22,152.22,0,0,0-35.31,23.41c-3.25-.24-1.64,2.34-2.15,3.69-4.68.94-6.41,5.14-9.11,8.27-4.45,3.73-7.19,8.75-10.13,13.57a75.27,75.27,0,0,0-10,26.09L560,528A39.48,39.48,0,0,1,559.57,512Z" transform="translate(-475 -262)"/><path class="cls-15" d="M744.67,473h0c-2.55.56-2.51-1.08-2.49-2.83,0-.91.38-2.37-1-2.43-1.7-.07-1.11,1.55-1.24,2.55-.07.49,0,1,0,1.49,0,.65-.22,1.26-1,1.23s-1-.55-1.09-1.23a3.6,3.6,0,0,0,0-.74c-.36-1.13.85-3.27-1.23-3.21-1.55,0-.82,2-1,3.15-.13.79.29,2-1,2s-1-1.13-1.12-1.95c-.52-5.05.24-5.83,5.17-5.23.59.07,1.1.41,1.77.19,3.5-1.18,4.09.9,4.07,3.69C744.43,470.76,744.58,471.87,744.67,473Z" transform="translate(-475 -262)"/><path class="cls-15" d="M634.14,471.44a9.16,9.16,0,0,1-.51-4.37c.06-1.75.7-3.2,2.5-3.61s3.46-.26,4.69,1.36c.37.48,1,1,.63,1.57-.53.76-1.28.48-1.84-.15a2.09,2.09,0,0,0-3-.58c-1.11.73-.85,2-.8,3,.12,2.48,1.44,3.09,3.41,1.76.9-.62,1.54-1.2,2.55-.38C639.61,473.72,637.71,474.06,634.14,471.44Z" transform="translate(-475 -262)"/><path class="cls-15" d="M693,464.47a5.81,5.81,0,0,1,5.7-.73c.55.63,1.58,1.21,1.15,2.13-.36.77-1.26.53-1.89,0-.92-.76-2.07-1.58-2.64,0-.48,1.36,1.22,1.25,2,1.62,1.39.67,2.8,1.28,2.79,3.07a2.37,2.37,0,0,1-1.79,2.17,4.83,4.83,0,0,1-4.91-.71c-.48-.39-.9-1-.48-1.6s1.07-.41,1.62-.05c.2.14.39.31.59.45.91.64,2,1,2.48-.24s-.86-1.31-1.57-1.59C693.91,468.2,692.06,467.28,693,464.47Z" transform="translate(-475 -262)"/><path class="cls-15" d="M605.11,475.31c0-1.73,0-3.47.15-5.19.15-1.49-1-3.69.83-4.3s4.2-.69,5.75,1.32c.25,2.79.76,5.71-3.43,6-1.08.07-.86,1-1,1.68C607,476.54,606.17,476.44,605.11,475.31Zm3.64-8.08c-1.06-.05-1.3.65-1.3,1.43s-.44,2.17.82,2.54,1.46-.64,1.52-1.56S610,467.63,608.75,467.23Z" transform="translate(-475 -262)"/><path class="cls-15" d="M727.48,470.52c.73,1.91,2.37-.25,3.36,1.1-1.2,2-3,1.77-4.61.87s-2.18-2.62-1.5-4.5a3.41,3.41,0,0,1,4.14-2.33,2.79,2.79,0,0,1,2.44,2.9C731.26,471.37,728.62,469.22,727.48,470.52Z" transform="translate(-475 -262)"/><path class="cls-15" d="M653,466.33c2.6-.95,5.19-1.85,6.85,1.51,0,.24,0,.49-.08.73-.35,1.45.85,4-.92,4.18-2.39.19-.8-2.42-1.26-3.72-.21-.59-.29-1.27-1-1.36-1-.12-1.05.67-1.3,1.39-.45,1.3,1.15,3.94-1.37,3.69-1.61-.16-.54-2.74-.78-4.21A20.49,20.49,0,0,1,653,466.33Z" transform="translate(-475 -262)"/><path class="cls-15" d="M705.11,468.94c1.24-.87.5-4.05,2.79-3.07,1.39.6-.24,2.61-.64,3.91a38.31,38.31,0,0,1-2.26,5.48,1.42,1.42,0,0,1-1.94.63c-1-.6-.2-1.12.26-1.72,1.62-2-.48-3.66-.69-5.51-.11-1-1.66-2.27-.19-2.89,1.76-.74,1.63,1.32,2.2,2.27C704.82,468.34,705,468.66,705.11,468.94Z" transform="translate(-475 -262)"/><path class="cls-15" d="M614.09,467.08c.15-.58.1-1.32.9-1.42s1.24.15,1.32.94c.06.49,0,1,.08,1.49.25,1.08-.75,3,1,3.06s1.05-1.85,1.27-3c.17-.87-.57-2.34.88-2.45,1.81-.13,1.18,1.51,1.27,2.49.13,1.36.11,2.73.15,4.1C615.46,474.19,614.42,473.4,614.09,467.08Z" transform="translate(-475 -262)"/><path class="cls-15" d="M643.46,470.08c.12-2,.64-3.73,2.78-4.37s3.52.58,4.62,2.22c0,2.16-.09,4.31-2.61,5S644.39,472.16,643.46,470.08Zm3.58-2.76a1.94,1.94,0,0,0-1.29,2.27c.08.93.47,1.8,1.53,1.7,1.26-.12,1.42-1.19,1.36-2.22A1.61,1.61,0,0,0,647,467.32Z" transform="translate(-475 -262)"/><path class="cls-15" d="M675.73,465.65l3.38.05a9.41,9.41,0,0,1,1.6,2.44c.44,1.61.28,3.26-1.31,4.32a3.34,3.34,0,0,1-4.16-.09,3.68,3.68,0,0,1-1.08-4.69A10,10,0,0,1,675.73,465.65Zm3,3.79c0-.92-.16-1.94-1.18-2.05-1.29-.14-1.63,1-1.63,2s.33,1.84,1.41,1.87S678.61,470.35,678.69,469.44Z" transform="translate(-475 -262)"/><path class="cls-15" d="M716.09,467.26c-.94,1.43-2.05-.71-3,.26-.16.87.52.9,1.07,1.11,1.28.48,2.79,1,2.21,2.75-.49,1.48-1.93,1.87-3.36,1.65s-2.66-.49-1.84-2.82c.45-1.31-1.78-3.49,1-4.4C713.75,465.31,715.39,465.28,716.09,467.26Z" transform="translate(-475 -262)"/><path class="cls-16" d="M723.19,472.33a7.82,7.82,0,0,1-1.25.61c-1,.22-1.91,0-2.17-1a28.32,28.32,0,0,1-1.15-6c0-.58.56-2.1,1.7-2.15,1.32-.07,1,1.86,2.15,2.2C721.42,468.08,720.19,470.15,723.19,472.33Z" transform="translate(-475 -262)"/><path class="cls-16" d="M662.26,467.84A2.39,2.39,0,0,1,663,464c1.83-.48,2.25,1.59,2.78,3-2.37.8-1.2,2.5-.9,3.88.15.67,1.69,1.26.36,1.94-1.11.58-2.17-.12-2.45-1.41S662.42,469.05,662.26,467.84Z" transform="translate(-475 -262)"/><path class="cls-16" d="M623.41,471.24c0-1.45.44-2.92-.53-4.3-.7-1,.12-1.92.74-2.56a1,1,0,0,1,1.77.41c.18.83,2.43.77.79,2.49a2.57,2.57,0,0,0,.75,4.3C625.45,474.65,624.48,472.45,623.41,471.24Z" transform="translate(-475 -262)"/><path class="cls-15" d="M683.09,464.84c.27-.82-.17-2.17,1.25-2.18s.86,1.4,1.19,2.17c-.06,2.24-.09,4.48-.17,6.71,0,.6,0,1.33-.83,1.41s-1.26-.59-1.28-1.4C683.18,469.32,683.14,467.08,683.09,464.84Z" transform="translate(-475 -262)"/><path class="cls-16" d="M667.84,467.08c.8-2.69,2.92-.89,4.39-1.3-.88,2-2.88,3.53-2.25,6.11.15.63-.38,1.12-1.16,1s-.72-.59-.75-1.06C668,470.27,667.91,468.67,667.84,467.08Z" transform="translate(-475 -262)"/><path class="cls-16" d="M725.55,408.72a6.67,6.67,0,0,1,.14-1.49c.53-1.71-1.43-4.6,1.28-5.06s6-1.24,8.31,2.24c4.2,6.33,8.89,12.33,13.39,18.46.85,1.15,1.76,2.25,3.23,4.12,0-8,.2-15-.08-22.06-.16-4,2.39-2.84,4.39-2.94s4.23-.52,4,3c-.29,4,0,8,0,12,0,6.47,0,12.94-.19,19.41,0,1.25,1.13,3.48-1.17,3.67-2.68.22-5.65,2.66-8.12-.85-4.73-6.71-9.62-13.31-14.47-19.95-.54-.74-1.23-1.37-2.4-2.66v19.74c0,4.17-.53,4.35-5.11,4.67-3.84.27-3.08-2.14-3.09-4.26Q725.6,422.73,725.55,408.72Z" transform="translate(-475 -262)"/><path class="cls-16" d="M693.35,404.43a34.61,34.61,0,0,1,6.76,7.48c3.15,7.33,3.08,14.45-1.48,21.23-4.36,6.48-12.22,10-19.33,8.28-7.53-1.85-12.25-6.83-14.13-14.41-.12-.48-.28-.94-.42-1.41a24.44,24.44,0,0,1,.26-9.45c3-8,8-13.54,17-14.43C686.1,401.32,689.78,402.63,693.35,404.43Zm-20.56,17.83c.6,6.45,4.82,11,10.32,11.14,5.32.14,9.86-4.15,10.82-10.31a10.34,10.34,0,0,0-1.71-7.76c-2.76-4.61-7.19-6.72-11.39-5.42C675.76,411.48,672.55,416.4,672.79,422.26Z" transform="translate(-475 -262)"/><path class="cls-16" d="M633,436.88c-1.52-2.15-3-4.31-4.57-6.46-2.38-7.48-2.33-14.66,2.57-21.25a18.12,18.12,0,0,1,25.76-3.74c1.33,1.06,2.85,2.19.83,3.75-1.55,1.2-1.57,5.3-5.38,2.62A10.36,10.36,0,0,0,638,413.3c-3.34,3.73-4,10.11-1.42,13.67,1.11,3.83,4,5.46,7.62,6.29a11.15,11.15,0,0,0,10.6-4.3l1.45-.23c.18.17.37.33.54.51,4.57,4.52,4.56,5.3-.81,8.9C649.31,442.62,640,443.64,633,436.88Z" transform="translate(-475 -262)"/><path class="cls-16" d="M706.45,408.59c-.13-8.25-.66-6.4,6.24-6.61,2.11-.07,4.22,0,6.32-.06l1.45.14.18,5.16c-4.33,2.85-2.95,7.27-3,11.26-.08,3.48-.12,7,0,10.44.08,1.81-1.14,4.09,2.3,4.89,1.35.31.59,3.41.46,5.21s-1.89,1.14-3,1.19a59.9,59.9,0,0,1-7.09,0c-1.3-.1-3.6,1-3.66-1.19,0-1.88-2.07-4.9,1.84-5.72,1.2-.26.82-1.4.82-2.19,0-6.59-.09-13.19.09-19.78C709.49,408.89,708.06,408.82,706.45,408.59Z" transform="translate(-475 -262)"/><path class="cls-14" d="M656.27,428.73l-1.45.23c-4,.28-7.65,1.42-10.6,4.3-3.59-.83-6.51-2.46-7.62-6.29,4-3.6,9.3-4.29,14-6.21s9.57-3.1,14.38-4.61a24.44,24.44,0,0,0-.26,9.45A32.52,32.52,0,0,0,656.27,428.73Z" transform="translate(-475 -262)"/><path class="cls-15" d="M596.13,470.07c.89-1.4-1.71-4.59,2.45-4.4,3.32.15,5.7,3.6,4.2,6.6a1.11,1.11,0,0,1-1.14.73c-.6,0-.84-.44-.88-1s0-1-.06-1.48c-.13-1,.46-2.73-1-2.8-1.93-.09-1,1.79-1.28,2.85-.2.87.46,2.14-1,2.4-1.06.19-1.12-.69-1.27-1.41Z" transform="translate(-475 -262)"/><path class="cls-15" d="M591.12,467c.51-1.35-1.1-3.93,2.15-3.69.09,2.24.17,4.48.26,6.72v1.53c-.19.69-.24,1.5-1.28,1.42-.75-.05-1-.53-1-1.21C591.16,470.21,591.15,468.62,591.12,467Z" transform="translate(-475 -262)"/><path class="cls-7" d="M593.53,471.59v-1.53h2.6v1.51Z" transform="translate(-475 -262)"/><path class="cls-16" d="M603.73,433.41c-6.39,8.4-15,10-24.69,4.5-.23-.29-.45-.59-.69-.87-1.26-1.47-3.72-3-2.74-4.82.81-1.52,3.4-2.14,5.24-3.06,1.46-.72,1.81.64,2.5,1.45a8,8,0,0,0,9.5,2.11c1.42-.65,2.55-1.52,2.69-3.26s-1.43-2.25-2.57-2.66a81.63,81.63,0,0,0-8.39-2.5c-7.24-1.81-9-6.49-9.19-10.46-.2-4.69,4.33-9.87,9.78-11.46s10.62-.83,15.12,2.84c1,.84,3.16,2.15,1.61,3.39s-3.31,4.8-6.43,2.46a8.6,8.6,0,0,0-8.42-1.49,3.92,3.92,0,0,0-2.87,3.55c-.17,1.88,1,2.76,2.49,3.26,2.94,1,5.92,1.88,8.89,2.75C603.46,421.46,605.73,425.41,603.73,433.41Z" transform="translate(-475 -262)"/><path class="cls-16" d="M622.48,433.34c.29,6.88.29,6.88-6.61,6.88-2.34,0-4.68,0-7-.06-.08-1.75-.15-3.5-.23-5.26,3.43-2.11,3-5.46,2.88-8.77-.1-4,.1-8-.07-11.93-.09-2.06,1.14-4.5-2.12-5.92-1.31-.58-.65-3.5-.32-5.28s2-.92,3.13-1a45.54,45.54,0,0,1,6.71,0c1.27.12,3.56-1.09,3.61,1.21,0,1.86,1.72,4.54-1.47,5.7-1.26.45-1,1.57-1,2.52,0,6.46.06,12.93,0,19.39C619.89,432.8,620.51,433.66,622.48,433.34Z" transform="translate(-475 -262)"/><path class="cls-8" d="M720.46,402.06l-1.45-.14a2,2,0,0,1,1.49-2.13C720.48,400.55,720.47,401.3,720.46,402.06Z" transform="translate(-475 -262)"/><path class="cls-11" d="M560.33,507.48c-.24,1-.48,2-.73,3-.79-.1-1.48-.35-1.35-1.33C558.4,508,559.27,507.58,560.33,507.48Z" transform="translate(-475 -262)"/><path class="cls-11" d="M608.75,467.23c1.21.4,1.11,1.45,1,2.41s-.41,1.88-1.52,1.56-.81-1.62-.82-2.54S607.69,467.18,608.75,467.23Z" transform="translate(-475 -262)"/><path class="cls-11" d="M647,467.32a1.61,1.61,0,0,1,1.6,1.75c.06,1-.1,2.1-1.36,2.22-1.06.1-1.45-.77-1.53-1.7A1.94,1.94,0,0,1,647,467.32Z" transform="translate(-475 -262)"/><path class="cls-11" d="M678.69,469.44c-.08.91-.27,1.86-1.4,1.83s-1.41-1-1.41-1.87.34-2.15,1.63-2C678.53,467.5,678.7,468.52,678.69,469.44Z" transform="translate(-475 -262)"/><path class="cls-8" d="M692.22,415.33a10.34,10.34,0,0,1,1.71,7.76c-1,6.16-5.5,10.45-10.82,10.31-5.5-.14-9.72-4.69-10.32-11.14C679.52,420.66,685.62,417.29,692.22,415.33Z" transform="translate(-475 -262)"/><path class="cls-14" d="M692.22,415.33c-6.6,2-12.7,5.33-19.43,6.93-.24-5.86,3-10.78,8-12.35C685,408.61,689.46,410.72,692.22,415.33Z" transform="translate(-475 -262)"/><path class="cls-11" d="M644.22,433.26c2.95-2.88,6.6-4,10.6-4.3A11.15,11.15,0,0,1,644.22,433.26Z" transform="translate(-475 -262)"/></svg>