<svg id="Camada_1" data-name="Camada 1" xmlns="http://www.w3.org/2000/svg" viewBox="0 0 375 375"><defs><style>.cls-1{fill:#392159;}.cls-2{fill:#fefefe;}.cls-3{fill:#eaebe9;}.cls-4{fill:#5d6063;}.cls-5{fill:#abacac;}.cls-6{fill:#4c4c4c;}.cls-7{fill:#59147f;}.cls-8{fill:#e3e6e2;}.cls-9{fill:#77b000;}.cls-10{fill:#82c102;}.cls-11{fill:#73aa02;}.cls-12{fill:#7cb900;}.cls-13{fill:#578100;}.cls-14{fill:#7bb502;}.cls-15{fill:#628d0a;}.cls-16{fill:#030400;}</style></defs><path class="cls-1" d="M773.94,352.08q185.2,0,370.43-.08c3,0,3.63.6,3.63,3.63q-.15,185.22-.08,370.44-184.74,0-369.47.09c-3.75,0-4.61-.86-4.6-4.61Q774,536.83,773.94,352.08ZM873.44,661l.75-.75c.75-.51.7-1.36.91-2.11,4.64-5.33,7.39-11.64,9.52-18.28l.57-.63c1.59.06,1.72-1,1.71-2.21l.69-.7a1.58,1.58,0,0,0,1.52-.81h0l.75-.75h0l.75-.76h0l.75-.75h0l.76-.75h0l2.26-1.51h0a75.38,75.38,0,0,1,12.58-4.59c9.06-2.19,18.3-3.19,27.51-4.28,16.87-2,33.71-3.95,50.07-8.8,10.5-3.11,20.82-6.59,30.27-12.25h0c1.76-1,3.81-1.47,5.25-3h0c1-.5,2.22-.74,2.29-2.19h0c1.08,0,2.12-.05,2.24-1.49h0c.83,0,1.68,0,2.2-.79h0l2.26-1.51h0l2.26-1.51,0,0a1.49,1.49,0,0,0,.8-1.45v0c.83,0,1.68,0,2.2-.79h0a1.62,1.62,0,0,0,.81-1.55l.63-.64c.86,0,1.75,0,2.31-.81h0l.76-.75h0l.76-.75h0l.76-.76h0l.76-.76,0,0,2.25-1.52h0l.75-.75h0l.75-.75h0l.76-.75h0l.75-.75h0l.75-.75h0l.75-.75h0l.75-.75h0l.75-.76h0c1-.67.81-1.74.88-2.72l.15-.23.53-.56.17-.16.26.05.26,0a1.73,1.73,0,0,0,1.69-1.41,3.17,3.17,0,0,0,2-3.34l.62-.6c.73,0,1.41-.1,1.1-1.14l.13-.12c1.63.15,1.06-1.07,1.17-1.87l.6-.6c1.62,0,1.74-1.07,1.61-2.31l0,0c1.93-.13,2.15-1.56,2.29-3l0,.05c2.28-.33,2.28-2.05,2.29-3.76l0,0c3.35-3.08,5.63-6.71,5.85-11.39l-.06.06c2.59-.91,2.53-3.08,2.5-5.23l.11-1.21a5,5,0,0,0,1.3-3.1l.19-1.39c.42-.14.7-.38.59-.87l0-.27h0c.21-.68.43-1.36.64-2l.64-1.45.36-2.72a.82.82,0,0,0,.54-1l0-.25.18-1c.17-.61.33-1.21.5-1.81s.27-1,.41-1.45c.94-1.48.41-3.16.66-4.74,2.79-17.65,1.84-34.86-6.47-51.09a5.19,5.19,0,0,1,.24-5.78c6.31-9,12.75-17.87,19.12-26.8,3.9-5.47,8.07-11,4.76-18.21a36.9,36.9,0,0,0-5.93-9c-6.89-7.75-17.48-5.6-20.82,4a28.55,28.55,0,0,0-1,2.83c-2.3,10.12-8.38,17.93-15.43,25.11-1.5,1.52-3.18,2.69-5.63,1.81-15.43-5.5-31.15-9.62-47.53-11.22a122.78,122.78,0,0,0-58.36,8.22l-.7.3-.12,0c-1.27.44-2.76.36-3.69,1.59l-1.55.63C925.61,440,916.13,446,906.93,452.56a180.1,180.1,0,0,0-41,39.39l-.76.89-.55.63a1.37,1.37,0,0,0-.89,1.54l0,0-.78.91-.51.59a1.29,1.29,0,0,0-.92,1.56l0,0-.71,1a.3.3,0,0,1-.09.41l-.76.86.07-.05a2.05,2.05,0,0,0-1.53,2.41l-.67,1.24c-1.59.56-2.13,2.11-2.82,3.34-12.18,21.69-19.15,44.85-19.76,69.83a155,155,0,0,0,5.51,46.68c2.44,8.55,4.66,17.23,8.75,25.23.06,2.89,1.58,5,3.67,6.78,0,1.1,0,2.14,1.49,2.25.06.66-.19,1.42.56,1.88.05,0,.28-.07.28-.12a1.87,1.87,0,0,0-.85-1.75c-.49-.75-1-1.5-1.49-2.25l-.93-2.92,1.24-.17c1.28,1.91,2.41,3.93,3.86,5.69s2.87,3.83,5.73,3a3.36,3.36,0,0,1,.54.39c0,1.16,1.12,1.5,1.69,2.23-2.62.69-4.82-.91-8.18-2,5.22,3.7,10.66,3.69,13.36.65.78-.13,1.63-.08,2.16-.84Z" transform="translate(-773 -352)"/><path class="cls-2" d="M773.94,352.08q0,184.74-.09,369.47c0,3.75.85,4.62,4.6,4.61q184.74-.17,369.47-.09c-.68,1.55-2,.7-3,.7q-27.66.09-55.34.05-156.51,0-313,.07c-2.81,0-3.44-.63-3.44-3.44q.12-184,.12-368C773.24,354.35,772.37,352.91,773.94,352.08Z" transform="translate(-773 -352)"/><path class="cls-3" d="M936.22,435.88l1.55-.63a2.83,2.83,0,0,0,3.69-1.59l.12,0,.7-.3a122.78,122.78,0,0,1,58.36-8.22c16.38,1.6,32.1,5.72,47.53,11.22,2.45.88,4.13-.29,5.63-1.81,7-7.18,13.13-15,15.43-25.11a28.55,28.55,0,0,1,1-2.83c3.34-9.63,13.93-11.78,20.82-4a36.9,36.9,0,0,1,5.93,9c3.31,7.2-.86,12.74-4.76,18.21-6.37,8.93-12.81,17.82-19.12,26.8a5.19,5.19,0,0,0-.24,5.78c8.31,16.23,9.26,33.44,6.47,51.09-.25,1.58.28,3.26-.66,4.74-.86.28-1.18.71-.41,1.45-.17.6-.33,1.2-.5,1.8l-.18,1,0,.25-.54,1c-.12.91-.24,1.81-.35,2.72-.9.18-1.48.5-.65,1.45-.21.68-.43,1.36-.64,2h0l0,.27-.59.87c-.06.46-.13.93-.19,1.39-1.28.68-1.46,1.82-1.3,3.1,0,.4-.07.8-.11,1.21-.79.29-.67,1.06-.87,1.66l-.57.78,0,0a1.62,1.62,0,0,0-.77,1.56l-.32,1.26.06-.06-.67,1c-1.63.4-1.89,1.72-2.06,3.1a.87.87,0,0,1-.17.64c-3.26,2.27-4.46,6.09-6.58,9.17-2.93,4.25-7,7.73-9,12.63,0,.48.06,1,.1,1.46l-.09.08-.69.65,0,.05-.61.7-.17.16c-.42-.05-.54.19-.53.56l-.15.23c-.75.31-1.23.75-.89,1.65-1.48-.9-2.23.23-3.11,1.08a135.34,135.34,0,0,1-29.35,21.9c-6.16,3.35-12.33,6.75-19.29,8.29-1.06-.28-1.82,0-2.06,1.16-4,1.38-7.78,3.32-12.12,3.4-1-.36-1.79-.17-2.09,1A218.56,218.56,0,0,1,946.79,617c-1-1.22-1.8-1.17-2.32.4l-16.36,1.9c-1-1.26-1.79-1.27-2.34.35l-13.34,2c-.73-1.25-1.25-1-1.62.23-2.33.24-4.46,1.58-6.89,1.22-1.06-.34-1.82-.11-2.08,1.08-5.63,1.59-10.07,5-14,9.15-1.63,0-1.7,1.14-1.59,2.36l-.72,1.27c-3.28,2.16-4.53,5.5-5.3,9.12a.94.94,0,0,1-.2.66c-2.45,2.22-3.41,5.23-4.31,8.26l-.2.72-.59,1.4-.08.06-.66.67.06.13a17.82,17.82,0,0,0-5.44,3.3l-5.12.39a2.9,2.9,0,0,0-.53-.39c-2.42-2.25-5-4.31-6.68-7.3-.75-1.35-1-3.13-2.85-3.69l-3-6.25a1.24,1.24,0,0,0-.79-2l-.74-1.77a3.72,3.72,0,0,0-1.56-4.19l-.66-1.8a3.69,3.69,0,0,0-1.36-4.06l-.31-1.13a7.89,7.89,0,0,0-1.89-6.36L843,621.7a1.17,1.17,0,0,0-.53-1.85l-.3-1.13a1.16,1.16,0,0,0-.47-1.86l-.22-1.15c.61-1.07.61-2-.52-2.76l-.36-2.08c.72-.67.5-1.14-.32-1.49l-.26-1.15c.52-1.22.71-2.39-.52-3.34l-.4-3c.83-1.59,1-3.11-.42-4.48l-.23-3.39c.58-1.29.83-2.52-.54-3.5a114.15,114.15,0,0,1,0-17.64c1.71-1.47,1.09-3.24.65-5l.16-2.65c1.58-1.71,1-3.65.6-5.58l.13-1.19c.94-.47.87-1.39,1-2.24,4-23.91,14.1-45.13,28.56-64.36,9.81-13.05,21.68-24.12,34.35-34.34,1.14,0,2.15-.12,2.24-1.58q9.58-6.57,19.16-13.12C928.43,440.32,932.9,439.05,936.22,435.88ZM846.54,606.37c-1,.84-.53,1.25.43,1.53l.55,1.5-.14,2.15c-1.16,1-.5,1.35.54,1.58l.76,1.51a4.23,4.23,0,0,0,.9,3.65l.27,1.58a1.08,1.08,0,0,0,.57,1.38,4.36,4.36,0,0,0,.71,3.08c.29,1.54.27,3.19,1.49,4.41l.47,1.61a17.91,17.91,0,0,0,3,7.71l.42,1.28a2,2,0,0,0,1,1.95l.34,1.05a3.4,3.4,0,0,0,1.26,2.39,3.16,3.16,0,0,0,1,2.1,2.85,2.85,0,0,0,1.31,2.15c1.18,1.53,1.28,4.68,4.56,3a1.43,1.43,0,0,0,1.23-1.43,11.17,11.17,0,0,0,2.58-5.12c1.32-1,1.6-2.42,1.93-3.86l3.38-6.34a2.55,2.55,0,0,0,1.16-1.89c3-3.7,5.38-8,9.55-10.62,1,.1,1.68-.27,1.83-1.34.4-.6.85-1.12,1.67-1,1.08.24,1.84,0,2.06-1.23l.19-.18.26,0c1.56-.24,3.32-.08,4-2l1.75-.3c3.8-.53,7.65-.91,11-3.12l2.3-.29c4,.85,7.61-.32,11.17-1.93a7.86,7.86,0,0,1,3.79-.29c1.89.67,3.8,1.52,5.17-.87l1.5-.06c3,1.29,5.62.35,8.24-1a7.74,7.74,0,0,1,3.79-.31c1.64.62,3.32,1.51,4.42-.81l1.5-.1c2.48,1.21,4.65.33,6.74-1l3-.36a10.29,10.29,0,0,0,8.94-1.89l2.29-.32c1.15.92,1.86.62,2.19-.78a3.67,3.67,0,0,1,2.5-.3c1.05.13,2.16.46,2.74-.87l1.55-.28c1.19.92,1.89.56,2.18-.84l1.75-.25c1.92,0,3.9.24,5-1.92l1.78-.3c1.78-.38,4,.24,4.94-2.1l1-.17c1.67-.13,3.48,0,4.24-2l1-.23c1.58.09,3-.19,3.52-2l.08-.07c1.77-.12,3.67,0,4.4-2.19l.07-.06c1.86-.19,3.63-.54,4.39-2.59l.85-.41c1.19-.15,2.78.33,2.72-1.76l-.06,0a3.71,3.71,0,0,0,4.05-2.52l.09-.22c5.34-2.37,10.07-5.5,13.27-10.55h0a1.45,1.45,0,0,0,1.56-1.33,42,42,0,0,1,6.69-6.84c1.83-.34,2.9-1.34,2.89-3.3l1-1.19a2.14,2.14,0,0,0,2-2.48,1.48,1.48,0,0,1,1-1.26,1.39,1.39,0,0,0,1.25-1.66l0,.05c1.27-.08,1.6-.83,1.41-2,.37-.57.74-1.14,1.12-1.71,1.58-.24,2.12-1.21,1.92-2.72l.08-.28c1.22-.16,1.58-.91,1.35-2a9.72,9.72,0,0,1,2.09-3.93c2.32-1.51,3.07-3.81,3.24-6.4l.32-1.08a17.65,17.65,0,0,0,4.17-10.89l.27-1.83c1.41-.34,1.67-1.07.75-2.2l.32-2.28c1-.42,1-1.19.77-2.07a11.88,11.88,0,0,1,.37-4.67c2.3-1.44,1.55-3.31.75-5.19l0-13.54c.79-1.64,1.56-3.26-.64-4.46-.36-1.82-.81-3.63-1-5.46-1.1-8.46-6.72-15.37-8.11-23.72l.76-3,2.39-4.07a2.27,2.27,0,0,0,1.37-1.9A68.07,68.07,0,0,0,1074,437a2.38,2.38,0,0,0,1.41-1.93l.12-.27c3.25-4.38,6.54-8.74,9.74-13.16,3.47-4.79,3.17-7.6-1.1-11.88-3.13-3.13-6.09-2.73-7.22,1.53-2,7.68-5.68,14.55-9.58,21.34l-.22,0,0,.21a2.82,2.82,0,0,0-1.65,2.18l-.61.72a3.43,3.43,0,0,0-1.71,2.11l0-.05a2,2,0,0,0-1.45,1.67,29.45,29.45,0,0,0-5.91,5.89,2.34,2.34,0,0,0-1.9,1.47l-1,.29-3-.08a299.27,299.27,0,0,0-37.36-10.59c-.78-2.14-2.2-1.58-3.66-.87a5.12,5.12,0,0,1-3.06-.4c-1.39-1.65-3.21-.67-4.84-.78l-5.65-.14c-2.67-2.11-10.05-2.12-13.43,0l-6.33.17c-1.67.15-3.57-1-4.91.91l-2.34.21c-1.23-.7-2.34-.92-2.9.81l-2.62.31c-1-.1-2-.38-2.61.77l-1.6.32c-1.08-.72-1.82-.52-2.14.8l-1.91.34A18.88,18.88,0,0,0,943.72,443l-1.3.37c-1.64-.08-3.17,0-3.94,1.84l-1.17.44c-2.55.23-4.84,1-6.31,3.28a4.74,4.74,0,0,1-2.66,1.22,9.87,9.87,0,0,0-7.05,4.32l-.13.19h-.23c-.93-.13-1.66.09-1.89,1.14l-2.67,1.83c-1-.11-1.65.2-1.82,1.25a.35.35,0,0,1-.46.24c-.93-.1-1.6.19-1.78,1.2l-1.33,1a1.37,1.37,0,0,0-1.67,1.17L908,463.58a1.37,1.37,0,0,0-1.63,1.21L905,465.85a1.43,1.43,0,0,0-1.71,1.29,36.58,36.58,0,0,1-6.54,5.43,2.13,2.13,0,0,0-2.41,2.15l0,0a1.41,1.41,0,0,0-1.46,1.37l-10,9.85a2.19,2.19,0,0,0-2,2.2l0,0a1.43,1.43,0,0,0-1.39,1.64,3.45,3.45,0,0,1-1.82,2.05,3.41,3.41,0,0,0-2.74,3.35l-.89,1.21a1.36,1.36,0,0,0-1.26,1.66l-1,1.33a1.38,1.38,0,0,0-1.26,1.68l-.93,1.32c-1.66.36-1.94,1.68-2.1,3.07a9.22,9.22,0,0,1-2.35,3.64c-1.12.19-1.42.93-1.28,1.95-.62,2.37-2.2,4.21-3.36,6.29-1.07.23-1.27,1-1.14,1.93l-.47,1.06c-1.58.64-1.83,2-1.77,3.43a5.44,5.44,0,0,1-1.43,3.3c-1.37.94-1.38,2.47-1.65,3.88l-.36,1.35c-.8.19-1.39.49-.7,1.42l-.49,1.59a6.17,6.17,0,0,0-1.8,5.12c-.12.54-.25,1.07-.38,1.6-.89.81-1.92,1.57-.9,3l-.29,1.53c-1.41.53-1.07,1.67-.94,2.74a1.79,1.79,0,0,1-.18,1.76c-1,1.07-2.08,2.12-.85,3.7l-.19,1.52c-1.85.86-1.27,2.25-.79,3.62a7.21,7.21,0,0,1-.38,3.87c-1,.7-.74,1.72-.62,2.69,0,.33,0,.65,0,1-1.38,1.43-1.21,3-.29,4.53q-.07,3.75-.17,7.51c-1.89,1.5-1.88,3,0,4.5a33.12,33.12,0,0,1,.18,7.51c-1.29,3.16-.63,6.11,1,9,.64,1.42.11,3.14,1.12,4.47Z" transform="translate(-773 -352)"/><path class="cls-4" d="M983.21,609.72c4.34-.08,8.15-2,12.12-3.4a1.83,1.83,0,0,0,2.06-1.16c7-1.54,13.13-4.94,19.29-8.29A135.34,135.34,0,0,0,1046,575c.88-.85,1.63-2,3.11-1.08,0,.35,0,.71,0,1.07h0l-.75.76h0l-.75.75h0l-.75.75h0l-.75.75h0l-.75.75h0l-.76.75h0l-.75.75h0l-.75.75h0c-1.09,0-2.13.07-2.25,1.52l0,0-.76.76h0l-.76.76h0l-.76.75h0l-.76.75h0a2.63,2.63,0,0,0-2.31.81l-.63.64a1.69,1.69,0,0,0-.81,1.55h0c-.82,0-1.66,0-2.2.79v0a1.46,1.46,0,0,0-.8,1.45l0,0c-1.06.05-2.16,0-2.26,1.51h0c-1.06.05-2.16,0-2.26,1.51h0c-.83,0-1.66,0-2.2.79h0l-2.24,1.49h0c-.86.63-2.27.69-2.29,2.19h0c-2.12.35-4.3.61-5.25,3h0c-1.58-.1-2.82.81-4.17,1.42-6.09,2.78-12.24,5.4-18.57,7.59-22.4,7.75-45.85,9.74-69.13,12.68-9.09,1.15-18.14,2.49-26.62,6.25-.87.39-1.94.7-1.94,2h0c-1.06,0-2.15,0-2.26,1.51h0l-.76.75h0l-.75.75h0l-.75.76h0l-.75.75h0a1.61,1.61,0,0,0-1.52.81l-.69.7a.86.86,0,0,1-.45,0h-1l.72-1.27a2.81,2.81,0,0,0,1.59-2.36c4-4.13,8.41-7.56,14-9.15a1.93,1.93,0,0,0,2.08-1.08c2.43.36,4.56-1,6.89-1.22l1.62-.23,13.34-2a2.84,2.84,0,0,0,2.34-.35l16.36-1.9a2.67,2.67,0,0,0,2.32-.4,218.56,218.56,0,0,0,34.33-6.32A1.76,1.76,0,0,0,983.21,609.72Z" transform="translate(-773 -352)"/><path class="cls-5" d="M936.22,435.88c-3.32,3.17-7.79,4.44-11.49,7q-9.59,6.54-19.16,13.12a2.41,2.41,0,0,0-2.24,1.58c-12.67,10.22-24.54,21.29-34.35,34.34-14.46,19.23-24.59,40.45-28.56,64.36-.14.85-.07,1.77-1,2.24-.74-1-.43-2.17-.23-3.23,3.18-16.4,8.4-32.08,16.66-46.68.84-1.49,2-2.83,2-4.69l.67-1.24a2.06,2.06,0,0,0,1.53-2.41l-.07.05.76-.86a.3.3,0,0,0,.09-.41l.71-1,0,0a1.58,1.58,0,0,0,.92-1.56l.51-.59.78-.91,0,0a1.45,1.45,0,0,0,.89-1.54l.55-.63.76-.89a180.1,180.1,0,0,1,41-39.39C916.13,446,925.61,440,936.22,435.88Z" transform="translate(-773 -352)"/><path class="cls-6" d="M857.88,503.89c0,1.86-1.2,3.2-2,4.69-8.26,14.6-13.48,30.28-16.66,46.68-.2,1.06-.51,2.2.23,3.23,0,.4-.09.79-.13,1.19-1.4,1.73-1.32,3.62-.6,5.58,0,.88-.11,1.76-.16,2.65-1.3,1.52-1.12,3.23-.65,5a114.15,114.15,0,0,0,0,17.64,3.06,3.06,0,0,0,.54,3.5c.08,1.13.15,2.26.23,3.39a4.11,4.11,0,0,0,.42,4.48c.13,1,.27,2,.4,3a2.56,2.56,0,0,0,.52,3.34c.09.38.17.77.26,1.15-.52.64-.36,1.12.32,1.49L841,613a2.15,2.15,0,0,0,.52,2.76c.08.38.15.77.22,1.15-.58.81-.19,1.37.47,1.86l.3,1.13c-.56.83-.15,1.38.53,1.85l.27,1.14a9.33,9.33,0,0,0,1.89,6.36c.1.38.21.75.31,1.13a4.14,4.14,0,0,0,1.36,4.06l.66,1.8a4.87,4.87,0,0,0,1.56,4.19c.24.59.49,1.18.74,1.77a1.52,1.52,0,0,0,.79,2c1,2.08,2,4.17,3,6.25l-.06,2.32-1.24.17a3,3,0,0,1-1.38-2.17l-.68-1-.67-.72c-4.09-8-6.31-16.68-8.75-25.23a155,155,0,0,1-5.51-46.68c.61-25,7.58-48.14,19.76-69.83C855.75,506,856.29,504.45,857.88,503.89Z" transform="translate(-773 -352)"/><path class="cls-7" d="M894.33,631.05c0-1.28,1.07-1.59,1.94-2,8.48-3.76,17.53-5.1,26.62-6.25,23.28-2.94,46.73-4.93,69.13-12.68,6.33-2.19,12.48-4.81,18.57-7.59,1.35-.61,2.59-1.52,4.17-1.42-9.45,5.66-19.77,9.14-30.27,12.25-16.36,4.85-33.2,6.81-50.07,8.8-9.21,1.09-18.45,2.09-27.51,4.28A75.38,75.38,0,0,0,894.33,631.05Z" transform="translate(-773 -352)"/><path class="cls-8" d="M1052.22,568.35c2-4.9,6-8.38,9-12.63,2.12-3.08,3.32-6.9,6.58-9.17-.25,2.55-2,4.42-3,6.69l0,0c-1.32.91-1.42,2.57-2.29,3.76l0-.05c-1.5.47-1.55,2-2.29,3l0,0c-1,.43-1,1.61-1.61,2.31l-.6.6c-1.07.2-.75,1.27-1.17,1.87l-.13.12-1.1,1.14-.62.6c-1.33.44-1.46,1.85-2.21,2.76Z" transform="translate(-773 -352)"/><path class="cls-5" d="M853.53,652.67l.06-2.32c1.81.56,2.1,2.34,2.85,3.69,1.64,3,4.26,5.05,6.68,7.3-2.86.85-4.29-1.25-5.73-3S854.81,654.58,853.53,652.67Z" transform="translate(-773 -352)"/><path class="cls-7" d="M875.48,655.78l.2-.72c2.82-2,3.85-5,4.31-8.26a.94.94,0,0,0,.2-.66c2.84-1.12,2.28-4.65,4.43-6.26-2.13,6.64-4.88,13-9.52,18.28l-.3-.27a2.83,2.83,0,0,0,0-.65l.08-.06C875.76,657,875.59,656.38,875.48,655.78Z" transform="translate(-773 -352)"/><path class="cls-8" d="M884.62,639.88c-2.15,1.61-1.59,5.14-4.43,6.26.77-3.62,2-7,5.3-9.12h1l-1.26,2.24Z" transform="translate(-773 -352)"/><path class="cls-7" d="M870.53,662.61c-2.7,3-8.14,3-13.36-.65,3.36,1.09,5.56,2.69,8.18,2,1.63.06,3.2-.05,4.36-1.41a1.27,1.27,0,0,1,.59-.21Z" transform="translate(-773 -352)"/><path class="cls-7" d="M1064.8,553.24c.9-2.27,2.7-4.14,3-6.69a.87.87,0,0,0,.17-.64c1.78-.31,2-1.66,2.06-3.1l.67-1C1070.43,546.53,1068.15,550.16,1064.8,553.24Z" transform="translate(-773 -352)"/><path class="cls-4" d="M869.71,662.55c-1.16,1.36-2.73,1.47-4.36,1.41-.57-.73-1.69-1.07-1.7-2.23l5.12-.38Z" transform="translate(-773 -352)"/><path class="cls-7" d="M850.91,650.67a3,3,0,0,0,1.38,2.17l.93,2.92h0c-2.09-1.79-3.61-3.89-3.67-6.78l.67.72C850.46,650,850.69,650.34,850.91,650.67Z" transform="translate(-773 -352)"/><path class="cls-7" d="M1014.75,601.14c1-2.4,3.13-2.66,5.25-3C1018.56,599.67,1016.51,600.15,1014.75,601.14Z" transform="translate(-773 -352)"/><path class="cls-5" d="M941.46,433.66a2.83,2.83,0,0,1-3.69,1.59C938.7,434,940.19,434.1,941.46,433.66Z" transform="translate(-773 -352)"/><path class="cls-7" d="M1072.22,538.34c.2-.6.08-1.37.87-1.66,0,2.15.09,4.32-2.5,5.23.11-.42.21-.84.32-1.26.77-.26.65-1,.77-1.56l0,0C1072.07,539,1072.34,538.83,1072.22,538.34Z" transform="translate(-773 -352)"/><path class="cls-7" d="M1062.54,557c.87-1.19,1-2.85,2.29-3.76C1064.82,554.91,1064.82,556.63,1062.54,557Z" transform="translate(-773 -352)"/><path class="cls-7" d="M1052.89,569.32c.75-.92.88-2.33,2.21-2.77a3.17,3.17,0,0,1-2,3.34l-.18-.17A.68.68,0,0,0,1052.89,569.32Z" transform="translate(-773 -352)"/><path class="cls-7" d="M1049.15,575c0-.36,0-.72,0-1.07-.34-.9.14-1.34.89-1.65C1050,573.22,1050.16,574.29,1049.15,575Z" transform="translate(-773 -352)"/><path class="cls-7" d="M1060.29,560c.74-1,.79-2.57,2.29-3C1062.44,558.39,1062.22,559.82,1060.29,560Z" transform="translate(-773 -352)"/><path class="cls-8" d="M1073.2,535.47c-.16-1.28,0-2.42,1.3-3.1A5,5,0,0,1,1073.2,535.47Z" transform="translate(-773 -352)"/><path class="cls-7" d="M1020,598.14c0-1.5,1.43-1.56,2.29-2.19C1022.2,597.4,1021,597.64,1020,598.14Z" transform="translate(-773 -352)"/><path class="cls-6" d="M860.08,500.24a2.06,2.06,0,0,1-1.53,2.41A2.06,2.06,0,0,1,860.08,500.24Z" transform="translate(-773 -352)"/><path class="cls-8" d="M1078.22,519.58c-.77-.74-.45-1.17.41-1.45C1078.49,518.61,1078.36,519.1,1078.22,519.58Z" transform="translate(-773 -352)"/><path class="cls-8" d="M1076,527.81c-.83-.95-.25-1.27.65-1.45Z" transform="translate(-773 -352)"/><path class="cls-7" d="M1040.93,582.45c.12-1.45,1.16-1.52,2.25-1.52Z" transform="translate(-773 -352)"/><path class="cls-7" d="M1029,592.16c.1-1.48,1.2-1.46,2.26-1.51Z" transform="translate(-773 -352)"/><path class="cls-7" d="M1026.72,593.66c.1-1.48,1.2-1.46,2.26-1.51Z" transform="translate(-773 -352)"/><path class="cls-7" d="M1022.28,595.94l2.24-1.49C1024.4,595.89,1023.36,596,1022.28,595.94Z" transform="translate(-773 -352)"/><path class="cls-7" d="M1058.72,562.22c.62-.7.58-1.88,1.61-2.31C1060.46,561.15,1060.34,562.21,1058.72,562.22Z" transform="translate(-773 -352)"/><path class="cls-7" d="M892.08,632.55c.11-1.47,1.2-1.47,2.26-1.51Z" transform="translate(-773 -352)"/><path class="cls-7" d="M885.19,639.25l1.26-2.24a.86.86,0,0,0,.45,0C886.91,638.22,886.78,639.31,885.19,639.25Z" transform="translate(-773 -352)"/><path class="cls-7" d="M854.72,658c-1.46-.11-1.51-1.15-1.49-2.25h0l1.49,2.25Z" transform="translate(-773 -352)"/><path class="cls-7" d="M854.71,658a1.87,1.87,0,0,1,.85,1.75s-.23.15-.28.12c-.75-.46-.5-1.22-.56-1.88Z" transform="translate(-773 -352)"/><path class="cls-7" d="M1035.64,586.23a2.63,2.63,0,0,1,2.31-.81C1037.39,586.28,1036.5,586.22,1035.64,586.23Z" transform="translate(-773 -352)"/><path class="cls-7" d="M1053.09,569.89a1.73,1.73,0,0,1-1.69,1.41,2.13,2.13,0,0,0,.09-.71l0-.05.69-.65.09-.08a1.73,1.73,0,0,0,.59-.09Z" transform="translate(-773 -352)"/><path class="cls-7" d="M1032,589.2c.54-.79,1.38-.78,2.2-.79C1033.69,589.25,1032.84,589.22,1032,589.2Z" transform="translate(-773 -352)"/><path class="cls-7" d="M1057,564.69c.42-.6.1-1.67,1.17-1.87C1058,563.62,1058.58,564.84,1057,564.69Z" transform="translate(-773 -352)"/><path class="cls-7" d="M1024.53,594.44c.54-.8,1.37-.79,2.2-.79C1026.21,594.49,1025.36,594.45,1024.53,594.44Z" transform="translate(-773 -352)"/><path class="cls-7" d="M875.1,658.16c-.21.75-.16,1.6-.91,2.11l-.56-.47a2,2,0,0,0,.58-1.76l-.06-.13h.32l.33,0Z" transform="translate(-773 -352)"/><path class="cls-7" d="M872.69,661.77c-.53.76-1.38.71-2.16.84l-.23-.27,1.9-1.13Z" transform="translate(-773 -352)"/><path class="cls-6" d="M864.63,493.47a1.45,1.45,0,0,1-.89,1.54A1.37,1.37,0,0,1,864.63,493.47Z" transform="translate(-773 -352)"/><path class="cls-6" d="M862.47,496.48a1.58,1.58,0,0,1-.92,1.56A1.29,1.29,0,0,1,862.47,496.48Z" transform="translate(-773 -352)"/><path class="cls-7" d="M887.59,636.34a1.61,1.61,0,0,1,1.52-.81A1.58,1.58,0,0,1,887.59,636.34Z" transform="translate(-773 -352)"/><path class="cls-7" d="M1031.2,590.67a1.46,1.46,0,0,1,.8-1.45A1.49,1.49,0,0,1,1031.2,590.67Z" transform="translate(-773 -352)"/><path class="cls-7" d="M1034.2,588.42a1.69,1.69,0,0,1,.81-1.55A1.62,1.62,0,0,1,1034.2,588.42Z" transform="translate(-773 -352)"/><path class="cls-7" d="M1055.72,566l1.1-1.14C1057.13,565.85,1056.45,565.92,1055.72,566Z" transform="translate(-773 -352)"/><path class="cls-8" d="M1077.54,522.38l.18-1Z" transform="translate(-773 -352)"/><path class="cls-7" d="M1046.92,577.2l.75-.75Z" transform="translate(-773 -352)"/><path class="cls-7" d="M891.34,633.3l.76-.75Z" transform="translate(-773 -352)"/><path class="cls-7" d="M1047.67,576.45l.75-.75Z" transform="translate(-773 -352)"/><path class="cls-7" d="M890.6,634.05l.75-.75Z" transform="translate(-773 -352)"/><path class="cls-7" d="M889.85,634.8l.75-.76Z" transform="translate(-773 -352)"/><path class="cls-7" d="M889.1,635.54l.75-.75Z" transform="translate(-773 -352)"/><path class="cls-4" d="M1050.18,572c0-.37.11-.61.53-.56C1050.53,571.64,1050.35,571.82,1050.18,572Z" transform="translate(-773 -352)"/><path class="cls-7" d="M1048.41,575.71l.75-.76Z" transform="translate(-773 -352)"/><path class="cls-4" d="M1051.49,570.59a2.13,2.13,0,0,1-.09.71l-.26,0-.26-.05C1051.09,571.06,1051.29,570.82,1051.49,570.59Z" transform="translate(-773 -352)"/><path class="cls-6" d="M861.57,498l-.71,1Z" transform="translate(-773 -352)"/><path class="cls-7" d="M1037.94,585.43l.76-.75Z" transform="translate(-773 -352)"/><path class="cls-7" d="M1040.19,583.19l.76-.76Z" transform="translate(-773 -352)"/><path class="cls-7" d="M1038.69,584.68l.76-.75Z" transform="translate(-773 -352)"/><path class="cls-7" d="M1039.44,583.94l.76-.76Z" transform="translate(-773 -352)"/><path class="cls-6" d="M863.76,495l-.78.91Z" transform="translate(-773 -352)"/><path class="cls-6" d="M860.77,499.43l-.76.86Z" transform="translate(-773 -352)"/><path class="cls-7" d="M1043.18,580.94l.75-.75Z" transform="translate(-773 -352)"/><path class="cls-8" d="M1077,523.64l.54-1A.82.82,0,0,1,1077,523.64Z" transform="translate(-773 -352)"/><path class="cls-7" d="M1043.93,580.19l.75-.75Z" transform="translate(-773 -352)"/><path class="cls-7" d="M1044.67,579.44l.76-.75Z" transform="translate(-773 -352)"/><path class="cls-7" d="M1045.42,578.7l.75-.75Z" transform="translate(-773 -352)"/><path class="cls-8" d="M1074.69,531l.59-.87C1075.39,530.6,1075.11,530.84,1074.69,531Z" transform="translate(-773 -352)"/><path class="cls-7" d="M1046.17,578l.75-.75Z" transform="translate(-773 -352)"/><path class="cls-7" d="M874.19,660.27l-.75.75-.51-.51.7-.71Z" transform="translate(-773 -352)"/><path class="cls-7" d="M873.44,661l-.75.75-.49-.56.73-.7Z" transform="translate(-773 -352)"/><path class="cls-8" d="M1075.31,529.84h0Z" transform="translate(-773 -352)"/><path class="cls-6" d="M865.94,492l-.76.89Z" transform="translate(-773 -352)"/><path class="cls-5" d="M942.28,433.33l-.7.3Z" transform="translate(-773 -352)"/><path class="cls-9" d="M1070.24,509.91a11.88,11.88,0,0,0-.37,4.67,1.67,1.67,0,0,0-.77,2.07l-.32,2.28a2.34,2.34,0,0,0-.75,2.2l-.27,1.83c-1.87,3.44-2.82,7.24-4.17,10.89-.11.36-.21.72-.32,1.08a19.83,19.83,0,0,0-3.24,6.4,9.72,9.72,0,0,0-2.09,3.93,2.71,2.71,0,0,0-1.35,2l-.08.28a4.15,4.15,0,0,0-1.92,2.72c-.38.57-.75,1.14-1.12,1.71a2.64,2.64,0,0,0-1.41,2l0-.05a1.87,1.87,0,0,0-1.25,1.66,1.48,1.48,0,0,0-1,1.26,3.74,3.74,0,0,0-2,2.48l-1,1.19c-1.35.5-1.73,2.37-3.42,2.38a25,25,0,0,1-.25-2.58c0-3-.13-5.8-4.51-4.29-.58.2-1.52-.59-2.09-.38-1.36.52-3.44-.92-4,.68-.6,1.78-.21,3.9-.15,5.87a.78.78,0,0,0,1.1.65,1.1,1.1,0,0,0,.66-.72,18.24,18.24,0,0,0,.12-2.22c.05-1-.11-2.33,1.19-2.34s.92,1.44,1.11,2.33c.24,1.07-.7,3,1.2,2.91,1.57,0,.67-1.78.88-2.75s-.33-2.59,1.34-2.48c1.31.1.93,1.55.94,2.46,0,1.69-.16,3.44,2.45,2.86l.52.92a42,42,0,0,0-6.69,6.84,2,2,0,0,0-1.56,1.33h0l-2.57,1.66c-5.37-.55-10.58.64-15.88,1.16-10,1-19.73,3.53-29.7,4.27-6.8.51-13.42,2.06-20.2,2.69-7.25.68-14.47,1.73-21.7,2.68-9.8,1.3-19.59,2.68-29.39,4-8.57,1.15-17.15,2.25-25.72,3.39-6.49.86-13,1.84-19.48,2.54-2.62.28-6.22,1-4.74-3.93,0-.12-.32-.34-.5-.52,3.3-10.2,9.7-18.5,16.54-26.45,2.26-2.63,3.71-6.27,7.6-7.25,0,1.62,0,3.23.09,4.84,0,.84-.07,1.91,1.23,1.8,1.05-.08.86-1,.86-1.73,0-2.6,0-5.2-.07-7.8,2.19-2.91,5.23-4.86,8-7.07a104.94,104.94,0,0,1,19.1-12c4.64-2.25,8.8-5.59,14.06-6.46,6.87,4.72,13.9,5.07,21,.62,6.22-3.9,6.26-4.86.79-9.77,2.29-2.23,5.47-2.43,8.23-3.62,4.4,16.72,20.67,21.33,32,11.09-.23,3.3,1.69,3.78,4.18,2.88a12.49,12.49,0,0,1,5.66-1.17c.08,1.6.68,2.46,2.52,2.37,3-.14,6,0,9-.06,1,0,2.55.49,2.61-1.21s.93-4.84-.5-5.2c-3.42-.85-2.21-3.12-2.27-4.92-.12-3.47.06-7,.12-10.44a25.89,25.89,0,0,0,7.79-.75c.05,6.72.21,13.43.09,20.14-.05,3.14,2,2.66,3.73,2.5s4.57,1.33,4.52-2.47c-.08-5.72-.06-11.44,0-17.16,0-1.36-.45-2.85.59-4.31.7.9,1.25,1.56,1.76,2.26,4.78,6.52,9.68,13,14.28,19.6,2.26,3.26,5.37,2.24,8.1,1.95s1.35-3,1.4-4.61c.2-7.71.16-15.42.2-23.13,1.82,0,3.65.07,5.47,0,2.34-.1,4.6-.14,5.88,2.35ZM995,563c1.55,0,3.13-.24,3.67-1.92.65-2-.94-2.75-2.43-3.52-.84-.43-2.73-.27-2-1.91.5-1.2,1.68-.46,2.51.14.65.47,1.42.75,1.84-.11.26-.55-.23-1.17-.76-1.55a4.43,4.43,0,0,0-4.58-.43,2.25,2.25,0,0,0-1.62,2.25c.09,1.67,1.33,2.23,2.66,2.7a11,11,0,0,1,1.36.59c.54.28,1.18.59.83,1.37a1.23,1.23,0,0,1-1.56.67,6.82,6.82,0,0,1-1.59-.9c-.55-.37-1.18-.63-1.6,0s.09,1.19.56,1.57A4.35,4.35,0,0,0,995,563Zm-60.41-5c0-2.84,1.1-3.46,3.69-2,.7.4,1.36,1,1.89.24s-.15-1.44-.72-1.9a4.08,4.08,0,0,0-5.76.1c-1.82,1.62-1.78,6,.07,7.5a4.17,4.17,0,0,0,5.78-.13c.51-.44,1.18-1.14.52-1.89-.49-.55-1.06-.09-1.65.19C935.49,561.55,934.52,561,934.58,558.05Zm-30.5,2.2a14.21,14.21,0,0,0,0,1.76c.21,1.27-.74,3.17.62,3.7,2,.78,1-1.7,1.84-2.33.41-.33,1.12-.29,1.69-.43,2.51-.65,2.79-2.58,2.48-4.66s-1.63-2.58-3.69-2.73C902.36,555.23,904.68,558.67,904.08,560.25Zm122.17.27c1-1.44,3.75.72,3.76-2a2.79,2.79,0,0,0-2.77-2.91,3.24,3.24,0,0,0-3.68,2.4c-.66,2-.13,3.76,1.85,4.64,1.57.69,3.21.75,4.14-1.2C1028.44,560.51,1027.11,562,1026.25,560.52ZM1003.82,559c-.24-.54-.36-.89-.54-1.21-.49-.88-.43-2.7-2-2s-.08,1.94.15,2.84c.6,2.36,2.58,4.64-.47,7,2.17.62,3-.28,3.52-1.65a28.06,28.06,0,0,0,1.47-4.18c.3-1.35,2.26-3.23.38-4S1005.15,558.05,1003.82,559Zm-108.8.3c.48,1.18-.78,3,.92,3.54,1.44.43,1.09-1.17,1.24-2.06.2-1.12-.55-3,1-3.12,2.06-.1,1.1,2,1.34,3.13a11.51,11.51,0,0,0,.12,1.47c.36.94,1.32,1,1.61.26a6.94,6.94,0,0,0-.2-5.73c-1.15-2.18-3.45-1.12-5-.93C894.27,556,895.5,558.07,895,559.25Zm56.78.08c.71,1-.74,3.25.9,3.38,2.34.19,1-2.19,1.32-3.41.24-.81.14-1.93,1.32-1.79s1,1.2,1.06,2.07a13.78,13.78,0,0,0,.12,2.58c.23,1,1.29,1.06,1.57.36a6.9,6.9,0,0,0-.14-5.73c-1.12-2.25-3.41-1.15-5-1C951.11,556,952.34,558,951.8,559.33Zm-32.22.34c0-.93,0-1.68,0-2.42s0-1.6-1.08-1.59-.85.93-1,1.62c-.27,1.34.76,3.75-1.12,3.76-2.37,0-.79-2.51-1.27-3.83-.17-.46-.17-1.07-.48-1.33a1.5,1.5,0,0,0-1.24,0,8.29,8.29,0,0,0,.06,5.77c1,2.27,3.36,1.23,5,1.14C920.4,562.71,919.25,560.65,919.58,559.67Zm30.08-.38c-.18-1.91-1-3.53-3.25-3.7a3.34,3.34,0,0,0-3.9,3.53c-.07,2.26,1.07,3.86,3.56,3.85C948.33,563,949.37,561.56,949.66,559.29Zm65.26-2c-.8-2-2.42-2-4-1.45-2.21.78-.85,2.42-1,3.87-.18,2.14-.15,3.23,2.17,3.29,1.32,0,2.72-.27,3-1.64.55-2.3-1.57-2.36-2.94-3-.24-.11-.31-.54-.46-.81C1012.8,556.56,1013.64,558.28,1014.92,557.27Zm-42.28,1.81c0,2.19,1,3.82,3.42,3.88,2.22.06,3.45-1.2,3.56-3.4s-.93-3.89-3.37-4C974,555.51,972.89,556.84,972.64,559.08Zm-5.93,0a18.37,18.37,0,0,0,0,1.87c.09.78-.3,2,1.08,1.91s1-1.22,1-2c0-1.5-.09-2.9,1.66-3.77.82-.4.54-1.27-.5-1.46C966.64,555,966.31,556.94,966.71,559.11Zm-2.19,2.7a3.29,3.29,0,0,1-1.29-2.66c-.08-1.26,1.13-2,1.11-2.86a3.2,3.2,0,0,0-1.78-2.42c-1.39-.43-2,1.5-2,2.08a28.42,28.42,0,0,0,1.17,6,1.58,1.58,0,0,0,1.81,1C964.06,562.91,964.49,562.71,964.52,561.81Zm-38.61.23c-2.63-1.92-1.44-3.93-.48-6.09.18-.4-.94-1.77-1.71-2.11-1.09-.48-1.55.82-1.65,1.52a11.51,11.51,0,0,0,1.21,7.1c.19.35,1.1.38,1.69.4C925.2,562.87,925.46,562.45,925.91,562Zm93.75-8.25a1.35,1.35,0,0,0-1.48.69c-.9,1.07-.29,7.3.91,8.07a2.07,2.07,0,0,0,1.72.27c1-.49.34-1-.09-1.7a3.28,3.28,0,0,1,0-4.06C1022.28,555.11,1019.17,555.13,1019.66,553.79Zm-35.5,3.9c0-1,.06-2,0-2.94-.07-.76.39-2-.88-2-1.51-.05-1.12,1.32-1.16,2.21q-.09,2.76,0,5.52c0,.9-.37,2.37,1,2.38,1.68,0,.93-1.61,1.07-2.55A18.49,18.49,0,0,0,984.16,557.69Z" transform="translate(-773 -352)"/><path class="cls-10" d="M937.31,445.69l1.17-.44c1.43-.35,2.91-.61,3.94-1.84l1.3-.37A73.37,73.37,0,0,0,954.53,439l1.91-.34a2.5,2.5,0,0,0,2.14-.8l1.6-.32a2.4,2.4,0,0,0,2.61-.77l2.62-.31a3.37,3.37,0,0,0,2.9-.81l2.34-.21c1.71.11,3.44.31,4.91-.91l6.33-.17,13.43,0,5.65.14a5.62,5.62,0,0,0,4.84.78,5.12,5.12,0,0,0,3.06.4,5.28,5.28,0,0,0,3.66.87,299.27,299.27,0,0,1,37.36,10.59l.9,1.48a9,9,0,0,1-1.18,2.67c-5.84,6.16-11.7,12.3-19,16.84-6,2.49-11.42,5.61-18.26,6.47-7.25.9-14.63,1.68-21.9,2.88-7.11,1.17-14.39,1.9-21.59,2.86-2.61.34-5.35-.26-7.75.61-7,2.52-14.39,1.46-21.51,3.29-5.62,1.45-11.7,1.61-17.53,2.19-9.57.95-19,3.3-28.65,3.3-1.36,0-2.46.35-2.82,1.86a17.33,17.33,0,0,0-13.44,4.88,1.87,1.87,0,0,1-1.64-1.09c.26-1.43,2-1.94,2.09-3.48a3.45,3.45,0,0,0,1.82-2.05,2.32,2.32,0,0,0,1.39-1.64l0,0a3.08,3.08,0,0,0,2-2.2l10-9.85a1.86,1.86,0,0,0,1.46-1.37l0,0a3.74,3.74,0,0,0,2.41-2.15,36.58,36.58,0,0,0,6.54-5.43,2.08,2.08,0,0,0,1.71-1.29l1.31-1.06a2,2,0,0,0,1.63-1.21l1.36-1.05a1.85,1.85,0,0,0,1.67-1.17l1.33-1a2,2,0,0,0,1.78-1.2.35.35,0,0,0,.46-.24l1.82-1.25,2.67-1.83a2.29,2.29,0,0,0,1.89-1.14h.23l.13-.19a24,24,0,0,0,7.05-4.32A4.74,4.74,0,0,0,931,449,20.31,20.31,0,0,0,937.31,445.69Z" transform="translate(-773 -352)"/><path class="cls-11" d="M865.84,589.92c.18.18.53.4.5.52-1.48,5,2.12,4.21,4.74,3.93,6.51-.7,13-1.68,19.48-2.54,8.57-1.14,17.15-2.24,25.72-3.39,9.8-1.32,19.59-2.7,29.39-4,7.23-1,14.45-2,21.7-2.68,6.78-.63,13.4-2.18,20.2-2.69,10-.74,19.72-3.27,29.7-4.27,5.3-.52,10.51-1.71,15.88-1.16-3.3,3.29-7.76,5.17-10.7,8.89l-.09.22c-1.92-.08-2.94,1.3-4.05,2.52l.06,0c-1,.41-2.37.3-2.72,1.75l-.85.41c-2,0-3.18,1.3-4.39,2.59l-.07.06c-1.61.45-3.42.47-4.4,2.19l-.08.07c-1.55,0-2.54,1-3.52,2l-1,.23a7,7,0,0,0-4.24,2l-1,.17c-1.76.44-3.58.73-4.94,2.1l-1.78.3c-1.72.5-3.6.58-5,1.92l-1.75.25a2.07,2.07,0,0,0-2.18.84l-1.55.28a2.51,2.51,0,0,0-2.74.87,3.67,3.67,0,0,0-2.5.3,2.16,2.16,0,0,0-2.19.78l-2.29.32c-3,.46-6.12.5-8.94,1.89l-3,.36c-2.34-.31-4.54.37-6.74,1l-1.5.1a6.68,6.68,0,0,0-4.42.81,7.74,7.74,0,0,0-3.79.31,23.9,23.9,0,0,0-8.24,1l-1.5.06c-1.78-.06-3.56-.14-5.17.87a7.86,7.86,0,0,0-3.79.29,34,34,0,0,0-11.17,1.93l-2.3.29c-3.84.41-7.64.95-11,3.12l-1.75.3c-1.51.33-3,.65-4,2l-.26,0-.19.18a2.26,2.26,0,0,0-2.06,1.23c-.82-.09-1.27.43-1.67,1a2.13,2.13,0,0,0-1.83,1.34c-4.17,2.65-6.54,6.92-9.55,10.62-1.1.18-1.32.92-1.16,1.89l-3.38,6.34c-1.83.69-1.64,2.4-1.93,3.86a11.17,11.17,0,0,1-2.58,5.12A1.28,1.28,0,0,0,866,652c-3.28,1.66-3.38-1.49-4.56-3,0-1,0-2-1.31-2.15a3.16,3.16,0,0,1-1-2.1c.11-1.07.23-2.15-1.26-2.39l-.33-1.05c.19-.93.08-1.69-1-1.95l-.42-1.27c-.58-2.74-.86-5.58-3-7.72l-.47-1.61c.19-1.7.47-3.44-1.49-4.41a4.36,4.36,0,0,1-.71-3.08c.76-.85.24-1.17-.57-1.38l-.27-1.58c1.22-1.59.14-2.62-.9-3.65-.25-.51-.5-1-.76-1.51.08-.52.15-1,.22-1.55.82-1,.75-1.78-.62-2.18l-.55-1.5.22-1.5c.88-.66.72-1.14-.24-1.49-1-1.33-.48-3-1.12-4.47.13-.51.26-1,.4-1.53a30.86,30.86,0,0,0,13-3.73c-3.37,13.71-2.89,32.49,1.29,38a107.58,107.58,0,0,1-.48-20.76A56.91,56.91,0,0,1,865.84,589.92Z" transform="translate(-773 -352)"/><path class="cls-12" d="M875.54,495.36a1.87,1.87,0,0,0,1.64,1.09q-7.47,13.56,7.57,18a75.15,75.15,0,0,1,7.5,2.18c2.76,1.13,2.86,3.76.43,5.48s-7.63,2-9.32-.57c-2.3-3.46-4.22-1.68-6.71-.8-3.15,1.11-2.61,2.56-1,4.59,4.82,6.14,15,7.58,22,3,3.93-2.57,6.27-6.11,5.54-11-.69-4.66-4-6.94-8.21-8.12-3-.82-6-1.58-8.94-2.59-1.62-.56-3.3-1.4-3-3.68s1.7-3.16,3.66-3.68a7.72,7.72,0,0,1,7.34,1.56c3.21,2.7,4.86-.7,6.46-2.05,2-1.71-.61-2.85-1.7-3.87-2.27-2.09-5.21-2.79-8.15-3.37.36-1.51,1.46-1.86,2.82-1.86,9.67,0,19.08-2.35,28.65-3.3,5.83-.58,11.91-.74,17.53-2.19,7.12-1.83,14.55-.77,21.51-3.29,2.4-.87,5.14-.27,7.75-.61,7.2-1,14.48-1.69,21.59-2.86,7.27-1.2,14.65-2,21.9-2.88,6.84-.86,12.31-4,18.26-6.47-.27,1.46-1.38,2.33-2.39,3.24a128.69,128.69,0,0,1-36.11,23.08c-3.56-1.81-7.22-3.15-11.33-2.74-9,.9-14,6.45-17,14.43-4.7,1.47-9.51,2.66-14,4.5-4.83,2-10.2,2.79-14.35,6.32a11.78,11.78,0,0,1,1.78-14.06c3.57-3.6,9.13-4.54,13.31-1.4s4.48-1,6-2.54c2.31-2.41-.59-3.17-1.83-4.07a17.47,17.47,0,0,0-21.49.81c-6.77,5.63-10.12,13.93-6.44,23-.76,2.78-4.61,1.91-5.44,4.61-2.16.39-2.78-.56-2.75-2.66.11-6.23,0-12.46,0-18.69,0-1.1-.2-2.33,1.09-2.93,3.1-1.44,1.63-4.19,1.35-6.15-.24-1.73-2.51-.78-3.87-.87a48.06,48.06,0,0,0-6.35,0c-1.09.06-2.88-.73-3,1.14s-1.2,4.44.81,5.44,1.73,2.14,1.74,3.57c0,6.1,0,12.21,0,18.31,0,.74.09,2-.21,2.15-4,1.53-2.07,4.89-2.47,7.51-3.75,1.41-6.6,4.36-10.2,6a4,4,0,0,0-3.18.8c-5.84,5.55-13.37,5.57-20.65,6.79-4.27.71-8.58.49-12.88,1.68-3.25.9-7.3,1.94-10.63-.81l.18-2.53c.13-.53.26-1.06.38-1.6a9.49,9.49,0,0,0,1.8-5.12c.17-.53.33-1.06.49-1.59a1.3,1.3,0,0,0,.7-1.42L854,531c1.28-1,1.47-2.43,1.65-3.88a5.44,5.44,0,0,0,1.43-3.3,5.14,5.14,0,0,0,1.77-3.43c.16-.35.32-.71.47-1.06a2.33,2.33,0,0,0,1.14-1.93c1.16-2.08,2.74-3.92,3.36-6.29a2.3,2.3,0,0,0,1.28-1.95,9.22,9.22,0,0,0,2.35-3.64,4.73,4.73,0,0,0,2.1-3.07l.93-1.32a2.07,2.07,0,0,0,1.26-1.68l1-1.33a2,2,0,0,0,1.26-1.66l.89-1.21A1.31,1.31,0,0,0,875.54,495.36Z" transform="translate(-773 -352)"/><path class="cls-12" d="M1024.33,507.65a25.89,25.89,0,0,1-7.79.75c0-2.36-.13-4.72-.14-7.07,0-.83-.27-1.89.75-2.3,4.19-1.71,1.93-4.61,1.38-7.2v-1.36c4.67-3.56,9.44-7,14-10.73,4.37-3.59,8.73-7.19,12.9-11.06,4.55-4.23,9.29-8.41,14.93-11.29l.81.15c1.39,8.35,7,15.26,8.11,23.72.24,1.83.69,3.64,1,5.46a7,7,0,0,0,.64,4.46l0,13.54a2.76,2.76,0,0,1-.64,0c-1.28-2.49-3.54-2.45-5.88-2.35-1.82.08-3.65,0-5.47,0a50.75,50.75,0,0,1-.06-7.08c.42-3.41-1.45-3.55-4-3.42-2.31.11-4.59-.57-4.4,3.36.35,6.89.1,13.81.1,21-1.75-.8-2.24-2.14-3-3.18-4.75-6.38-9.52-12.76-14.1-19.26-2.19-3.1-5.24-1.93-7.81-1.68-2.35.23-1.14,2.81-1.22,4.33C1024.3,500.19,1024.37,503.92,1024.33,507.65Z" transform="translate(-773 -352)"/><path class="cls-13" d="M1060.34,457.39c-5.64,2.88-10.38,7.06-14.93,11.29-4.17,3.87-8.53,7.47-12.9,11.06-4.54,3.73-9.31,7.17-14,10.73-.88.06-1.44.45-1.47,1.4-1.73,0-3.45.07-5.18.07-6.72,0-6.72,0-6.65,6.6-2.38.6-4.31,2.08-6.37,3.31a32.78,32.78,0,0,0-6.73-7.42,128.69,128.69,0,0,0,36.11-23.08c1-.91,2.12-1.78,2.39-3.24,7.28-4.54,13.14-10.68,19-16.84a8.76,8.76,0,0,0,1.17-2.67c1,0,2-.08,2.16-1.4l1-.29c1.13.15,1.85-.23,1.9-1.47a29.45,29.45,0,0,1,5.91-5.89c1.1,0,1.6-.56,1.45-1.67l0,.05c1.63.16,1.73-.93,1.71-2.11l.61-.72c1.45-.05,1.7-1,1.65-2.18l0-.21.22,0c1.46.4,2.57-.39,3.83-.94,4-1.71,4.68-1.15,4.33,3.11l-.12.27c-1.18.13-1.56.83-1.41,1.93a68.07,68.07,0,0,1-8.35,11.54c-1.17.12-1.51.84-1.37,1.9l-2.39,4.07C1060.1,454.79,1060.48,456.24,1060.34,457.39Z" transform="translate(-773 -352)"/><path class="cls-14" d="M850.11,544.59c3.33,2.75,7.38,1.71,10.63.81,4.3-1.19,8.61-1,12.88-1.68,7.28-1.22,14.81-1.24,20.65-6.79a4,4,0,0,1,3.18-.8c-3.84,3.7-8.12,6.88-11.93,10.64-4.17,4.11-7.34,9-11.26,13.29-1.52.06-1.61,1.09-1.55,2.24v0c-2.06-.36-3.13,1.14-4.33,2.36s-2.68,2.73-4.66,2.75a87.49,87.49,0,0,0-18.23,2.3l-.33-2.31c0-.32,0-.64,0-1,1-.71.92-1.68.62-2.69a7.21,7.21,0,0,0,.38-3.87,4.31,4.31,0,0,0,.79-3.62l.19-1.52c.53-1.18,1.25-2.31.85-3.7a1.81,1.81,0,0,0,.18-1.77,3,3,0,0,0,.94-2.73l.29-1.53Z" transform="translate(-773 -352)"/><path class="cls-9" d="M845.5,569.73a87.49,87.49,0,0,1,18.23-2.3c2,0,3.35-1.41,4.66-2.75s2.27-2.72,4.33-2.36c-1.39,4.26-4.34,7.7-6.21,11.73a110,110,0,0,0-7.29,21.13,30.86,30.86,0,0,1-13,3.73l-1.35-7.44a33.12,33.12,0,0,0-.18-7.51c0-1.5,0-3,0-4.5l.17-7.51C845.09,571.21,845.3,570.47,845.5,569.73Z" transform="translate(-773 -352)"/><path class="cls-15" d="M1075.55,434.84c.35-4.26-.36-4.82-4.33-3.11-1.26.55-2.37,1.34-3.83.94,3.9-6.79,7.53-13.66,9.58-21.34,1.13-4.26,4.09-4.66,7.22-1.53,4.27,4.28,4.57,7.09,1.1,11.88C1082.09,426.1,1078.8,430.46,1075.55,434.84Z" transform="translate(-773 -352)"/><path class="cls-8" d="M1022.45,582.53c2.94-3.72,7.4-5.6,10.7-8.89l2.57-1.66C1032.52,577,1027.79,580.16,1022.45,582.53Z" transform="translate(-773 -352)"/><path class="cls-8" d="M995.32,434.34l-13.43,0C985.27,432.22,992.65,432.23,995.32,434.34Z" transform="translate(-773 -352)"/><path class="cls-8" d="M910.88,613.29a34,34,0,0,1,11.17-1.93C918.49,613,914.86,614.14,910.88,613.29Z" transform="translate(-773 -352)"/><path class="cls-8" d="M1063.59,533.85c1.35-3.65,2.3-7.45,4.17-10.89A17.65,17.65,0,0,1,1063.59,533.85Z" transform="translate(-773 -352)"/><path class="cls-8" d="M844.88,591.47l1.35,7.44c-.14.51-.27,1-.4,1.53C844.25,597.58,843.59,594.63,844.88,591.47Z" transform="translate(-773 -352)"/><path class="cls-8" d="M954.53,439A73.37,73.37,0,0,1,943.72,443,18.88,18.88,0,0,1,954.53,439Z" transform="translate(-773 -352)"/><path class="cls-8" d="M897.61,616.7c3.33-2.17,7.13-2.71,11-3.12C905.26,615.79,901.41,616.17,897.61,616.7Z" transform="translate(-773 -352)"/><path class="cls-8" d="M880,646.8c-.46,3.26-1.49,6.23-4.31,8.26C876.58,652,877.54,649,880,646.8Z" transform="translate(-773 -352)"/><path class="cls-8" d="M960.23,606.52c2.82-1.39,5.92-1.43,8.94-1.89A10.29,10.29,0,0,1,960.23,606.52Z" transform="translate(-773 -352)"/><path class="cls-5" d="M872.93,660.51l-.73.7-1.9,1.13a1.27,1.27,0,0,0-.59.21l-.94-1.2a17.66,17.66,0,0,1,5.44-3.31,2,2,0,0,1-.58,1.76Z" transform="translate(-773 -352)"/><path class="cls-8" d="M932.51,610.14a23.9,23.9,0,0,1,8.24-1C938.13,610.49,935.46,611.43,932.51,610.14Z" transform="translate(-773 -352)"/><path class="cls-10" d="M853.09,630.35c2.12,2.14,2.4,5,3,7.72A18,18,0,0,1,853.09,630.35Z" transform="translate(-773 -352)"/><path class="cls-8" d="M928.34,450.19a24,24,0,0,1-7.05,4.32A9.87,9.87,0,0,1,928.34,450.19Z" transform="translate(-773 -352)"/><path class="cls-8" d="M950.46,607.9c2.2-.65,4.4-1.33,6.74-1C955.11,608.23,952.94,609.11,950.46,607.9Z" transform="translate(-773 -352)"/><path class="cls-8" d="M937.31,445.69A20.31,20.31,0,0,1,931,449C932.47,446.65,934.76,445.92,937.31,445.69Z" transform="translate(-773 -352)"/><path class="cls-8" d="M1060,541.33a19.83,19.83,0,0,1,3.24-6.4C1063.1,537.52,1062.35,539.82,1060,541.33Z" transform="translate(-773 -352)"/><path class="cls-8" d="M925.84,611.07c1.61-1,3.39-.93,5.17-.87C929.64,612.59,927.73,611.74,925.84,611.07Z" transform="translate(-773 -352)"/><path class="cls-8" d="M1070.35,504.76a2.76,2.76,0,0,0,.64,0c.8,1.88,1.55,3.75-.75,5.19Z" transform="translate(-773 -352)"/><path class="cls-5" d="M845.15,629.2a9.33,9.33,0,0,1-1.89-6.36A7.89,7.89,0,0,1,845.15,629.2Z" transform="translate(-773 -352)"/><path class="cls-5" d="M838.68,565.26c-.72-2-.8-3.85.6-5.58C839.71,561.61,840.26,563.55,838.68,565.26Z" transform="translate(-773 -352)"/><path class="cls-8" d="M852.47,535.34a9.49,9.49,0,0,1-1.8,5.12A6.17,6.17,0,0,1,852.47,535.34Z" transform="translate(-773 -352)"/><path class="cls-5" d="M839.09,601.9a4.11,4.11,0,0,1-.42-4.48C840.07,598.79,839.92,600.31,839.09,601.9Z" transform="translate(-773 -352)"/><path class="cls-8" d="M975.56,434.49c-1.47,1.22-3.2,1-4.91.91C972,433.49,973.89,434.64,975.56,434.49Z" transform="translate(-773 -352)"/><path class="cls-8" d="M1005.81,435.26a5.62,5.62,0,0,1-4.84-.78C1002.6,434.59,1004.42,433.61,1005.81,435.26Z" transform="translate(-773 -352)"/><path class="cls-8" d="M1043.43,562.89c1.69,0,2.07-1.88,3.42-2.38,0,2-1.06,3-2.89,3.3l-.52-.92Z" transform="translate(-773 -352)"/><path class="cls-8" d="M1010.41,590c1.21-1.29,2.4-2.61,4.39-2.59C1014,589.45,1012.27,589.8,1010.41,590Z" transform="translate(-773 -352)"/><path class="cls-8" d="M844.71,579.46c0,1.5,0,3,0,4.5C842.83,582.46,842.82,581,844.71,579.46Z" transform="translate(-773 -352)"/><path class="cls-8" d="M1071,491.18a7,7,0,0,1-.64-4.46C1072.51,487.92,1071.74,489.54,1071,491.18Z" transform="translate(-773 -352)"/><path class="cls-8" d="M845.5,569.73c-.2.74-.41,1.48-.62,2.22-.92-1.58-1.09-3.1.29-4.53Z" transform="translate(-773 -352)"/><path class="cls-5" d="M837.87,572.89c-.47-1.75-.65-3.46.65-5C839,569.65,839.58,571.42,837.87,572.89Z" transform="translate(-773 -352)"/><path class="cls-8" d="M944.54,608.81A6.68,6.68,0,0,1,949,608C947.86,610.32,946.18,609.43,944.54,608.81Z" transform="translate(-773 -352)"/><path class="cls-8" d="M1018.31,585.27c1.11-1.22,2.13-2.6,4.05-2.52A3.71,3.71,0,0,1,1018.31,585.27Z" transform="translate(-773 -352)"/><path class="cls-8" d="M991.14,598.77c1.36-1.37,3.18-1.66,4.94-2.1C995.13,599,992.92,598.39,991.14,598.77Z" transform="translate(-773 -352)"/><path class="cls-10" d="M851.13,624.33c2,1,1.68,2.71,1.49,4.41C851.4,627.52,851.42,625.87,851.13,624.33Z" transform="translate(-773 -352)"/><path class="cls-8" d="M875.54,495.36a1.31,1.31,0,0,1-.65-.13,3.41,3.41,0,0,1,2.74-3.35C877.56,493.42,875.8,493.93,875.54,495.36Z" transform="translate(-773 -352)"/><path class="cls-8" d="M984.37,601c1.39-1.34,3.27-1.42,5-1.92C988.27,601.23,986.29,601,984.37,601Z" transform="translate(-773 -352)"/><path class="cls-8" d="M1005.94,592.24c1-1.72,2.79-1.74,4.4-2.19C1009.61,592.27,1007.71,592.12,1005.94,592.24Z" transform="translate(-773 -352)"/><path class="cls-10" d="M848.68,614.64c1,1,2.12,2.06.9,3.65A4.23,4.23,0,0,1,848.68,614.64Z" transform="translate(-773 -352)"/><path class="cls-8" d="M848,551.05c.4,1.39-.32,2.52-.85,3.7C845.9,553.17,847,552.12,848,551.05Z" transform="translate(-773 -352)"/><path class="cls-8" d="M1012.53,436.53a5.28,5.28,0,0,1-3.66-.87C1010.33,435,1011.75,434.39,1012.53,436.53Z" transform="translate(-773 -352)"/><path class="cls-8" d="M942.42,443.41c-1,1.23-2.51,1.49-3.94,1.84C939.25,443.46,940.78,443.33,942.42,443.41Z" transform="translate(-773 -352)"/><path class="cls-8" d="M846.94,556.27a4.31,4.31,0,0,1-.79,3.62C845.67,558.52,845.09,557.13,846.94,556.27Z" transform="translate(-773 -352)"/><path class="cls-8" d="M850.11,544.59l-.72.43c-1-1.39,0-2.15.9-3Z" transform="translate(-773 -352)"/><path class="cls-8" d="M891.82,619c1-1.35,2.53-1.67,4-2C895.14,618.92,893.38,618.76,891.82,619Z" transform="translate(-773 -352)"/><path class="cls-8" d="M855.67,527.1c-.18,1.45-.37,2.9-1.65,3.88C854.29,529.57,854.3,528,855.67,527.1Z" transform="translate(-773 -352)"/><path class="cls-5" d="M846.82,634.39a4.14,4.14,0,0,1-1.36-4.06A3.69,3.69,0,0,1,846.82,634.39Z" transform="translate(-773 -352)"/><path class="cls-5" d="M849,640.38a4.87,4.87,0,0,1-1.56-4.19A3.72,3.72,0,0,1,849,640.38Z" transform="translate(-773 -352)"/><path class="cls-10" d="M869.79,645.45c.29-1.46.1-3.17,1.93-3.86C871.39,643,871.11,644.5,869.79,645.45Z" transform="translate(-773 -352)"/><path class="cls-8" d="M997.08,596.5a7,7,0,0,1,4.24-2C1000.56,596.54,998.75,596.37,997.08,596.5Z" transform="translate(-773 -352)"/><path class="cls-8" d="M1070,542.81c-.07,1.44-.28,2.79-2.06,3.1C1068.09,544.53,1068.35,543.21,1070,542.81Z" transform="translate(-773 -352)"/><path class="cls-8" d="M869.57,502.43a4.73,4.73,0,0,1-2.1,3.07C867.63,504.11,867.91,502.79,869.57,502.43Z" transform="translate(-773 -352)"/><path class="cls-8" d="M968.31,435.61a3.37,3.37,0,0,1-2.9.81C966,434.69,967.08,434.91,968.31,435.61Z" transform="translate(-773 -352)"/><path class="cls-5" d="M840,608.23a2.56,2.56,0,0,1-.52-3.34C840.72,605.84,840.53,607,840,608.23Z" transform="translate(-773 -352)"/><path class="cls-15" d="M1060.34,457.39c.14-1.15-.24-2.6,1.57-2.84-.26,1-.51,2-.76,3Z" transform="translate(-773 -352)"/><path class="cls-5" d="M838.44,594a3.06,3.06,0,0,1-.54-3.5C839.27,591.51,839,592.74,838.44,594Z" transform="translate(-773 -352)"/><path class="cls-8" d="M1002.34,594.26c1-1,2-2,3.52-2C1005.3,594.07,1003.92,594.35,1002.34,594.26Z" transform="translate(-773 -352)"/><path class="cls-8" d="M858.87,520.37a5.14,5.14,0,0,1-1.77,3.43C857,522.32,857.29,521,858.87,520.37Z" transform="translate(-773 -352)"/><path class="cls-8" d="M1047.84,559.32a3.74,3.74,0,0,1,2-2.48A2.14,2.14,0,0,1,1047.84,559.32Z" transform="translate(-773 -352)"/><path class="cls-8" d="M882.9,486a3.08,3.08,0,0,1-2,2.2A2.19,2.19,0,0,1,882.9,486Z" transform="translate(-773 -352)"/><path class="cls-8" d="M1015.65,587c.35-1.45,1.7-1.34,2.72-1.75C1018.43,587.32,1016.84,586.84,1015.65,587Z" transform="translate(-773 -352)"/><path class="cls-15" d="M1052.94,447.2c-.17,1.32-1.15,1.38-2.16,1.4l-.89-1.48Z" transform="translate(-773 -352)"/><path class="cls-8" d="M896.76,472.57a3.74,3.74,0,0,1-2.41,2.15A2.13,2.13,0,0,1,896.76,472.57Z" transform="translate(-773 -352)"/><path class="cls-8" d="M1054.59,550.3a4.15,4.15,0,0,1,1.92-2.72C1056.71,549.09,1056.17,550.06,1054.59,550.3Z" transform="translate(-773 -352)"/><path class="cls-8" d="M962.79,436.73a2.4,2.4,0,0,1-2.61.77C960.79,436.35,961.82,436.63,962.79,436.73Z" transform="translate(-773 -352)"/><path class="cls-10" d="M847.52,609.4c1.37.4,1.44,1.16.62,2.18l-.76,0Z" transform="translate(-773 -352)"/><path class="cls-8" d="M958.58,437.82a2.5,2.5,0,0,1-2.14.8C956.76,437.3,957.5,437.1,958.58,437.82Z" transform="translate(-773 -352)"/><path class="cls-8" d="M1068,521.13a2.34,2.34,0,0,1,.75-2.2C1069.7,520.06,1069.44,520.79,1068,521.13Z" transform="translate(-773 -352)"/><path class="cls-8" d="M849.1,546.55a3,3,0,0,1-.94,2.73C848,548.22,847.69,547.08,849.1,546.55Z" transform="translate(-773 -352)"/><path class="cls-8" d="M971.46,604.31a2.16,2.16,0,0,1,2.19-.78C973.32,604.93,972.61,605.23,971.46,604.31Z" transform="translate(-773 -352)"/><path class="cls-5" d="M841.47,615.71A2.15,2.15,0,0,1,841,613C842.08,613.69,842.08,614.64,841.47,615.71Z" transform="translate(-773 -352)"/><path class="cls-8" d="M845.77,563.76c.3,1,.37,2-.62,2.69C845,565.48,844.73,564.46,845.77,563.76Z" transform="translate(-773 -352)"/><path class="cls-8" d="M976.15,603.23a2.51,2.51,0,0,1,2.74-.87C978.31,603.69,977.2,603.36,976.15,603.23Z" transform="translate(-773 -352)"/><path class="cls-8" d="M980.44,602.08a2.07,2.07,0,0,1,2.18-.84C982.33,602.64,981.63,603,980.44,602.08Z" transform="translate(-773 -352)"/><path class="cls-8" d="M928.11,619.34a2.84,2.84,0,0,1-2.34.35C926.32,618.07,927.12,618.08,928.11,619.34Z" transform="translate(-773 -352)"/><path class="cls-8" d="M946.79,617a2.67,2.67,0,0,1-2.32.4C945,615.87,945.78,615.82,946.79,617Z" transform="translate(-773 -352)"/><path class="cls-8" d="M887.8,633.39a2.81,2.81,0,0,1-1.59,2.36C886.1,634.53,886.17,633.43,887.8,633.39Z" transform="translate(-773 -352)"/><path class="cls-8" d="M903.33,457.55a2.41,2.41,0,0,1,2.24-1.58C905.48,457.43,904.47,457.57,903.33,457.55Z" transform="translate(-773 -352)"/><path class="cls-10" d="M857.82,642.34c1.49.24,1.37,1.32,1.26,2.39A3.4,3.4,0,0,1,857.82,642.34Z" transform="translate(-773 -352)"/><path class="cls-10" d="M860.11,646.83c1.33.17,1.33,1.15,1.31,2.15A2.85,2.85,0,0,1,860.11,646.83Z" transform="translate(-773 -352)"/><path class="cls-15" d="M1064.89,435.82c0,1.18-.08,2.27-1.71,2.11A3.43,3.43,0,0,1,1064.89,435.82Z" transform="translate(-773 -352)"/><path class="cls-15" d="M1067.15,432.92c0,1.18-.2,2.13-1.65,2.18A2.82,2.82,0,0,1,1067.15,432.92Z" transform="translate(-773 -352)"/><path class="cls-8" d="M905,465.85a2.08,2.08,0,0,1-1.71,1.29A1.43,1.43,0,0,1,905,465.85Z" transform="translate(-773 -352)"/><path class="cls-8" d="M894.32,474.74a1.86,1.86,0,0,1-1.46,1.37A1.41,1.41,0,0,1,894.32,474.74Z" transform="translate(-773 -352)"/><path class="cls-8" d="M880.84,488.19a2.32,2.32,0,0,1-1.39,1.64A1.43,1.43,0,0,1,880.84,488.19Z" transform="translate(-773 -352)"/><path class="cls-8" d="M874,496.44a2,2,0,0,1-1.26,1.66A1.36,1.36,0,0,1,874,496.44Z" transform="translate(-773 -352)"/><path class="cls-8" d="M871.76,499.43a2.07,2.07,0,0,1-1.26,1.68A1.38,1.38,0,0,1,871.76,499.43Z" transform="translate(-773 -352)"/><path class="cls-8" d="M865.12,509.14a2.3,2.3,0,0,1-1.28,1.95C863.7,510.07,864,509.33,865.12,509.14Z" transform="translate(-773 -352)"/><path class="cls-8" d="M860.48,517.38a2.33,2.33,0,0,1-1.14,1.93C859.21,518.36,859.41,517.61,860.48,517.38Z" transform="translate(-773 -352)"/><path class="cls-8" d="M1035.71,572a2,2,0,0,1,1.56-1.33A1.45,1.45,0,0,1,1035.71,572Z" transform="translate(-773 -352)"/><path class="cls-8" d="M1050.85,555.58a1.87,1.87,0,0,1,1.25-1.66A1.39,1.39,0,0,1,1050.85,555.58Z" transform="translate(-773 -352)"/><path class="cls-8" d="M1069.1,516.65a1.67,1.67,0,0,1,.77-2.07C1070.14,515.46,1070.09,516.23,1069.1,516.65Z" transform="translate(-773 -352)"/><path class="cls-8" d="M1052.06,554a2.64,2.64,0,0,1,1.41-2C1053.66,553.14,1053.33,553.89,1052.06,554Z" transform="translate(-773 -352)"/><path class="cls-8" d="M997.39,605.16a1.83,1.83,0,0,1-2.06,1.16C995.57,605.13,996.33,604.88,997.39,605.16Z" transform="translate(-773 -352)"/><path class="cls-8" d="M847.19,606.4l-.22,1.5c-1-.28-1.46-.69-.43-1.53l.33,0Z" transform="translate(-773 -352)"/><path class="cls-8" d="M1056.59,547.3a2.71,2.71,0,0,1,1.35-2C1058.17,546.39,1057.81,547.14,1056.59,547.3Z" transform="translate(-773 -352)"/><path class="cls-5" d="M840.59,610.87c-.68-.37-.84-.85-.32-1.49C841.09,609.73,841.31,610.2,840.59,610.87Z" transform="translate(-773 -352)"/><path class="cls-8" d="M983.21,609.72a1.76,1.76,0,0,1-2.09,1C981.42,609.55,982.18,609.36,983.21,609.72Z" transform="translate(-773 -352)"/><path class="cls-8" d="M847.38,611.55l.76,0c-.07.52-.14,1-.22,1.55C846.88,612.9,846.22,612.54,847.38,611.55Z" transform="translate(-773 -352)"/><path class="cls-5" d="M842.16,618.72c-.66-.49-1-1.05-.47-1.86A1.16,1.16,0,0,1,842.16,618.72Z" transform="translate(-773 -352)"/><path class="cls-8" d="M889.31,620.37a2.26,2.26,0,0,1,2.06-1.23C891.15,620.34,890.39,620.61,889.31,620.37Z" transform="translate(-773 -352)"/><path class="cls-10" d="M849.85,619.87c.81.21,1.33.53.57,1.38A1.08,1.08,0,0,1,849.85,619.87Z" transform="translate(-773 -352)"/><path class="cls-8" d="M912.43,621.71l-1.62.23C911.18,620.67,911.7,620.46,912.43,621.71Z" transform="translate(-773 -352)"/><path class="cls-8" d="M885.81,622.74a2.13,2.13,0,0,1,1.83-1.34C887.49,622.47,886.83,622.84,885.81,622.74Z" transform="translate(-773 -352)"/><path class="cls-8" d="M903.92,623.16a1.93,1.93,0,0,1-2.08,1.08C902.1,623.05,902.86,622.82,903.92,623.16Z" transform="translate(-773 -352)"/><path class="cls-8" d="M911,461.36a1.85,1.85,0,0,1-1.67,1.17A1.37,1.37,0,0,1,911,461.36Z" transform="translate(-773 -352)"/><path class="cls-10" d="M847.19,606.4l-.32-.06-.33,0c.13-.49.27-1,.41-1.46C847.91,605.26,848.07,605.74,847.19,606.4Z" transform="translate(-773 -352)"/><path class="cls-15" d="M1074,437c-.15-1.1.23-1.8,1.41-1.93A2.38,2.38,0,0,1,1074,437Z" transform="translate(-773 -352)"/><path class="cls-15" d="M1063.22,437.88c.15,1.11-.35,1.65-1.45,1.67A2,2,0,0,1,1063.22,437.88Z" transform="translate(-773 -352)"/><path class="cls-10" d="M856.49,639.34c1.08.26,1.19,1,1,1.95A2,2,0,0,1,856.49,639.34Z" transform="translate(-773 -352)"/><path class="cls-5" d="M843,621.7c-.68-.47-1.09-1-.53-1.85A1.17,1.17,0,0,1,843,621.7Z" transform="translate(-773 -352)"/><path class="cls-15" d="M1055.86,445.44c0,1.24-.77,1.62-1.9,1.47A2.34,2.34,0,0,1,1055.86,445.44Z" transform="translate(-773 -352)"/><path class="cls-5" d="M850.57,644.1a1.52,1.52,0,0,1-.79-2A1.24,1.24,0,0,1,850.57,644.1Z" transform="translate(-773 -352)"/><path class="cls-15" d="M1064.3,450.48c-.14-1.06.2-1.78,1.37-1.9A2.27,2.27,0,0,1,1064.3,450.48Z" transform="translate(-773 -352)"/><path class="cls-8" d="M920.93,454.69a2.29,2.29,0,0,1-1.89,1.14C919.27,454.78,920,454.56,920.93,454.69Z" transform="translate(-773 -352)"/><path class="cls-8" d="M916.37,457.66l-1.82,1.25C914.72,457.86,915.4,457.55,916.37,457.66Z" transform="translate(-773 -352)"/><path class="cls-8" d="M914.09,459.15a2,2,0,0,1-1.78,1.2C912.49,459.34,913.16,459.05,914.09,459.15Z" transform="translate(-773 -352)"/><path class="cls-8" d="M908,463.58a2,2,0,0,1-1.63,1.21A1.37,1.37,0,0,1,908,463.58Z" transform="translate(-773 -352)"/><path class="cls-10" d="M866,652a1.28,1.28,0,0,1,1.23-1.43A1.43,1.43,0,0,1,866,652Z" transform="translate(-773 -352)"/><path class="cls-8" d="M853.66,532.33a1.3,1.3,0,0,1-.7,1.42C852.27,532.82,852.86,532.52,853.66,532.33Z" transform="translate(-773 -352)"/><path class="cls-10" d="M875.1,635.25c-.16-1,.06-1.71,1.16-1.89A2.55,2.55,0,0,1,875.1,635.25Z" transform="translate(-773 -352)"/><path class="cls-4" d="M1052.91,569.72a1.73,1.73,0,0,1-.59.09c0-.49-.07-1-.1-1.46l.67,1A.72.72,0,0,1,1052.91,569.72Z" transform="translate(-773 -352)"/><path class="cls-8" d="M1071.68,539.09c-.12.59,0,1.3-.77,1.56A1.62,1.62,0,0,1,1071.68,539.09Z" transform="translate(-773 -352)"/><path class="cls-8" d="M875.48,655.78c.11.6.28,1.22-.59,1.4C875.08,656.71,875.28,656.25,875.48,655.78Z" transform="translate(-773 -352)"/><path class="cls-4" d="M1052.23,569.89l-.69.65Z" transform="translate(-773 -352)"/><path class="cls-8" d="M1072.22,538.34c.12.49-.15.69-.57.78Z" transform="translate(-773 -352)"/><path class="cls-8" d="M874.8,657.89l-.33,0h-.32l.66-.67A2.83,2.83,0,0,1,874.8,657.89Z" transform="translate(-773 -352)"/><path class="cls-1" d="M850.91,650.67c-.22-.33-.45-.65-.68-1C850.46,650,850.69,650.34,850.91,650.67Z" transform="translate(-773 -352)"/><path class="cls-13" d="M859.22,595.18a110,110,0,0,1,7.29-21.13c1.87-4,4.82-7.47,6.21-11.73v0a2.56,2.56,0,0,0,1.55-2.24c3.92-4.28,7.09-9.18,11.26-13.29,3.81-3.76,8.09-6.94,11.93-10.64,3.6-1.66,6.45-4.61,10.2-6,2.34,0,4.68.07,7,.08,7,0,7,0,6.62-6.89.83-2.7,4.68-1.83,5.44-4.61a24.76,24.76,0,0,0,6.56,9.14c-5.26.87-9.42,4.21-14.06,6.46a104.94,104.94,0,0,0-19.1,12c-2.81,2.21-5.85,4.16-8,7.07-2.53-.37-1.86,1.6-2.11,2.89-3.89,1-5.34,4.62-7.6,7.25-6.84,7.95-13.24,16.25-16.54,26.45A56.91,56.91,0,0,0,860,612.41a107.58,107.58,0,0,0,.48,20.76C856.33,627.67,855.85,608.89,859.22,595.18Z" transform="translate(-773 -352)"/><path class="cls-16" d="M1024.33,507.65c0-3.73,0-7.46.19-11.18.08-1.52-1.13-4.1,1.22-4.33,2.57-.25,5.62-1.42,7.81,1.68,4.58,6.5,9.35,12.88,14.1,19.26.78,1,1.27,2.38,3,3.18,0-7.17.25-14.09-.1-21-.19-3.93,2.09-3.25,4.4-3.36,2.52-.13,4.39,0,4,3.42a50.75,50.75,0,0,0,.06,7.08c0,7.71,0,15.42-.2,23.13,0,1.57,1.38,4.31-1.4,4.61s-5.84,1.31-8.1-1.95c-4.6-6.64-9.5-13.08-14.28-19.6-.51-.7-1.06-1.36-1.76-2.26-1,1.46-.57,2.95-.59,4.31-.06,5.72-.08,11.44,0,17.16,0,3.8-2.75,2.3-4.52,2.47s-3.78.64-3.73-2.5C1024.54,521.08,1024.38,514.37,1024.33,507.65Z" transform="translate(-773 -352)"/><path class="cls-16" d="M992.13,494.43a32.78,32.78,0,0,1,6.73,7.42c4,8.87,2.39,16.91-3.6,24.3-11.29,10.24-27.56,5.63-32-11.09a34.37,34.37,0,0,1,.51-8.94c3-8,8-13.53,17-14.43C984.91,491.28,988.57,492.62,992.13,494.43ZM991,505.29c-2.8-4.62-7.13-6.67-11.38-5.4-5,1.51-8.24,6.45-8,12.34.6,6.44,4.81,11,10.31,11.12s10.16-4.42,10.87-10.66A10.25,10.25,0,0,0,991,505.29Z" transform="translate(-773 -352)"/><path class="cls-16" d="M933.29,527.83a24.76,24.76,0,0,1-6.56-9.14c-3.68-9.08-.33-17.38,6.44-23a17.47,17.47,0,0,1,21.49-.81c1.24.9,4.14,1.66,1.83,4.07-1.51,1.58-2,5.57-6,2.54s-9.74-2.2-13.31,1.4a11.78,11.78,0,0,0-1.78,14.06c1.13,3.8,4.08,5.39,7.62,6.27a11.18,11.18,0,0,0,10.59-4.3l1.45-.23c5.47,4.91,5.43,5.87-.79,9.77C947.19,532.9,940.16,532.55,933.29,527.83Z" transform="translate(-773 -352)"/><path class="cls-16" d="M1005.23,498.54c-.07-6.59-.07-6.59,6.65-6.6,1.73,0,3.45-.05,5.18-.07l1.47,0c.55,2.59,2.81,5.49-1.38,7.2-1,.41-.76,1.47-.75,2.3,0,2.35.09,4.71.14,7.07-.06,3.48-.24,7-.12,10.44.06,1.8-1.15,4.07,2.27,4.92,1.43.36.57,3.4.5,5.2s-1.61,1.19-2.61,1.21c-3,.07-6-.08-9,.06-1.84.09-2.44-.77-2.52-2.37.59-1.41-.79-3.77,1.13-4.27,2.2-.56,1.9-1.85,1.91-3.27,0-6.1-.09-12.19.06-18.28C1008.26,499.74,1007.63,498.52,1005.23,498.54Z" transform="translate(-773 -352)"/><path class="cls-14" d="M1005.23,498.54c2.4,0,3,1.2,3,3.5-.15,6.09-.05,12.18-.06,18.28,0,1.42.29,2.71-1.91,3.27-1.92.5-.54,2.86-1.13,4.27a12.49,12.49,0,0,0-5.66,1.17c-2.49.9-4.41.42-4.18-2.88,6-7.39,7.58-15.43,3.6-24.3C1000.92,500.62,1002.85,499.14,1005.23,498.54Z" transform="translate(-773 -352)"/><path class="cls-13" d="M955.07,518.68l-1.45.23c-3.93.44-7.76,1.14-10.59,4.3-3.54-.88-6.49-2.47-7.62-6.27,4.15-3.53,9.52-4.36,14.35-6.32,4.54-1.84,9.35-3,14-4.5a34.37,34.37,0,0,0-.51,8.94C960.54,516.25,957.36,516.45,955.07,518.68Z" transform="translate(-773 -352)"/><path class="cls-16" d="M1043.43,562.89h0c-2.61.58-2.42-1.17-2.45-2.86,0-.91.37-2.36-.94-2.46-1.67-.11-1.12,1.49-1.34,2.48s.69,2.71-.88,2.75c-1.9,0-1-1.84-1.2-2.91-.19-.89.29-2.33-1.11-2.33s-1.14,1.37-1.19,2.34a18.24,18.24,0,0,1-.12,2.22,1.1,1.1,0,0,1-.66.72.78.78,0,0,1-1.1-.65c-.06-2-.45-4.09.15-5.87.54-1.6,2.62-.16,4-.68.57-.21,1.51.58,2.09.38,4.38-1.51,4.52,1.26,4.51,4.29A25,25,0,0,0,1043.43,562.89Z" transform="translate(-773 -352)"/><path class="cls-16" d="M995,563a4.28,4.28,0,0,1-2.75-1c-.47-.38-.94-1-.56-1.57s1.05-.41,1.6,0a6.82,6.82,0,0,0,1.59.9,1.23,1.23,0,0,0,1.56-.67c.35-.78-.29-1.09-.83-1.37a11,11,0,0,0-1.36-.59c-1.33-.47-2.57-1-2.66-2.7a2.25,2.25,0,0,1,1.62-2.25,4.43,4.43,0,0,1,4.58.43c.53.38,1,1,.76,1.55-.42.86-1.19.58-1.84.11-.83-.6-2-1.34-2.51-.14-.69,1.64,1.2,1.48,2,1.91,1.49.77,3.08,1.48,2.43,3.52C998.12,562.77,996.54,563,995,563Z" transform="translate(-773 -352)"/><path class="cls-16" d="M934.58,558.05c-.06,2.94.91,3.5,3.82,2.1.59-.28,1.16-.74,1.65-.19.66.75,0,1.45-.52,1.89a4.17,4.17,0,0,1-5.78.13c-1.85-1.52-1.89-5.88-.07-7.5a4.08,4.08,0,0,1,5.76-.1c.57.46,1.21,1.23.72,1.9s-1.19.16-1.89-.24C935.68,554.59,934.63,555.21,934.58,558.05Z" transform="translate(-773 -352)"/><path class="cls-16" d="M904.08,560.25c.6-1.58-1.72-5,2.95-4.69,2.06.15,3.39.71,3.69,2.73s0,4-2.48,4.66c-.57.14-1.28.1-1.69.43-.81.63.15,3.11-1.84,2.33-1.36-.53-.41-2.43-.62-3.7A14.21,14.21,0,0,1,904.08,560.25Zm4.62-1c-.06-.86,0-1.88-1.14-2-1.28-.2-1.33.86-1.34,1.72s-.23,2.26,1.19,2.29C908.45,561.24,908.66,560.2,908.7,559.26Z" transform="translate(-773 -352)"/><path class="cls-16" d="M1026.25,560.52c.86,1.47,2.19,0,3.3.91-.93,2-2.57,1.89-4.14,1.2-2-.88-2.51-2.6-1.85-4.64a3.24,3.24,0,0,1,3.68-2.4,2.79,2.79,0,0,1,2.77,2.91C1030,561.24,1027.24,559.08,1026.25,560.52Z" transform="translate(-773 -352)"/><path class="cls-16" d="M1003.82,559c1.33-.9.71-3.89,2.53-3.16s-.08,2.63-.38,4a28.06,28.06,0,0,1-1.47,4.18c-.52,1.37-1.35,2.27-3.52,1.65,3-2.4,1.07-4.68.47-7-.23-.9-1.59-2.2-.15-2.84s1.49,1.14,2,2C1003.46,558.06,1003.58,558.41,1003.82,559Z" transform="translate(-773 -352)"/><path class="cls-16" d="M895,559.25c.48-1.18-.75-3.24,1-3.44,1.59-.19,3.89-1.25,5,.93a6.94,6.94,0,0,1,.2,5.73c-.29.76-1.25.68-1.61-.26a11.51,11.51,0,0,1-.12-1.47c-.24-1.16.72-3.23-1.34-3.13-1.58.08-.83,2-1,3.12-.15.89.2,2.49-1.24,2.06C894.24,562.27,895.5,560.43,895,559.25Z" transform="translate(-773 -352)"/><path class="cls-16" d="M951.8,559.33c.54-1.31-.69-3.37,1.14-3.54,1.6-.15,3.89-1.25,5,1a6.9,6.9,0,0,1,.14,5.73c-.28.7-1.34.65-1.57-.36a13.78,13.78,0,0,1-.12-2.58c0-.87,0-1.94-1.06-2.07s-1.08,1-1.32,1.79c-.36,1.22,1,3.6-1.32,3.41C951.06,562.58,952.51,560.34,951.8,559.33Z" transform="translate(-773 -352)"/><path class="cls-16" d="M919.58,559.67c-.33,1,.82,3-1.14,3.15-1.62.09-4,1.13-5-1.14a8.29,8.29,0,0,1-.06-5.77,1.5,1.5,0,0,1,1.24,0c.31.26.31.87.48,1.33.48,1.32-1.1,3.84,1.27,3.83,1.88,0,.85-2.42,1.12-3.76.14-.69-.09-1.61,1-1.62s1,.86,1.08,1.59S919.58,558.74,919.58,559.67Z" transform="translate(-773 -352)"/><path class="cls-16" d="M949.66,559.29c-.29,2.27-1.33,3.68-3.59,3.68-2.49,0-3.63-1.59-3.56-3.85a3.34,3.34,0,0,1,3.9-3.53C948.68,555.76,949.48,557.38,949.66,559.29Zm-3.74-2.08a1.84,1.84,0,0,0-1.38,1.77c-.06,1.07.14,2.11,1.38,2.26s1.48-.73,1.55-1.67A1.92,1.92,0,0,0,945.92,557.21Z" transform="translate(-773 -352)"/><path class="cls-16" d="M1014.92,557.27c-1.28,1-2.12-.71-3.17.23.15.27.22.7.46.81,1.37.67,3.49.73,2.94,3-.32,1.37-1.72,1.68-3,1.64-2.32-.06-2.35-1.15-2.17-3.29.13-1.45-1.23-3.09,1-3.87C1012.5,555.26,1014.12,555.27,1014.92,557.27Z" transform="translate(-773 -352)"/><path class="cls-16" d="M972.64,559.08c.25-2.24,1.4-3.57,3.61-3.49,2.44.08,3.49,1.64,3.37,4s-1.34,3.46-3.56,3.4C973.59,562.9,972.68,561.27,972.64,559.08Zm1.88.36c.17,1.08.59,2,1.81,1.86,1-.13,1.26-1.07,1.24-2s-.23-2.12-1.54-2S974.65,558.46,974.52,559.44Z" transform="translate(-773 -352)"/><path class="cls-16" d="M966.71,559.11c-.4-2.17-.07-4.1,3.27-3.47,1,.19,1.32,1.06.5,1.46-1.75.87-1.63,2.27-1.66,3.77,0,.8.26,2-1,2s-1-1.13-1.08-1.91A18.37,18.37,0,0,1,966.71,559.11Z" transform="translate(-773 -352)"/><path class="cls-16" d="M964.52,561.81c0,.9-.46,1.1-1,1.13a1.58,1.58,0,0,1-1.81-1,28.42,28.42,0,0,1-1.17-6c0-.58.61-2.51,2-2.08a3.2,3.2,0,0,1,1.78,2.42c0,.86-1.19,1.6-1.11,2.86A3.29,3.29,0,0,0,964.52,561.81Z" transform="translate(-773 -352)"/><path class="cls-16" d="M925.91,562c-.45.41-.71.83-.94.82-.59,0-1.5-.05-1.69-.4a11.51,11.51,0,0,1-1.21-7.1c.1-.7.56-2,1.65-1.52.77.34,1.89,1.71,1.71,2.11C924.47,558.11,923.28,560.12,925.91,562Z" transform="translate(-773 -352)"/><path class="cls-16" d="M1019.66,553.79c-.49,1.34,2.62,1.32,1.11,3.27a3.28,3.28,0,0,0,0,4.06c.43.66,1.11,1.21.09,1.7a2.07,2.07,0,0,1-1.72-.27c-1.2-.77-1.81-7-.91-8.07A1.35,1.35,0,0,1,1019.66,553.79Z" transform="translate(-773 -352)"/><path class="cls-16" d="M984.16,557.69a18.49,18.49,0,0,1,0,2.58c-.14.94.61,2.56-1.07,2.55-1.34,0-.94-1.48-1-2.38q-.09-2.76,0-5.52c0-.89-.35-2.26,1.16-2.21,1.27,0,.81,1.28.88,2C984.22,555.72,984.16,556.71,984.16,557.69Z" transform="translate(-773 -352)"/><path class="cls-16" d="M890,556.22c.25-1.29-.42-3.26,2.11-2.89,0,2.6.08,5.2.07,7.8,0,.69.19,1.65-.86,1.73-1.3.11-1.2-1-1.23-1.8C890,559.45,890,557.84,890,556.22Z" transform="translate(-773 -352)"/><path class="cls-16" d="M890.62,491.57c2.94.58,5.88,1.28,8.15,3.37,1.09,1,3.71,2.16,1.7,3.87-1.6,1.35-3.25,4.75-6.46,2.05a7.72,7.72,0,0,0-7.34-1.56c-2,.52-3.4,1.5-3.66,3.68s1.42,3.12,3,3.68c2.93,1,6,1.77,8.94,2.59,4.26,1.18,7.52,3.46,8.21,8.12.73,4.87-1.61,8.41-5.54,11-7,4.59-17.21,3.15-22-3-1.59-2-2.13-3.48,1-4.59,2.49-.88,4.41-2.66,6.71.8,1.69,2.53,6.77,2.36,9.32.57s2.33-4.35-.43-5.48a75.15,75.15,0,0,0-7.5-2.18q-15-4.46-7.57-18A17.33,17.33,0,0,1,890.62,491.57Z" transform="translate(-773 -352)"/><path class="cls-16" d="M921.29,523.3c.36,6.89.36,6.9-6.62,6.89-2.34,0-4.68-.05-7-.08.4-2.62-1.49-6,2.47-7.51.3-.12.2-1.41.21-2.15,0-6.1,0-12.21,0-18.31,0-1.43.16-2.62-1.74-3.57s-.94-3.59-.81-5.44,1.92-1.08,3-1.14a48.06,48.06,0,0,1,6.35,0c1.36.09,3.63-.86,3.87.87.28,2,1.75,4.71-1.35,6.15-1.29.6-1.09,1.83-1.09,2.93,0,6.23.07,12.46,0,18.69C918.51,522.74,919.13,523.69,921.29,523.3Z" transform="translate(-773 -352)"/><path class="cls-9" d="M1018.53,491.83l-1.47,0c0-.95.59-1.34,1.47-1.4Z" transform="translate(-773 -352)"/><path class="cls-9" d="M874.26,560.06a2.56,2.56,0,0,1-1.55,2.24C872.65,561.15,872.74,560.12,874.26,560.06Z" transform="translate(-773 -352)"/><path class="cls-14" d="M991,505.29a10.25,10.25,0,0,1,1.77,7.4c-.71,6.24-5.42,10.8-10.87,10.66s-9.71-4.68-10.31-11.12C978.32,510.62,984.42,507.26,991,505.29Z" transform="translate(-773 -352)"/><path class="cls-13" d="M991,505.29c-6.59,2-12.69,5.33-19.41,6.94-.21-5.89,3-10.83,8-12.34C983.88,498.62,988.21,500.67,991,505.29Z" transform="translate(-773 -352)"/><path class="cls-11" d="M943,523.21c2.83-3.16,6.66-3.86,10.59-4.3A11.18,11.18,0,0,1,943,523.21Z" transform="translate(-773 -352)"/><path class="cls-11" d="M908.69,559.27c0,.93-.24,2-1.28,2-1.42,0-1.2-1.33-1.19-2.29s.06-1.92,1.34-1.72C908.67,557.38,908.64,558.4,908.69,559.27Z" transform="translate(-773 -352)"/><path class="cls-11" d="M945.92,557.21a1.92,1.92,0,0,1,1.55,2.36c-.07.94-.45,1.81-1.55,1.67s-1.44-1.19-1.38-2.26A1.84,1.84,0,0,1,945.92,557.21Z" transform="translate(-773 -352)"/><path class="cls-15" d="M974.52,559.44c.13-1,.3-2.08,1.51-2.16s1.51,1,1.54,2-.26,1.86-1.24,2C975.11,561.48,974.69,560.52,974.52,559.44Z" transform="translate(-773 -352)"/></svg>